{
.appVersion = "3133";
.formatVersion = 3;
customParameters = (
{
name = "Write lastChange";
value = 0;
},
{
name = "Write DisplayStrings";
value = 0;
},
{
name = panose;
value = (
2,
11,
1,
4,
2,
2,
2,
6,
2,
3
);
},
{
name = fsType;
value = (
);
},
{
name = vendorID;
value = TYPT;
},
{
name = "gasp Table";
value = {
};
},
{
name = "Use Typo Metrics";
value = 1;
}
);
date = "2022-07-30 06:59:29 +0000";
familyName = Nabla;
fontMaster = (
{
customParameters = (
{
name = typoLineGap;
value = 0;
},
{
name = typoAscender;
value = 1263;
},
{
name = typoDescender;
value = -380;
},
{
name = hheaAscender;
value = 1263;
},
{
name = hheaDescender;
value = -380;
}
);
id = m01;
metricValues = (
{
over = 16;
pos = 1263;
},
{
over = 16;
pos = 600;
},
{
over = 16;
pos = 500;
},
{
over = -16;
},
{
over = -16;
pos = -380;
},
{
pos = -40;
},
{
pos = -80;
},
{
pos = 740;
},
{
pos = 540;
}
);
name = Regular;
visible = 1;
}
);
glyphs = (
{
glyphname = A;
kernLeft = O;
layers = (
{
layerId = m01;
shapes = (
{
pos = (100,0);
ref = _part.square;
},
{
pos = (100,100);
ref = _part.square;
},
{
pos = (100,300);
ref = _part.square;
},
{
pos = (100,400);
ref = _part.square;
},
{
pos = (100,500);
ref = _part.square;
},
{
pos = (200,640);
ref = _part.corner;
scale = (-1,1);
},
{
pos = (300,200);
ref = _part.square;
scale = (-1,1);
},
{
pos = (200,640);
ref = _part.square;
},
{
pos = (300,200);
ref = _part.square;
},
{
pos = (300,640);
ref = _part.square;
},
{
pos = (400,200);
ref = _part.square;
scale = (0.5,1);
},
{
pos = (400,640);
ref = _part.square;
scale = (0.5,1);
},
{
pos = (450,0);
ref = _part.square;
},
{
pos = (450,100);
ref = _part.square;
},
{
pos = (450,300);
ref = _part.square;
},
{
pos = (450,400);
ref = _part.square;
},
{
pos = (450,500);
ref = _part.square;
},
{
pos = (450,640);
ref = _part.corner;
},
{
pos = (100,200);
ref = _part.square;
},
{
pos = (450,200);
ref = _part.square;
},
{
pos = (100,540);
ref = _part.square;
},
{
pos = (450,540);
ref = _part.square;
}
);
width = 650;
},
{
associatedMasterId = m01;
layerId = "D4DE8142-7A61-44C8-BE88-44C9AA6E80C1";
name = side;
shapes = (
{
closed = 0;
nodes = (
(450,230,l,{
name = shadowBottomColor;
}),
(450,0,l,{
name = shadowColor;
})
);
},
{
closed = 0;
nodes = (
(450,740,l,{
name = topColor;
}),
(200,740,ls,{
name = topColor;
}),
(147,740,o),
(100,693,o),
(100,640,cs,{
name = shadowColor;
}),
(100,0,l,{
name = shadowBottomColor;
})
);
},
{
closed = 0;
nodes = (
(450,640,l,{
name = shadowBottomColor;
}),
(450,300,l,{
name = shadowColor;
})
);
}
);
width = 650;
},
{
associatedMasterId = m01;
layerId = "E1CD6F57-6DCA-4BC4-A7D1-3AAF33674D0D";
name = top;
shapes = (
{
closed = 0;
nodes = (
(490,300,l,{
name = midTopColor;
}),
(190,300,l,{
name = shadowColor;
})
);
}
);
width = 650;
},
{
associatedMasterId = m01;
layerId = "FA525724-9C3D-4B63-92A9-8DA3E26FE8E1";
name = highlightColor;
shapes = (
{
closed = 0;
nodes = (
(450,540,l,{
name = highlightColor;
}),
(450,300,l,{
name = highlightColor;
}),
(200,300,l,{
name = highlightColor;
})
);
},
{
closed = 0;
nodes = (
(450,740,l,{
name = highlightColor;
}),
(200,740,ls,{
name = highlightColor;
}),
(147,740,o),
(100,693,o),
(100,640,cs,{
name = highlightColor;
}),
(100,200,l,{
name = highlightColor;
})
);
}
);
width = 650;
}
);
metricLeft = H;
metricRight = H;
unicode = 65;
},
{
glyphname = Aacute;
kernLeft = O;
layers = (
{
layerId = m01;
shapes = (
{
pos = (25,239);
ref = acutecomb;
},
{
ref = A;
}
);
width = 650;
},
{
associatedMasterId = m01;
layerId = "D4DE8142-7A61-44C8-BE88-44C9AA6E80C1";
name = side;
shapes = (
{
closed = 0;
nodes = (
(450,230,l,{
name = shadowBottomColor;
}),
(450,0,l,{
name = shadowColor;
})
);
},
{
closed = 0;
nodes = (
(450,740,l,{
name = topBottomColor;
}),
(200,740,ls,{
name = topColor;
}),
(147,740,o),
(100,693,o),
(100,640,cs,{
name = shadowColor;
}),
(100,0,l,{
name = shadowBottomColor;
})
);
},
{
closed = 0;
nodes = (
(450,640,l,{
name = shadowBottomColor;
}),
(450,300,l,{
name = shadowColor;
})
);
},
{
closed = 0;
nodes = (
(169,936.2,l,{
name = shadowColor;
}),
(222,849.1,l,{
name = shadowColor;
})
);
}
);
width = 650;
},
{
associatedMasterId = m01;
layerId = "E1CD6F57-6DCA-4BC4-A7D1-3AAF33674D0D";
name = top;
shapes = (
{
closed = 0;
nodes = (
(490,300,l,{
name = midTopColor;
}),
(190,300,l,{
name = shadowColor;
})
);
},
{
closed = 0;
nodes = (
(408,1068.9,l,{
name = topColor;
}),
(169,936.2,l,{
name = topBottomColor;
})
);
}
);
width = 650;
},
{
associatedMasterId = m01;
layerId = "FA525724-9C3D-4B63-92A9-8DA3E26FE8E1";
name = highlightColor;
shapes = (
{
closed = 0;
nodes = (
(450,540,l,{
name = "";
}),
(450,300,l,{
name = "";
}),
(200,300,l,{
name = "";
})
);
},
{
closed = 0;
nodes = (
(450,740,l,{
name = "";
}),
(200,740,ls,{
name = "";
}),
(147,740,o,{
name = "";
}),
(100,693,o,{
name = "";
}),
(100,640,cs,{
name = "";
}),
(100,200,l,{
name = "";
})
);
},
{
closed = 0;
nodes = (
(408,1068.9,l,{
name = "";
}),
(169,936.2,l,{
name = "";
}),
(222,849.1,l,{
name = "";
})
);
}
);
width = 650;
}
);
metricLeft = H;
metricRight = H;
unicode = 193;
},
{
glyphname = Abreve;
kernLeft = O;
layers = (
{
layerId = m01;
shapes = (
{
ref = A;
},
{
pos = (25,280);
ref = brevecomb;
}
);
width = 650;
},
{
associatedMasterId = m01;
layerId = "D4DE8142-7A61-44C8-BE88-44C9AA6E80C1";
name = side;
shapes = (
{
closed = 0;
nodes = (
(450,230,l,{
name = shadowBottomColor;
}),
(450,0,l,{
name = shadowColor;
})
);
},
{
closed = 0;
nodes = (
(450,740,l,{
name = topBottomColor;
}),
(200,740,ls,{
name = topColor;
}),
(147,740,o),
(100,693,o),
(100,640,cs,{
name = shadowColor;
}),
(100,0,l,{
name = shadowBottomColor;
})
);
},
{
closed = 0;
nodes = (
(450,640,l,{
name = shadowBottomColor;
}),
(450,300,l,{
name = shadowColor;
})
);
},
{
closed = 0;
nodes = (
(425,1050,l,{
name = shadowColor;
}),
(425,1016,o),
(405.7,984.5,o),
(377.9,966.3,cs,{
name = topColor;
}),
(362.3,956.1,o),
(344,950,o),
(325,950,cs,{
name = midTopColor;
}),
(295.7,950,o),
(268.3,964.3,o),
(249.6,986.1,c,{
name = shadowColor;
})
);
},
{
closed = 0;
nodes = (
(125,1050,l,{
name = shadowColor;
}),
(125,993,o),
(152.2,939.5,o),
(193.8,902.2,c,{
name = shadowBottomColor;
})
);
}
);
width = 650;
},
{
associatedMasterId = m01;
layerId = "E1CD6F57-6DCA-4BC4-A7D1-3AAF33674D0D";
name = top;
shapes = (
{
closed = 0;
nodes = (
(490,300,l,{
name = midTopColor;
}),
(190,300,l,{
name = shadowColor;
})
);
},
{
closed = 0;
nodes = (
(225,1050,l,{
name = topColor;
}),
(125,1050,l,{
name = topColor;
})
);
},
{
closed = 0;
nodes = (
(525,1050,l,{
name = topColor;
}),
(425,1050,l,{
name = topColor;
})
);
}
);
width = 650;
},
{
associatedMasterId = m01;
layerId = "FA525724-9C3D-4B63-92A9-8DA3E26FE8E1";
name = highlightColor;
shapes = (
{
closed = 0;
nodes = (
(450,540,l,{
name = "";
}),
(450,300,l,{
name = "";
}),
(200,300,l,{
name = "";
})
);
},
{
closed = 0;
nodes = (
(450,740,l,{
name = "";
}),
(200,740,ls,{
name = "";
}),
(147,740,o,{
name = "";
}),
(100,693,o,{
name = "";
}),
(100,640,cs,{
name = "";
}),
(100,200,l,{
name = "";
})
);
},
{
closed = 0;
nodes = (
(225,1050,l,{
name = "";
}),
(125,1050,l,{
name = "";
}),
(125,993,o,{
name = "";
}),
(152.2,939.5,o,{
name = "";
}),
(193.8,902.2,c,{
name = "";
})
);
},
{
closed = 0;
nodes = (
(525,1050,l,{
name = "";
}),
(425,1050,l,{
name = "";
}),
(425,997,o,{
name = "";
}),
(378,950,o,{
name = "";
}),
(325,950,c,{
name = "";
})
);
}
);
width = 650;
}
);
metricLeft = H;
metricRight = H;
unicode = 258;
},
{
glyphname = Acaron;
kernLeft = O;
layers = (
{
layerId = m01;
shapes = (
{
ref = A;
},
{
pos = (28,205);
ref = caroncomb;
}
);
width = 650;
},
{
associatedMasterId = m01;
layerId = "D4DE8142-7A61-44C8-BE88-44C9AA6E80C1";
name = side;
shapes = (
{
closed = 0;
nodes = (
(450,230,l,{
name = shadowBottomColor;
}),
(450,0,l,{
name = shadowColor;
})
);
},
{
closed = 0;
nodes = (
(450,740,l,{
name = topBottomColor;
}),
(200,740,ls,{
name = topColor;
}),
(147,740,o),
(100,693,o),
(100,640,cs,{
name = shadowColor;
}),
(100,0,l,{
name = shadowBottomColor;
})
);
},
{
closed = 0;
nodes = (
(450,640,l,{
name = shadowBottomColor;
}),
(450,300,l,{
name = shadowColor;
})
);
},
{
closed = 0;
nodes = (
(465.9,1058.4,l,{
name = topColor;
}),
(273,925.2,l,{
name = shadowColor;
})
);
},
{
closed = 0;
nodes = (
(192,1058.4,l,{
name = shadowColor;
}),
(140,987.5,l,{
name = shadowColor;
})
);
}
);
width = 650;
},
{
associatedMasterId = m01;
layerId = "E1CD6F57-6DCA-4BC4-A7D1-3AAF33674D0D";
name = top;
shapes = (
{
closed = 0;
nodes = (
(490,300,l,{
name = midTopColor;
}),
(190,300,l,{
name = shadowColor;
})
);
},
{
closed = 0;
nodes = (
(329,963.8,l,{
name = topBottomColor;
}),
(192,1058.4,l,{
name = midTopColor;
})
);
}
);
width = 650;
},
{
associatedMasterId = m01;
layerId = "FA525724-9C3D-4B63-92A9-8DA3E26FE8E1";
name = highlightColor;
shapes = (
{
closed = 0;
nodes = (
(450,540,l,{
name = "";
}),
(450,300,l,{
name = "";
}),
(200,300,l,{
name = "";
})
);
},
{
closed = 0;
nodes = (
(450,740,l,{
name = "";
}),
(200,740,ls,{
name = "";
}),
(147,740,o,{
name = "";
}),
(100,693,o,{
name = "";
}),
(100,640,cs,{
name = "";
}),
(100,200,l,{
name = "";
})
);
},
{
closed = 0;
nodes = (
(465.9,1058.4,l),
(329,963.8,l)
);
},
{
closed = 0;
nodes = (
(306,979.4,l),
(192,1058.4,l),
(140,987.5,l)
);
}
);
width = 650;
}
);
metricLeft = H;
metricRight = H;
unicode = 461;
},
{
glyphname = Acircumflex;
kernLeft = O;
layers = (
{
layerId = m01;
shapes = (
{
ref = A;
},
{
pos = (29,210);
ref = circumflexcomb;
}
);
width = 650;
},
{
associatedMasterId = m01;
layerId = "D4DE8142-7A61-44C8-BE88-44C9AA6E80C1";
name = side;
shapes = (
{
closed = 0;
nodes = (
(450,230,l,{
name = shadowBottomColor;
}),
(450,0,l,{
name = shadowColor;
})
);
},
{
closed = 0;
nodes = (
(450,740,l,{
name = topBottomColor;
}),
(200,740,ls,{
name = topColor;
}),
(147,740,o),
(100,693,o),
(100,640,cs,{
name = shadowColor;
}),
(100,0,l,{
name = shadowBottomColor;
})
);
},
{
closed = 0;
nodes = (
(450,640,l,{
name = shadowBottomColor;
}),
(450,300,l,{
name = shadowColor;
})
);
},
{
closed = 0;
nodes = (
(325,1070.4,l,{
name = topColor;
}),
(133,938.1,l,{
name = topBottomColor;
})
);
}
);
width = 650;
},
{
associatedMasterId = m01;
layerId = "E1CD6F57-6DCA-4BC4-A7D1-3AAF33674D0D";
name = top;
shapes = (
{
closed = 0;
nodes = (
(490,300,l,{
name = midTopColor;
}),
(190,300,l,{
name = shadowColor;
})
);
},
{
closed = 0;
nodes = (
(133,938.1,l,{
name = shadowColor;
}),
(188,859.2,l,{
name = shadowColor;
})
);
},
{
closed = 0;
nodes = (
(517,938.1,l,{
name = shadowColor;
}),
(325,1070.4,l,{
name = topBottomColor;
})
);
}
);
width = 650;
},
{
associatedMasterId = m01;
layerId = "FA525724-9C3D-4B63-92A9-8DA3E26FE8E1";
name = highlightColor;
shapes = (
{
closed = 0;
nodes = (
(450,540,l,{
name = "";
}),
(450,300,l,{
name = "";
}),
(200,300,l,{
name = "";
})
);
},
{
closed = 0;
nodes = (
(450,740,l,{
name = "";
}),
(200,740,ls,{
name = "";
}),
(147,740,o,{
name = "";
}),
(100,693,o,{
name = "";
}),
(100,640,cs,{
name = "";
}),
(100,200,l,{
name = "";
})
);
},
{
closed = 0;
nodes = (
(439.2,991.7,l),
(325,1070.4,l,{
name = "";
}),
(133,938.1,l,{
name = "";
})
);
}
);
width = 650;
}
);
metricLeft = H;
metricRight = H;
unicode = 194;
},
{
glyphname = Adieresis;
kernLeft = O;
layers = (
{
layerId = m01;
shapes = (
{
pos = (130,850);
ref = _part.circle;
scale = (1.4,1.4);
},
{
pos = (380,850);
ref = _part.circle;
scale = (1.4,1.4);
},
{
ref = A;
}
);
width = 650;
},
{
associatedMasterId = m01;
layerId = "D4DE8142-7A61-44C8-BE88-44C9AA6E80C1";
name = side;
shapes = (
{
closed = 0;
nodes = (
(450,230,l,{
name = shadowBottomColor;
}),
(450,0,l,{
name = shadowColor;
})
);
},
{
closed = 0;
nodes = (
(450,740,l,{
name = topBottomColor;
}),
(200,740,ls,{
name = topColor;
}),
(147,740,o),
(100,693,o),
(100,640,cs,{
name = shadowColor;
}),
(100,0,l,{
name = shadowBottomColor;
})
);
},
{
closed = 0;
nodes = (
(450,640,l,{
name = shadowBottomColor;
}),
(450,300,l,{
name = shadowColor;
})
);
},
{
closed = 0;
nodes = (
(200,990,l,{
name = topColor;
}),
(159.4,990,o,{
name = "";
}),
(130,960.6,o,{
name = "";
}),
(130,920,cs,{
name = shadowColor;
}),
(130,899.4,o,{
name = "";
}),
(137.6,881.7,o,{
name = "";
}),
(150.3,869.3,c,{
name = shadowBottomColor;
})
);
},
{
closed = 0;
nodes = (
(450,990,l,{
name = topColor;
}),
(409.4,990,o,{
name = "";
}),
(380,960.6,o,{
name = "";
}),
(380,920,cs,{
name = shadowColor;
}),
(380,899.4,o,{
name = "";
}),
(387.6,881.7,o,{
name = "";
}),
(400.3,869.3,c,{
name = shadowBottomColor;
})
);
}
);
width = 650;
},
{
associatedMasterId = m01;
layerId = "E1CD6F57-6DCA-4BC4-A7D1-3AAF33674D0D";
name = top;
shapes = (
{
closed = 0;
nodes = (
(490,300,l,{
name = midTopColor;
}),
(190,300,l,{
name = shadowColor;
})
);
}
);
width = 650;
},
{
associatedMasterId = m01;
layerId = "FA525724-9C3D-4B63-92A9-8DA3E26FE8E1";
name = highlightColor;
shapes = (
{
closed = 0;
nodes = (
(450,540,l,{
name = highlightColor;
}),
(450,300,l,{
name = highlightColor;
}),
(200,300,l,{
name = highlightColor;
})
);
},
{
closed = 0;
nodes = (
(450,740,l,{
name = highlightColor;
}),
(200,740,ls,{
name = highlightColor;
}),
(147,740,o),
(100,693,o),
(100,640,cs,{
name = highlightColor;
}),
(100,200,l,{
name = highlightColor;
})
);
},
{
closed = 0;
nodes = (
(201,990,l,{
name = "";
}),
(160.4,990,o,{
name = "";
}),
(131,960.6,o,{
name = "";
}),
(131,920,c,{
name = "";
})
);
},
{
closed = 0;
nodes = (
(451,990,l,{
name = "";
}),
(410.4,990,o,{
name = "";
}),
(381,960.6,o,{
name = "";
}),
(381,920,c,{
name = "";
})
);
}
);
width = 650;
}
);
metricLeft = H;
metricRight = H;
unicode = 196;
},
{
glyphname = Agrave;
kernLeft = O;
layers = (
{
layerId = m01;
shapes = (
{
ref = A;
},
{
pos = (29,220);
ref = gravecomb;
}
);
width = 650;
},
{
associatedMasterId = m01;
layerId = "D4DE8142-7A61-44C8-BE88-44C9AA6E80C1";
name = side;
shapes = (
{
closed = 0;
nodes = (
(450,230,l,{
name = shadowBottomColor;
}),
(450,0,l,{
name = shadowColor;
})
);
},
{
closed = 0;
nodes = (
(450,740,l,{
name = topBottomColor;
}),
(200,740,ls,{
name = topColor;
}),
(147,740,o),
(100,693,o),
(100,640,cs,{
name = shadowColor;
}),
(100,0,l,{
name = shadowBottomColor;
})
);
},
{
closed = 0;
nodes = (
(450,640,l,{
name = shadowBottomColor;
}),
(450,300,l,{
name = shadowColor;
})
);
},
{
closed = 0;
nodes = (
(194,1117,l,{
name = shadowColor;
}),
(137,1041,l,{
name = shadowColor;
})
);
}
);
width = 650;
},
{
associatedMasterId = m01;
layerId = "E1CD6F57-6DCA-4BC4-A7D1-3AAF33674D0D";
name = top;
shapes = (
{
closed = 0;
nodes = (
(490,300,l,{
name = midTopColor;
}),
(190,300,l,{
name = shadowColor;
})
);
},
{
closed = 0;
nodes = (
(544.2,870.1,l,{
name = shadowColor;
}),
(194,1117,l,{
name = topBottomColor;
})
);
}
);
width = 650;
},
{
associatedMasterId = m01;
layerId = "FA525724-9C3D-4B63-92A9-8DA3E26FE8E1";
name = highlightColor;
shapes = (
{
closed = 0;
nodes = (
(450,540,l,{
name = "";
}),
(450,300,l,{
name = "";
}),
(200,300,l,{
name = "";
})
);
},
{
closed = 0;
nodes = (
(450,740,l,{
name = "";
}),
(200,740,ls,{
name = "";
}),
(147,740,o,{
name = "";
}),
(100,693,o,{
name = "";
}),
(100,640,cs,{
name = "";
}),
(100,200,l,{
name = "";
})
);
},
{
closed = 0;
nodes = (
(350.7,1006.8,l),
(194,1117,l),
(137,1041,l)
);
}
);
width = 650;
}
);
metricLeft = H;
metricRight = H;
unicode = 192;
},
{
glyphname = Amacron;
kernLeft = O;
layers = (
{
layerId = m01;
shapes = (
{
pos = (130,870);
ref = _part.square;
scale = (3.5,1);
},
{
ref = A;
}
);
width = 650;
},
{
associatedMasterId = m01;
layerId = "D4DE8142-7A61-44C8-BE88-44C9AA6E80C1";
name = side;
shapes = (
{
closed = 0;
nodes = (
(450,230,l,{
name = shadowBottomColor;
}),
(450,0,l,{
name = shadowColor;
})
);
},
{
closed = 0;
nodes = (
(450,740,l,{
name = topBottomColor;
}),
(200,740,ls,{
name = topColor;
}),
(147,740,o),
(100,693,o),
(100,640,cs,{
name = shadowColor;
}),
(100,0,l,{
name = shadowBottomColor;
})
);
},
{
closed = 0;
nodes = (
(450,640,l,{
name = shadowBottomColor;
}),
(450,300,l,{
name = shadowColor;
})
);
},
{
closed = 0;
nodes = (
(130,970,l,{
name = shadowColor;
}),
(130,850,l,{
name = shadowColor;
})
);
}
);
width = 650;
},
{
associatedMasterId = m01;
layerId = "E1CD6F57-6DCA-4BC4-A7D1-3AAF33674D0D";
name = top;
shapes = (
{
closed = 0;
nodes = (
(490,300,l,{
name = midTopColor;
}),
(190,300,l,{
name = shadowColor;
})
);
},
{
closed = 0;
nodes = (
(480,970,l,{
name = topColor;
}),
(130,970,l,{
name = topColor;
})
);
}
);
width = 650;
},
{
associatedMasterId = m01;
layerId = "FA525724-9C3D-4B63-92A9-8DA3E26FE8E1";
name = highlightColor;
shapes = (
{
closed = 0;
nodes = (
(450,540,l,{
name = "";
}),
(450,300,l,{
name = "";
}),
(200,300,l,{
name = "";
})
);
},
{
closed = 0;
nodes = (
(450,740,l,{
name = "";
}),
(200,740,ls,{
name = "";
}),
(147,740,o,{
name = "";
}),
(100,693,o,{
name = "";
}),
(100,640,cs,{
name = "";
}),
(100,200,l,{
name = "";
})
);
},
{
closed = 0;
nodes = (
(480,970,l),
(130,970,l),
(130,870,l)
);
}
);
width = 650;
}
);
metricLeft = H;
metricRight = H;
unicode = 256;
},
{
glyphname = Aogonek;
kernLeft = O;
layers = (
{
layerId = m01;
shapes = (
{
pos = (450,-100);
ref = _part.corner;
scale = (-1,1);
},
{
angle = 180;
pos = (450,-100);
ref = _part.corner;
},
{
angle = 180;
pos = (550,-100);
ref = _part.square;
},
{
ref = A;
}
);
width = 650;
},
{
associatedMasterId = m01;
layerId = "D4DE8142-7A61-44C8-BE88-44C9AA6E80C1";
name = side;
shapes = (
{
closed = 0;
nodes = (
(450,230,l,{
name = shadowBottomColor;
}),
(450,0,l,{
name = shadowColor;
})
);
},
{
closed = 0;
nodes = (
(450,740,l,{
name = topColor;
}),
(200,740,ls,{
name = topColor;
}),
(147,740,o),
(100,693,o),
(100,640,cs,{
name = shadowColor;
}),
(100,0,l,{
name = shadowBottomColor;
})
);
},
{
closed = 0;
nodes = (
(450,640,l,{
name = shadowBottomColor;
}),
(450,300,l,{
name = shadowColor;
})
);
}
);
width = 650;
},
{
associatedMasterId = m01;
layerId = "E1CD6F57-6DCA-4BC4-A7D1-3AAF33674D0D";
name = top;
shapes = (
{
closed = 0;
nodes = (
(490,300,l,{
name = midTopColor;
}),
(190,300,l,{
name = shadowColor;
})
);
},
{
closed = 0;
nodes = (
(600,-100,l,{
name = midTopColor;
}),
(450,-100,l,{
name = shadowColor;
})
);
},
{
closed = 0;
nodes = (
(450,0,l,{
name = shadowColor;
}),
(397,0,o),
(350,-47,o),
(350,-100,cs,{
name = shadowColor;
}),
(350,-128,o),
(363,-155,o),
(380,-170,c,{
name = shadowBottomColor;
})
);
}
);
width = 650;
},
{
associatedMasterId = m01;
layerId = "FA525724-9C3D-4B63-92A9-8DA3E26FE8E1";
name = highlightColor;
shapes = (
{
closed = 0;
nodes = (
(450,540,l,{
name = "";
}),
(450,300,l,{
name = "";
}),
(200,300,l,{
name = "";
})
);
},
{
closed = 0;
nodes = (
(450,740,l,{
name = "";
}),
(200,740,ls,{
name = "";
}),
(147,740,o,{
name = "";
}),
(100,693,o,{
name = "";
}),
(100,640,cs,{
name = "";
}),
(100,200,l,{
name = "";
})
);
},
{
closed = 0;
nodes = (
(380,-30,l,{
name = "";
}),
(360,-50,o,{
name = "";
}),
(350,-70,o,{
name = "";
}),
(350,-100,cs,{
name = "";
}),
(350,-128,o,{
name = "";
}),
(363,-155,o,{
name = "";
}),
(380,-170,c,{
name = "";
})
);
}
);
width = 650;
}
);
metricLeft = H;
metricRight = H;
unicode = 260;
},
{
glyphname = Aring;
kernLeft = O;
layers = (
{
layerId = m01;
shapes = (
{
ref = A;
},
{
pos = (45,196);
ref = ring;
}
);
width = 650;
},
{
associatedMasterId = m01;
layerId = "D4DE8142-7A61-44C8-BE88-44C9AA6E80C1";
name = side;
shapes = (
{
closed = 0;
nodes = (
(450,230,l,{
name = shadowBottomColor;
}),
(450,0,l,{
name = shadowColor;
})
);
},
{
closed = 0;
nodes = (
(450,740,l,{
name = topBottomColor;
}),
(200,740,ls,{
name = topColor;
}),
(147,740,o),
(100,693,o),
(100,640,cs,{
name = shadowColor;
}),
(100,0,l,{
name = shadowBottomColor;
})
);
},
{
closed = 0;
nodes = (
(450,640,l,{
name = shadowBottomColor;
}),
(450,300,l,{
name = shadowColor;
})
);
},
{
closed = 0;
nodes = (
(325,1014,l,{
name = topColor;
}),
(267.9,1014,o),
(225,971.1,o),
(225,914,cs,{
name = shadowColor;
}),
(225,884.3,o),
(236.6,858.5,o),
(255.7,840.5,c,{
name = shadowBottomColor;
})
);
}
);
width = 650;
},
{
associatedMasterId = m01;
layerId = "E1CD6F57-6DCA-4BC4-A7D1-3AAF33674D0D";
name = top;
shapes = (
{
closed = 0;
nodes = (
(490,300,l,{
name = midTopColor;
}),
(190,300,l,{
name = shadowColor;
})
);
},
{
closed = 0;
nodes = (
(345.7,938.5,l,{
name = shadowBottomColor;
}),
(352.8,932.5,o),
(357.5,923.5,o),
(357.5,914,cs,{
name = shadowColor;
}),
(357.5,896.8,o),
(342.2,881.5,o),
(325,881.5,cs,{
name = shadowColor;
}),
(317,881.5,o),
(309.5,884.8,o),
(303.7,890,c,{
name = shadowBottomColor;
})
);
}
);
width = 650;
},
{
associatedMasterId = m01;
layerId = "FA525724-9C3D-4B63-92A9-8DA3E26FE8E1";
name = highlightColor;
shapes = (
{
closed = 0;
nodes = (
(450,540,l,{
name = highlightColor;
}),
(450,300,l,{
name = highlightColor;
}),
(200,300,l,{
name = highlightColor;
})
);
},
{
closed = 0;
nodes = (
(450,740,l,{
name = highlightColor;
}),
(200,740,ls,{
name = highlightColor;
}),
(147,740,o),
(100,693,o),
(100,640,cs,{
name = highlightColor;
}),
(100,200,l,{
name = highlightColor;
})
);
},
{
closed = 0;
nodes = (
(345.7,938.5,l,{
name = "";
}),
(352.8,932.5,o,{
name = "";
}),
(357.5,923.5,o,{
name = "";
}),
(357.5,914,cs,{
name = "";
}),
(357.5,896.8,o,{
name = "";
}),
(342.2,881.5,o,{
name = "";
}),
(325,881.5,cs,{
name = "";
}),
(317,881.5,o,{
name = "";
}),
(309.5,884.8,o,{
name = "";
}),
(303.7,890,c,{
name = "";
})
);
},
{
closed = 0;
nodes = (
(325,1014,l,{
name = "";
}),
(267.9,1014,o,{
name = "";
}),
(225,971.1,o,{
name = "";
}),
(225,914,cs,{
name = "";
}),
(225,884.3,o,{
name = "";
}),
(236.6,858.5,o,{
name = "";
}),
(255.7,840.5,c,{
name = "";
})
);
}
);
width = 650;
}
);
metricLeft = H;
metricRight = H;
unicode = 197;
},
{
glyphname = Atilde;
kernLeft = O;
layers = (
{
layerId = m01;
shapes = (
{
ref = A;
},
{
pos = (0,174);
ref = tildecomb;
}
);
width = 650;
},
{
associatedMasterId = m01;
layerId = "D4DE8142-7A61-44C8-BE88-44C9AA6E80C1";
name = side;
shapes = (
{
closed = 0;
nodes = (
(450,230,l,{
name = shadowBottomColor;
}),
(450,0,l,{
name = shadowColor;
})
);
},
{
closed = 0;
nodes = (
(450,740,l,{
name = topBottomColor;
}),
(200,740,ls,{
name = midTopColor;
}),
(147,740,o),
(100,693,o),
(100,640,cs,{
name = shadowColor;
}),
(100,0,l,{
name = shadowBottomColor;
})
);
},
{
closed = 0;
nodes = (
(450,640,l,{
name = shadowBottomColor;
}),
(450,300,l,{
name = shadowColor;
})
);
},
{
closed = 0;
nodes = (
(542,995,l,{
name = topColor;
}),
(463.2,1059.4,l,{
name = frontTopColor;
})
);
},
{
closed = 0;
nodes = (
(388.4,966.4,l,{
name = topBottomColor;
}),
(310,1029.1,ls,{
name = topColor;
}),
(258.3,1070.4,o),
(211.2,1070.4,o),
(178.2,1029.1,cs,{
name = topBottomColor;
}),
(87,915,l,{
name = shadowColor;
})
);
}
);
width = 650;
},
{
associatedMasterId = m01;
layerId = "E1CD6F57-6DCA-4BC4-A7D1-3AAF33674D0D";
name = top;
shapes = (
{
closed = 0;
nodes = (
(490,300,l,{
name = midTopColor;
}),
(190,300,l,{
name = shadowColor;
})
);
},
{
closed = 0;
nodes = (
(463.2,1059.4,l,{
name = topColor;
}),
(362.3,934,l,{
name = shadowColor;
})
);
}
);
width = 650;
},
{
associatedMasterId = m01;
layerId = "FA525724-9C3D-4B63-92A9-8DA3E26FE8E1";
name = highlightColor;
shapes = (
{
closed = 0;
nodes = (
(450,540,l,{
name = "";
}),
(450,300,l,{
name = "";
}),
(200,300,l,{
name = "";
})
);
},
{
closed = 0;
nodes = (
(450,740,l,{
name = "";
}),
(200,740,ls,{
name = "";
}),
(147,740,o,{
name = "";
}),
(100,693,o,{
name = "";
}),
(100,640,cs,{
name = "";
}),
(100,200,l,{
name = "";
})
);
},
{
closed = 0;
nodes = (
(463.2,1059.4,l),
(388.4,966.4,l)
);
},
{
closed = 0;
nodes = (
(310,1029.1,l),
(258.3,1070.4,o),
(211.2,1070.4,o),
(178.2,1029.1,cs),
(87,915,l)
);
}
);
width = 650;
}
);
metricRight = H;
unicode = 195;
},
{
glyphname = AE;
kernLeft = O;
layers = (
{
layerId = m01;
shapes = (
{
pos = (100,0);
ref = _part.square;
},
{
pos = (100,100);
ref = _part.square;
},
{
pos = (100,200);
ref = _part.square;
},
{
pos = (100,400);
ref = _part.square;
},
{
pos = (200,600);
ref = _part.corner;
scale = (-1,1);
},
{
angle = 180;
pos = (510,100);
ref = _part.corner;
},
{
pos = (410,100);
ref = _part.square;
},
{
pos = (410,200);
ref = _part.square;
},
{
pos = (410,400);
ref = _part.square;
},
{
pos = (410,600);
ref = _part.square;
},
{
pos = (100,300);
ref = _part.square;
},
{
pos = (410,300);
ref = _part.square;
},
{
pos = (100,500);
ref = _part.square;
},
{
pos = (410,500);
ref = _part.square;
},
{
pos = (510,0);
ref = _part.square;
scale = (2.2,1);
},
{
pos = (200,200);
ref = _part.square;
scale = (2.1,1);
},
{
pos = (510,300);
ref = _part.square;
scale = (2.2,1);
},
{
pos = (510,600);
ref = _part.square;
scale = (2.2,1);
},
{
pos = (200,600);
ref = _part.square;
scale = (2.1,1);
}
);
width = 830;
},
{
associatedMasterId = m01;
layerId = "F120A161-BFBE-4377-AF61-33478BF6D5F0";
name = side;
shapes = (
{
closed = 0;
nodes = (
(730,700,l,{
name = topColor;
}),
(200,700,ls,{
name = topColor;
}),
(147,700,o),
(100,653,o),
(100,600,cs,{
name = shadowColor;
}),
(100,0,l,{
name = shadowBottomColor;
})
);
},
{
closed = 0;
nodes = (
(410,600,l,{
name = shadowBottomColor;
}),
(410,300,l,{
name = shadowColor;
})
);
},
{
closed = 0;
nodes = (
(410,200,l,{
name = shadowBottomColor;
}),
(410,100,l,{
name = shadowColor;
})
);
}
);
width = 830;
},
{
associatedMasterId = m01;
layerId = "7D80B02A-B363-42D6-92FF-E68DF28B9A13";
name = top;
shapes = (
{
closed = 0;
nodes = (
(420,300,l,{
name = midTopColor;
}),
(200,300,l,{
name = shadowColor;
})
);
},
{
closed = 0;
nodes = (
(730,400,l,{
name = midTopColor;
}),
(510,400,l,{
name = shadowColor;
})
);
},
{
closed = 0;
nodes = (
(730,100,l,{
name = midTopColor;
}),
(510,100,l,{
name = shadowColor;
})
);
}
);
width = 830;
},
{
associatedMasterId = m01;
layerId = "9879E0E0-DBA3-4536-A73A-7866A49999A9";
name = highlightColor;
shapes = (
{
closed = 0;
nodes = (
(730,700,l,{
name = "";
}),
(200,700,l,{
name = "";
}),
(147,700,o,{
name = "";
}),
(100,653,o,{
name = "";
}),
(100,600,c,{
name = "";
}),
(100,200,l,{
name = "";
})
);
},
{
closed = 0;
nodes = (
(410,600,l,{
name = "";
}),
(410,300,l,{
name = "";
}),
(200,300,l,{
name = "";
})
);
},
{
closed = 0;
nodes = (
(730,400,l,{
name = "";
}),
(510,400,l,{
name = "";
})
);
},
{
closed = 0;
nodes = (
(730,100,l,{
name = "";
}),
(510,100,l,{
name = "";
})
);
}
);
width = 830;
}
);
metricLeft = H;
metricRight = H;
unicode = 198;
},
{
glyphname = B;
kernRight = O;
layers = (
{
layerId = m01;
shapes = (
{
pos = (200,640);
ref = _part.square;
scale = (-1,1);
},
{
pos = (100,100);
ref = _part.square;
},
{
pos = (100,300);
ref = _part.square;
},
{
pos = (100,400);
ref = _part.square;
},
{
pos = (100,500);
ref = _part.square;
},
{
pos = (460,640);
ref = _part.corner;
},
{
pos = (460,100);
ref = _part.square;
},
{
pos = (460,300);
ref = _part.corner;
},
{
pos = (460,500);
ref = _part.corner;
scale = (1,-1);
},
{
angle = 180;
pos = (200,100);
ref = _part.square;
},
{
pos = (460,100);
ref = _part.corner;
scale = (1,-1);
},
{
pos = (400,0);
ref = _part.square;
scale = (0.6,1);
},
{
pos = (300,0);
ref = _part.square;
},
{
pos = (400,640);
ref = _part.square;
scale = (0.6,1);
},
{
pos = (300,640);
ref = _part.square;
},
{
pos = (200,640);
ref = _part.square;
},
{
pos = (400,300);
ref = _part.square;
scale = (0.6,1);
},
{
pos = (300,300);
ref = _part.square;
},
{
pos = (300,300);
ref = _part.square;
scale = (-1,1);
},
{
pos = (460,500);
ref = _part.square;
},
{
angle = 180;
pos = (300,100);
ref = _part.corner;
},
{
pos = (100,200);
ref = _part.square;
},
{
pos = (460,200);
ref = _part.square;
},
{
pos = (100,540);
ref = _part.square;
},
{
pos = (460,540);
ref = _part.square;
}
);
width = 660;
},
{
associatedMasterId = m01;
layerId = "8966C031-067B-4C95-A644-260DCC7C04AC";
name = side;
shapes = (
{
closed = 0;
nodes = (
(100,740,l,{
name = shadowColor;
}),
(100,0,l,{
name = shadowBottomColor;
})
);
},
{
closed = 0;
nodes = (
(460,640,l,{
name = shadowBottomColor;
}),
(460,400,l,{
name = shadowColor;
})
);
},
{
closed = 0;
nodes = (
(460,300,l,{
name = shadowBottomColor;
}),
(460,100,l,{
name = shadowColor;
})
);
},
{
closed = 0;
nodes = (
(200,100,l,{
name = shadowBottomColor;
}),
(300,0,l,{
name = shadowColor;
})
);
}
);
width = 660;
},
{
associatedMasterId = m01;
layerId = "0508F9CA-0B55-4E3C-B494-846A95D8283E";
name = top;
shapes = (
{
closed = 0;
nodes = (
(460,740,l,{
name = topColor;
}),
(100,740,l,{
name = topColor;
})
);
},
{
closed = 0;
nodes = (
(460,100,l,{
name = midTopColor;
}),
(150,100,l,{
name = shadowColor;
})
);
},
{
closed = 0;
nodes = (
(560,300,l,{
name = shadowMiddleColor;
}),
(460,400,l,{
name = midTopColor;
}),
(150,400,l,{
name = shadowColor;
})
);
}
);
width = 660;
},
{
associatedMasterId = m01;
layerId = "0AA9A5F4-A136-4191-8FA1-E273530B0A82";
name = highlightColor;
shapes = (
{
closed = 0;
nodes = (
(460,640,l,{
name = highlightColor;
}),
(460,400,l,{
name = highlightColor;
}),
(200,400,l,{
name = highlightColor;
})
);
},
{
closed = 0;
nodes = (
(460,300,l,{
name = highlightColor;
}),
(460,100,l,{
name = highlightColor;
}),
(200,100,l,{
name = highlightColor;
})
);
},
{
closed = 0;
nodes = (
(460,740,ls,{
name = highlightColor;
}),
(100,740,l,{
name = highlightColor;
}),
(100,200,l,{
name = highlightColor;
})
);
}
);
width = 660;
}
);
metricLeft = H;
metricRight = H;
unicode = 66;
},
{
glyphname = C;
kernLeft = O;
kernRight = O;
layers = (
{
layerId = m01;
shapes = (
{
angle = 180;
pos = (200,60);
ref = _part.corner;
},
{
pos = (100,60);
ref = _part.square;
},
{
pos = (200,640);
ref = _part.corner;
scale = (-1,1);
},
{
pos = (200,640);
ref = _part.square;
},
{
pos = (300,640);
ref = _part.square;
},
{
pos = (450,540);
ref = _part.square;
},
{
pos = (200,-40);
ref = _part.square;
},
{
pos = (300,-40);
ref = _part.square;
},
{
pos = (450,60);
ref = _part.square;
},
{
pos = (100,200);
ref = _part.square;
},
{
pos = (100,300);
ref = _part.square;
},
{
pos = (450,60);
ref = _part.corner;
scale = (1,-1);
},
{
pos = (400,-40);
ref = _part.square;
scale = (0.5,1);
},
{
pos = (100,540);
ref = _part.square;
},
{
pos = (400,640);
ref = _part.square;
scale = (0.5,1);
},
{
pos = (450,640);
ref = _part.corner;
},
{
pos = (100,400);
ref = _part.square;
},
{
pos = (100,100);
ref = _part.square;
},
{
pos = (100,500);
ref = _part.square;
}
);
width = 650;
},
{
associatedMasterId = m01;
layerId = "13F7DB04-9C43-40FD-A771-775EC2759071";
name = side;
shapes = (
{
closed = 0;
nodes = (
(450,160,l,{
name = shadowColor;
}),
(450,60,l,{
name = shadowColor;
})
);
},
{
closed = 0;
nodes = (
(450,660,l,{
name = shadowBottomColor;
}),
(450,540,l,{
name = shadowColor;
})
);
},
{
closed = 0;
nodes = (
(450,740,l,{
name = topColor;
}),
(200,740,l,{
name = topColor;
}),
(147,740,o),
(100,693,o),
(100,640,cs,{
name = shadowColor;
}),
(100,60,l,{
name = shadowBottomColor;
})
);
}
);
width = 650;
},
{
associatedMasterId = m01;
layerId = "17BCE2E6-C5E8-447F-819B-331079EFA5DE";
name = top;
shapes = (
{
closed = 0;
nodes = (
(550,160,l,{
name = midTopColor;
}),
(450,160,l,{
name = midTopColor;
})
);
},
{
closed = 0;
nodes = (
(490,60,l,{
name = midTopColor;
}),
(200,60,l,{
name = shadowColor;
})
);
}
);
width = 650;
},
{
associatedMasterId = m01;
layerId = "2DB8FC30-554A-4B5D-8FB6-E3D691B010F2";
name = highlightColor;
shapes = (
{
closed = 0;
nodes = (
(450,740,l,{
name = "";
}),
(200,740,ls,{
name = "";
}),
(147,740,o,{
name = "";
}),
(100,693,o,{
name = "";
}),
(100,640,cs,{
name = "";
}),
(100,190,ls,{
name = "";
})
);
},
{
closed = 0;
nodes = (
(450,160,l,{
name = "";
}),
(450,60,l,{
name = "";
}),
(200,60,l,{
name = "";
})
);
}
);
width = 650;
}
);
metricLeft = H;
metricRight = H;
unicode = 67;
},
{
glyphname = Cacute;
kernLeft = O;
kernRight = O;
layers = (
{
layerId = m01;
shapes = (
{
ref = C;
},
{
pos = (25,239);
ref = acutecomb;
}
);
width = 650;
},
{
associatedMasterId = m01;
layerId = "13F7DB04-9C43-40FD-A771-775EC2759071";
name = side;
shapes = (
{
closed = 0;
nodes = (
(450,160,l,{
name = shadowColor;
}),
(450,60,l,{
name = shadowColor;
})
);
},
{
closed = 0;
nodes = (
(450,660,l,{
name = shadowBottomColor;
}),
(450,540,l,{
name = shadowColor;
})
);
},
{
closed = 0;
nodes = (
(450,740,l,{
name = topBottomColor;
}),
(200,740,l,{
name = topColor;
}),
(147,740,o),
(100,693,o),
(100,640,cs,{
name = shadowColor;
}),
(100,60,l,{
name = shadowBottomColor;
})
);
},
{
closed = 0;
nodes = (
(169,936.2,l,{
name = shadowColor;
}),
(222,849.1,l,{
name = shadowColor;
})
);
}
);
width = 650;
},
{
associatedMasterId = m01;
layerId = "17BCE2E6-C5E8-447F-819B-331079EFA5DE";
name = top;
shapes = (
{
closed = 0;
nodes = (
(550,160,l,{
name = midTopColor;
}),
(450,160,l,{
name = midTopColor;
})
);
},
{
closed = 0;
nodes = (
(490,60,l,{
name = midTopColor;
}),
(200,60,l,{
name = shadowColor;
})
);
},
{
closed = 0;
nodes = (
(408,1068.9,l,{
name = topColor;
}),
(169,936.2,l,{
name = topBottomColor;
})
);
}
);
width = 650;
},
{
associatedMasterId = m01;
layerId = "2DB8FC30-554A-4B5D-8FB6-E3D691B010F2";
name = highlightColor;
shapes = (
{
closed = 0;
nodes = (
(450,740,l,{
name = "";
}),
(200,740,ls,{
name = "";
}),
(147,740,o,{
name = "";
}),
(100,693,o,{
name = "";
}),
(100,640,cs,{
name = "";
}),
(100,190,ls,{
name = "";
})
);
},
{
closed = 0;
nodes = (
(450,160,l,{
name = "";
}),
(450,60,l,{
name = "";
}),
(200,60,l,{
name = "";
})
);
},
{
closed = 0;
nodes = (
(408,1068.9,l,{
name = "";
}),
(169,936.2,l,{
name = "";
}),
(222,849.1,l,{
name = "";
})
);
}
);
width = 650;
}
);
metricLeft = H;
metricRight = H;
unicode = 262;
},
{
glyphname = Ccaron;
kernLeft = O;
kernRight = O;
layers = (
{
layerId = m01;
shapes = (
{
pos = (28,215);
ref = caroncomb;
},
{
ref = C;
}
);
width = 650;
},
{
associatedMasterId = m01;
layerId = "13F7DB04-9C43-40FD-A771-775EC2759071";
name = side;
shapes = (
{
closed = 0;
nodes = (
(450,160,l,{
name = shadowColor;
}),
(450,60,l,{
name = shadowColor;
})
);
},
{
closed = 0;
nodes = (
(450,660,l,{
name = shadowBottomColor;
}),
(450,540,l,{
name = shadowColor;
})
);
},
{
closed = 0;
nodes = (
(450,740,l,{
name = topBottomColor;
}),
(200,740,l,{
name = topColor;
}),
(147,740,o),
(100,693,o),
(100,640,cs,{
name = shadowColor;
}),
(100,60,l,{
name = shadowBottomColor;
})
);
},
{
closed = 0;
nodes = (
(465.9,1068.4,l,{
name = topColor;
}),
(273,935.2,l,{
name = shadowColor;
})
);
},
{
closed = 0;
nodes = (
(192,1068.4,l,{
name = shadowColor;
}),
(140,997.5,l,{
name = shadowColor;
})
);
}
);
width = 650;
},
{
associatedMasterId = m01;
layerId = "17BCE2E6-C5E8-447F-819B-331079EFA5DE";
name = top;
shapes = (
{
closed = 0;
nodes = (
(550,160,l,{
name = midTopColor;
}),
(450,160,l,{
name = midTopColor;
})
);
},
{
closed = 0;
nodes = (
(490,60,l,{
name = midTopColor;
}),
(200,60,l,{
name = shadowColor;
})
);
},
{
closed = 0;
nodes = (
(329,973.8,l,{
name = topBottomColor;
}),
(192,1068.4,l,{
name = midTopColor;
})
);
}
);
width = 650;
},
{
associatedMasterId = m01;
layerId = "2DB8FC30-554A-4B5D-8FB6-E3D691B010F2";
name = highlightColor;
shapes = (
{
closed = 0;
nodes = (
(450,740,l,{
name = "";
}),
(200,740,ls,{
name = "";
}),
(147,740,o,{
name = "";
}),
(100,693,o,{
name = "";
}),
(100,640,cs,{
name = "";
}),
(100,190,ls,{
name = "";
})
);
},
{
closed = 0;
nodes = (
(450,160,l,{
name = "";
}),
(450,60,l,{
name = "";
}),
(200,60,l,{
name = "";
})
);
},
{
closed = 0;
nodes = (
(465.9,1068.4,l),
(329,973.8,l)
);
},
{
closed = 0;
nodes = (
(306,989.4,l),
(192,1068.4,l),
(140,997.5,l)
);
}
);
width = 650;
}
);
metricLeft = H;
metricRight = H;
unicode = 268;
},
{
glyphname = Ccedilla;
kernLeft = O;
kernRight = O;
layers = (
{
layerId = m01;
shapes = (
{
pos = (230,-40);
ref = cedillacomb;
},
{
ref = C;
}
);
width = 650;
},
{
associatedMasterId = m01;
layerId = "13F7DB04-9C43-40FD-A771-775EC2759071";
name = side;
shapes = (
{
closed = 0;
nodes = (
(450,160,l,{
name = shadowColor;
}),
(450,60,l,{
name = shadowColor;
})
);
},
{
closed = 0;
nodes = (
(450,660,l,{
name = shadowBottomColor;
}),
(450,540,l,{
name = shadowColor;
})
);
},
{
closed = 0;
nodes = (
(330,-40,l,{
name = shadowBottomColor;
}),
(330,-140,l,{
name = shadowColor;
})
);
},
{
closed = 0;
nodes = (
(230,-140,l,{
name = shadowBottomColor;
}),
(230,-240,l,{
name = shadowBottomColor;
})
);
},
{
closed = 0;
nodes = (
(450,740,l,{
name = topColor;
}),
(200,740,l,{
name = topColor;
}),
(147,740,o),
(100,693,o),
(100,640,cs,{
name = shadowColor;
}),
(100,60,l,{
name = shadowBottomColor;
})
);
}
);
width = 650;
},
{
associatedMasterId = m01;
layerId = "17BCE2E6-C5E8-447F-819B-331079EFA5DE";
name = top;
shapes = (
{
closed = 0;
nodes = (
(550,160,l,{
name = midTopColor;
}),
(450,160,l,{
name = midTopColor;
})
);
},
{
closed = 0;
nodes = (
(490,60,l,{
name = midTopColor;
}),
(200,60,l,{
name = shadowColor;
})
);
},
{
closed = 0;
nodes = (
(380,-140,l,{
name = shadowBottomColor;
}),
(230,-140,l,{
name = shadowColor;
})
);
}
);
width = 650;
},
{
associatedMasterId = m01;
layerId = "2DB8FC30-554A-4B5D-8FB6-E3D691B010F2";
name = highlightColor;
shapes = (
{
closed = 0;
nodes = (
(450,740,l,{
name = "";
}),
(200,740,ls,{
name = "";
}),
(147,740,o,{
name = "";
}),
(100,693,o,{
name = "";
}),
(100,640,cs,{
name = "";
}),
(100,190,ls,{
name = "";
})
);
},
{
closed = 0;
nodes = (
(450,160,l,{
name = "";
}),
(450,60,l,{
name = "";
}),
(200,60,l,{
name = "";
})
);
},
{
closed = 0;
nodes = (
(330,-140,l),
(230,-140,l),
(230,-240,l)
);
}
);
width = 650;
}
);
metricLeft = H;
metricRight = H;
unicode = 199;
},
{
glyphname = Ccircumflex;
kernLeft = O;
kernRight = O;
layers = (
{
layerId = m01;
shapes = (
{
ref = C;
},
{
pos = (29,210);
ref = circumflexcomb;
}
);
width = 650;
},
{
associatedMasterId = m01;
layerId = "13F7DB04-9C43-40FD-A771-775EC2759071";
name = side;
shapes = (
{
closed = 0;
nodes = (
(450,160,l,{
name = shadowColor;
}),
(450,60,l,{
name = shadowColor;
})
);
},
{
closed = 0;
nodes = (
(450,660,l,{
name = shadowBottomColor;
}),
(450,540,l,{
name = shadowColor;
})
);
},
{
closed = 0;
nodes = (
(450,740,l,{
name = topBottomColor;
}),
(200,740,l,{
name = topColor;
}),
(147,740,o),
(100,693,o),
(100,640,cs,{
name = shadowColor;
}),
(100,60,l,{
name = shadowBottomColor;
})
);
},
{
closed = 0;
nodes = (
(325,1070.4,l,{
name = topColor;
}),
(133,938.1,l,{
name = topBottomColor;
})
);
}
);
width = 650;
},
{
associatedMasterId = m01;
layerId = "17BCE2E6-C5E8-447F-819B-331079EFA5DE";
name = top;
shapes = (
{
closed = 0;
nodes = (
(550,160,l,{
name = midTopColor;
}),
(450,160,l,{
name = midTopColor;
})
);
},
{
closed = 0;
nodes = (
(490,60,l,{
name = midTopColor;
}),
(200,60,l,{
name = shadowColor;
})
);
},
{
closed = 0;
nodes = (
(133,938.1,l,{
name = shadowColor;
}),
(188,859.2,l,{
name = shadowColor;
})
);
},
{
closed = 0;
nodes = (
(517,938.1,l,{
name = shadowColor;
}),
(325,1070.4,l,{
name = topBottomColor;
})
);
}
);
width = 650;
},
{
associatedMasterId = m01;
layerId = "2DB8FC30-554A-4B5D-8FB6-E3D691B010F2";
name = highlightColor;
shapes = (
{
closed = 0;
nodes = (
(450,740,l,{
name = "";
}),
(200,740,ls,{
name = "";
}),
(147,740,o,{
name = "";
}),
(100,693,o,{
name = "";
}),
(100,640,cs,{
name = "";
}),
(100,190,ls,{
name = "";
})
);
},
{
closed = 0;
nodes = (
(450,160,l,{
name = "";
}),
(450,60,l,{
name = "";
}),
(200,60,l,{
name = "";
})
);
},
{
closed = 0;
nodes = (
(439.2,991.7,l),
(325,1070.4,l,{
name = "";
}),
(133,938.1,l,{
name = "";
})
);
}
);
width = 650;
}
);
metricLeft = H;
metricRight = H;
unicode = 264;
},
{
glyphname = Cdotaccent;
kernLeft = O;
kernRight = O;
layers = (
{
layerId = m01;
shapes = (
{
pos = (35,240);
ref = dotaccentcomb;
},
{
ref = C;
}
);
width = 650;
},
{
associatedMasterId = m01;
layerId = "13F7DB04-9C43-40FD-A771-775EC2759071";
name = side;
shapes = (
{
closed = 0;
nodes = (
(450,160,l,{
name = shadowColor;
}),
(450,60,l,{
name = shadowColor;
})
);
},
{
closed = 0;
nodes = (
(450,660,l,{
name = shadowBottomColor;
}),
(450,540,l,{
name = shadowColor;
})
);
},
{
closed = 0;
nodes = (
(335,990,l,{
name = topColor;
}),
(294.4,990,o,{
name = "";
}),
(265,960.6,o,{
name = "";
}),
(265,920,cs,{
name = shadowColor;
}),
(265,899.4,o,{
name = "";
}),
(272.6,881.7,o,{
name = "";
}),
(285.3,869.3,c,{
name = shadowBottomColor;
})
);
},
{
closed = 0;
nodes = (
(450,740,l,{
name = topBottomColor;
}),
(200,740,l,{
name = topColor;
}),
(147,740,o),
(100,693,o),
(100,640,cs,{
name = shadowColor;
}),
(100,60,l,{
name = shadowBottomColor;
})
);
}
);
width = 650;
},
{
associatedMasterId = m01;
layerId = "17BCE2E6-C5E8-447F-819B-331079EFA5DE";
name = top;
shapes = (
{
closed = 0;
nodes = (
(550,160,l,{
name = midTopColor;
}),
(450,160,l,{
name = midTopColor;
})
);
},
{
closed = 0;
nodes = (
(490,60,l,{
name = midTopColor;
}),
(200,60,l,{
name = shadowColor;
})
);
}
);
width = 650;
},
{
associatedMasterId = m01;
layerId = "2DB8FC30-554A-4B5D-8FB6-E3D691B010F2";
name = highlightColor;
shapes = (
{
closed = 0;
nodes = (
(450,740,l,{
name = "";
}),
(200,740,ls,{
name = "";
}),
(147,740,o,{
name = "";
}),
(100,693,o,{
name = "";
}),
(100,640,cs,{
name = "";
}),
(100,190,ls,{
name = "";
})
);
},
{
closed = 0;
nodes = (
(450,160,l,{
name = "";
}),
(450,60,l,{
name = "";
}),
(200,60,l,{
name = "";
})
);
},
{
closed = 0;
nodes = (
(335,990,l,{
name = "";
}),
(294.4,990,o,{
name = "";
}),
(265,960.6,o,{
name = "";
}),
(265,920,c,{
name = "";
})
);
}
);
width = 650;
}
);
metricLeft = H;
metricRight = H;
unicode = 266;
},
{
glyphname = D;
kernRight = O;
layers = (
{
layerId = m01;
shapes = (
{
pos = (200,640);
ref = _part.square;
scale = (-1,1);
},
{
pos = (100,100);
ref = _part.square;
},
{
pos = (100,200);
ref = _part.square;
},
{
pos = (100,300);
ref = _part.square;
},
{
pos = (100,400);
ref = _part.square;
},
{
pos = (460,640);
ref = _part.corner;
},
{
pos = (460,100);
ref = _part.square;
},
{
pos = (460,200);
ref = _part.square;
},
{
pos = (460,300);
ref = _part.square;
},
{
pos = (460,400);
ref = _part.square;
},
{
pos = (100,100);
ref = _part.square;
scale = (1,-1);
},
{
pos = (460,100);
ref = _part.corner;
scale = (1,-1);
},
{
pos = (400,0);
ref = _part.square;
scale = (0.6,1);
},
{
pos = (300,0);
ref = _part.square;
},
{
angle = 180;
pos = (300,100);
ref = _part.corner;
},
{
pos = (400,640);
ref = _part.square;
scale = (0.6,1);
},
{
pos = (300,640);
ref = _part.square;
},
{
pos = (200,640);
ref = _part.square;
},
{
pos = (100,500);
ref = _part.square;
},
{
pos = (460,500);
ref = _part.square;
},
{
pos = (100,540);
ref = _part.square;
},
{
pos = (460,540);
ref = _part.square;
}
);
width = 660;
},
{
associatedMasterId = m01;
layerId = "4E963FC4-5E4B-4AFB-BC34-6BDDCB1CDB57";
name = side;
shapes = (
{
closed = 0;
nodes = (
(100,740,l,{
name = shadowColor;
}),
(100,0,l,{
name = shadowBottomColor;
})
);
},
{
closed = 0;
nodes = (
(460,640,l,{
name = shadowBottomColor;
}),
(460,100,l,{
name = shadowColor;
})
);
},
{
closed = 0;
nodes = (
(200.9,87.4,l,{
name = shadowBottomColor;
}),
(204.5,62,o),
(218.6,38.8,o),
(238.4,22.7,c,{
name = shadowColor;
})
);
}
);
width = 660;
},
{
associatedMasterId = m01;
layerId = "039E00CD-4C34-4820-B6B3-D796D14AE2C6";
name = top;
shapes = (
{
closed = 0;
nodes = (
(460,740,l,{
name = topColor;
}),
(100,740,l,{
name = topColor;
})
);
},
{
closed = 0;
nodes = (
(460,100,l,{
name = midTopColor;
}),
(200,100,l,{
name = shadowColor;
})
);
}
);
width = 660;
},
{
associatedMasterId = m01;
layerId = "6D323A00-F182-4296-BF1A-8ED2F1C27AE7";
name = highlightColor;
shapes = (
{
closed = 0;
nodes = (
(460,740,l,{
name = highlightColor;
}),
(100,740,l,{
name = highlightColor;
}),
(100,200,l,{
name = highlightColor;
})
);
},
{
closed = 0;
nodes = (
(460,540,l,{
name = highlightColor;
}),
(460,100,l,{
name = highlightColor;
}),
(200,100,l,{
name = highlightColor;
})
);
}
);
width = 660;
}
);
metricLeft = H;
metricRight = H;
unicode = 68;
},
{
glyphname = Eth;
kernRight = O;
layers = (
{
layerId = m01;
shapes = (
{
pos = (250,300);
ref = _part.square;
},
{
pos = (50,300);
ref = _part.square;
},
{
pos = (50,0);
ref = D;
}
);
width = 710;
},
{
associatedMasterId = m01;
layerId = "4E963FC4-5E4B-4AFB-BC34-6BDDCB1CDB57";
name = side;
shapes = (
{
closed = 0;
nodes = (
(150,740,l,{
name = shadowColor;
}),
(150,400,l,{
name = shadowBottomColor;
})
);
},
{
closed = 0;
nodes = (
(510,640,l,{
name = shadowBottomColor;
}),
(510,100,l,{
name = shadowColor;
})
);
},
{
closed = 0;
nodes = (
(50,400,l,{
name = shadowColor;
}),
(50,300,l,{
name = shadowColor;
})
);
},
{
closed = 0;
nodes = (
(150,300,l,{
name = shadowBottomColor;
}),
(150,126.4,l,{
name = shadowColor;
}),
(150,0,l,{
name = shadowBottomColor;
})
);
},
{
closed = 0;
nodes = (
(250.9,87.4,l,{
name = shadowBottomColor;
}),
(254.5,62,o),
(268.6,38.8,o),
(288.4,22.7,c,{
name = shadowColor;
})
);
}
);
width = 710;
},
{
associatedMasterId = m01;
layerId = "039E00CD-4C34-4820-B6B3-D796D14AE2C6";
name = top;
shapes = (
{
closed = 0;
nodes = (
(510,740,l,{
name = topColor;
}),
(150,740,l,{
name = topColor;
})
);
},
{
closed = 0;
nodes = (
(510,100,l,{
name = midTopColor;
}),
(250,100,l,{
name = shadowColor;
})
);
},
{
closed = 0;
nodes = (
(430,400,l,{
name = midTopColor;
}),
(250,400,l,{
name = shadowColor;
})
);
},
{
closed = 0;
nodes = (
(150,400,l,{
name = shadowColor;
}),
(50,400,l,{
name = midTopColor;
})
);
}
);
width = 710;
},
{
associatedMasterId = m01;
layerId = "6D323A00-F182-4296-BF1A-8ED2F1C27AE7";
name = highlightColor;
shapes = (
{
closed = 0;
nodes = (
(510,740,l,{
name = "";
}),
(150,740,l,{
name = "";
}),
(150,440,l,{
name = "";
})
);
},
{
closed = 0;
nodes = (
(510,540,l,{
name = "";
}),
(510,100,l,{
name = "";
}),
(250,100,l,{
name = "";
})
);
},
{
closed = 0;
nodes = (
(150,400,l,{
name = "";
}),
(50,400,l,{
name = "";
}),
(50,300,l,{
name = "";
})
);
}
);
width = 710;
}
);
metricRight = H;
unicode = 208;
},
{
glyphname = Dcaron;
kernRight = O;
layers = (
{
layerId = m01;
shapes = (
{
pos = (18,205);
ref = caroncomb;
},
{
ref = D;
}
);
width = 660;
},
{
associatedMasterId = m01;
layerId = "4E963FC4-5E4B-4AFB-BC34-6BDDCB1CDB57";
name = side;
shapes = (
{
closed = 0;
nodes = (
(100,740,l,{
name = shadowColor;
}),
(100,0,l,{
name = shadowBottomColor;
})
);
},
{
closed = 0;
nodes = (
(460,640,l,{
name = shadowBottomColor;
}),
(460,100,l,{
name = shadowColor;
})
);
},
{
closed = 0;
nodes = (
(455.9,1058.4,l,{
name = topColor;
}),
(263,925.2,l,{
name = shadowColor;
})
);
},
{
closed = 0;
nodes = (
(182,1058.4,l,{
name = shadowColor;
}),
(130,987.5,l,{
name = shadowColor;
})
);
},
{
closed = 0;
nodes = (
(200.9,87.4,l,{
name = shadowBottomColor;
}),
(204.5,62,o),
(218.6,38.8,o),
(238.4,22.7,c,{
name = shadowColor;
})
);
}
);
width = 660;
},
{
associatedMasterId = m01;
layerId = "039E00CD-4C34-4820-B6B3-D796D14AE2C6";
name = top;
shapes = (
{
closed = 0;
nodes = (
(460,740,l,{
name = topBottomColor;
}),
(100,740,l,{
name = topColor;
})
);
},
{
closed = 0;
nodes = (
(460,100,l,{
name = midTopColor;
}),
(200,100,l,{
name = shadowColor;
})
);
},
{
closed = 0;
nodes = (
(319,963.8,l,{
name = topBottomColor;
}),
(182,1058.4,l,{
name = midTopColor;
})
);
}
);
width = 660;
},
{
associatedMasterId = m01;
layerId = "6D323A00-F182-4296-BF1A-8ED2F1C27AE7";
name = highlightColor;
shapes = (
{
closed = 0;
nodes = (
(460,740,l,{
name = highlightColor;
}),
(100,740,l,{
name = highlightColor;
}),
(100,200,l,{
name = highlightColor;
})
);
},
{
closed = 0;
nodes = (
(460,540,l,{
name = highlightColor;
}),
(460,100,l,{
name = highlightColor;
}),
(200,100,l,{
name = highlightColor;
})
);
},
{
closed = 0;
nodes = (
(455.9,1058.4,l),
(319,963.8,l)
);
},
{
closed = 0;
nodes = (
(296,979.4,l),
(182,1058.4,l),
(130,987.5,l)
);
}
);
width = 660;
}
);
metricLeft = H;
metricRight = H;
unicode = 270;
},
{
glyphname = Dcroat;
kernRight = O;
layers = (
{
layerId = m01;
shapes = (
{
pos = (250,300);
ref = _part.square;
},
{
pos = (50,300);
ref = _part.square;
},
{
pos = (50,0);
ref = D;
}
);
width = 710;
},
{
associatedMasterId = m01;
layerId = "4E963FC4-5E4B-4AFB-BC34-6BDDCB1CDB57";
name = side;
shapes = (
{
closed = 0;
nodes = (
(150,740,l,{
name = shadowColor;
}),
(150,400,l,{
name = shadowBottomColor;
})
);
},
{
closed = 0;
nodes = (
(510,640,l,{
name = shadowBottomColor;
}),
(510,100,l,{
name = shadowColor;
})
);
},
{
closed = 0;
nodes = (
(50,400,l,{
name = shadowColor;
}),
(50,300,l,{
name = shadowColor;
})
);
},
{
closed = 0;
nodes = (
(250.9,87.4,l,{
name = shadowBottomColor;
}),
(254.5,62,o),
(268.6,38.8,o),
(288.4,22.7,c,{
name = shadowColor;
})
);
},
{
closed = 0;
nodes = (
(150,300,l,{
name = shadowBottomColor;
}),
(150,126.4,l,{
name = shadowColor;
}),
(150,0,l,{
name = shadowBottomColor;
})
);
}
);
width = 710;
},
{
associatedMasterId = m01;
layerId = "039E00CD-4C34-4820-B6B3-D796D14AE2C6";
name = top;
shapes = (
{
closed = 0;
nodes = (
(510,740,l,{
name = topColor;
}),
(150,740,l,{
name = topColor;
})
);
},
{
closed = 0;
nodes = (
(510,100,l,{
name = midTopColor;
}),
(250,100,l,{
name = shadowColor;
})
);
},
{
closed = 0;
nodes = (
(450,400,l,{
name = midTopColor;
}),
(250,400,l,{
name = shadowColor;
})
);
},
{
closed = 0;
nodes = (
(150,400,l,{
name = shadowColor;
}),
(50,400,l,{
name = midTopColor;
})
);
}
);
width = 710;
},
{
associatedMasterId = m01;
layerId = "6D323A00-F182-4296-BF1A-8ED2F1C27AE7";
name = highlightColor;
shapes = (
{
closed = 0;
nodes = (
(510,740,l,{
name = "";
}),
(150,740,l,{
name = "";
}),
(150,440,l,{
name = "";
})
);
},
{
closed = 0;
nodes = (
(510,540,l,{
name = "";
}),
(510,100,l,{
name = "";
}),
(250,100,l,{
name = "";
})
);
},
{
closed = 0;
nodes = (
(150,400,l,{
name = "";
}),
(50,400,l,{
name = "";
}),
(50,300,l,{
name = "";
})
);
}
);
width = 710;
}
);
metricRight = H;
unicode = 272;
},
{
glyphname = E;
kernLeft = O;
layers = (
{
layerId = m01;
shapes = (
{
angle = 180;
pos = (200,60);
ref = _part.corner;
},
{
pos = (100,100);
ref = _part.square;
},
{
pos = (100,300);
ref = _part.square;
},
{
pos = (100,400);
ref = _part.square;
},
{
pos = (100,500);
ref = _part.square;
},
{
pos = (200,600);
ref = _part.corner;
scale = (-1,1);
},
{
pos = (300,280);
ref = _part.square;
scale = (-1,1);
},
{
pos = (200,600);
ref = _part.square;
},
{
pos = (300,280);
ref = _part.square;
},
{
pos = (300,600);
ref = _part.square;
},
{
pos = (400,280);
ref = _part.square;
},
{
pos = (400,600);
ref = _part.square;
},
{
pos = (200,-40);
ref = _part.square;
},
{
pos = (300,-40);
ref = _part.square;
},
{
pos = (400,-40);
ref = _part.square;
},
{
pos = (100,200);
ref = _part.square;
},
{
pos = (100,60);
ref = _part.square;
},
{
pos = (500,280);
ref = _part.square;
scale = (0.5,1);
},
{
pos = (500,600);
ref = _part.square;
scale = (0.5,1);
},
{
pos = (500,-40);
ref = _part.square;
scale = (0.5,1);
}
);
width = 650;
},
{
associatedMasterId = m01;
layerId = "D4997CF1-8A71-4C14-B601-E35C6327E996";
name = side;
shapes = (
{
closed = 0;
nodes = (
(550,700,l,{
name = topColor;
}),
(200,700,ls,{
name = topColor;
}),
(147,700,o),
(100,653,o),
(100,600,cs,{
name = shadowColor;
}),
(100,60,l,{
name = shadowBottomColor;
})
);
}
);
width = 650;
},
{
associatedMasterId = m01;
layerId = "7081DCC8-A062-432E-832A-56606B550515";
name = top;
shapes = (
{
closed = 0;
nodes = (
(570,380,l,{
name = midTopColor;
}),
(180,380,l,{
name = shadowColor;
})
);
},
{
closed = 0;
nodes = (
(570,60,l,{
name = midTopColor;
}),
(180,60,l,{
name = shadowColor;
})
);
}
);
width = 650;
},
{
associatedMasterId = m01;
layerId = "EDB7E09F-A7AC-487C-B8FF-D6E8EC6F1416";
name = highlightColor;
shapes = (
{
closed = 0;
nodes = (
(550,700,l),
(200,700,ls),
(147,700,o),
(100,653,o),
(100,600,cs),
(100,200,l)
);
},
{
closed = 0;
nodes = (
(550,380,l),
(200,380,l)
);
},
{
closed = 0;
nodes = (
(550,60,l),
(200,60,l)
);
}
);
width = 650;
}
);
metricLeft = O;
metricRight = H;
unicode = 69;
},
{
glyphname = Eacute;
kernLeft = O;
layers = (
{
layerId = m01;
shapes = (
{
ref = E;
},
{
pos = (25,199);
ref = acutecomb;
}
);
width = 650;
},
{
associatedMasterId = m01;
layerId = "D4997CF1-8A71-4C14-B601-E35C6327E996";
name = side;
shapes = (
{
closed = 0;
nodes = (
(550,700,l,{
name = topBottomColor;
}),
(200,700,ls,{
name = topColor;
}),
(147,700,o),
(100,653,o),
(100,600,cs,{
name = shadowColor;
}),
(100,60,l,{
name = shadowBottomColor;
})
);
},
{
closed = 0;
nodes = (
(169,896.2,l,{
name = shadowColor;
}),
(222,809.1,l,{
name = shadowColor;
})
);
}
);
width = 650;
},
{
associatedMasterId = m01;
layerId = "7081DCC8-A062-432E-832A-56606B550515";
name = top;
shapes = (
{
closed = 0;
nodes = (
(570,380,l,{
name = midTopColor;
}),
(180,380,l,{
name = shadowColor;
})
);
},
{
closed = 0;
nodes = (
(570,60,l,{
name = midTopColor;
}),
(180,60,l,{
name = shadowColor;
})
);
},
{
closed = 0;
nodes = (
(408,1028.9,l,{
name = topColor;
}),
(169,896.2,l,{
name = topBottomColor;
})
);
}
);
width = 650;
},
{
associatedMasterId = m01;
layerId = "EDB7E09F-A7AC-487C-B8FF-D6E8EC6F1416";
name = highlightColor;
shapes = (
{
closed = 0;
nodes = (
(550,700,l),
(200,700,ls),
(147,700,o),
(100,653,o),
(100,600,cs),
(100,200,l)
);
},
{
closed = 0;
nodes = (
(550,380,l),
(200,380,l)
);
},
{
closed = 0;
nodes = (
(550,60,l),
(200,60,l)
);
},
{
closed = 0;
nodes = (
(408,1028.9,l,{
name = "";
}),
(169,896.2,l,{
name = "";
}),
(222,809.1,l,{
name = "";
})
);
}
);
width = 650;
}
);
metricLeft = O;
metricRight = H;
unicode = 201;
},
{
glyphname = Ecaron;
kernLeft = O;
layers = (
{
layerId = m01;
shapes = (
{
pos = (23,165);
ref = caroncomb;
},
{
ref = E;
}
);
width = 650;
},
{
associatedMasterId = m01;
layerId = "D4997CF1-8A71-4C14-B601-E35C6327E996";
name = side;
shapes = (
{
closed = 0;
nodes = (
(550,700,l,{
name = topBottomColor;
}),
(200,700,ls,{
name = topColor;
}),
(147,700,o),
(100,653,o),
(100,600,cs,{
name = shadowColor;
}),
(100,60,l,{
name = shadowBottomColor;
})
);
},
{
closed = 0;
nodes = (
(460.9,1018.4,l,{
name = topColor;
}),
(268,885.2,l,{
name = shadowColor;
})
);
},
{
closed = 0;
nodes = (
(187,1018.4,l,{
name = shadowColor;
}),
(135,947.5,l,{
name = shadowColor;
})
);
}
);
width = 650;
},
{
associatedMasterId = m01;
layerId = "7081DCC8-A062-432E-832A-56606B550515";
name = top;
shapes = (
{
closed = 0;
nodes = (
(570,380,l,{
name = midTopColor;
}),
(180,380,l,{
name = shadowColor;
})
);
},
{
closed = 0;
nodes = (
(570,60,l,{
name = midTopColor;
}),
(180,60,l,{
name = shadowColor;
})
);
},
{
closed = 0;
nodes = (
(324,923.8,l,{
name = topBottomColor;
}),
(187,1018.4,l,{
name = midTopColor;
})
);
}
);
width = 650;
},
{
associatedMasterId = m01;
layerId = "EDB7E09F-A7AC-487C-B8FF-D6E8EC6F1416";
name = highlightColor;
shapes = (
{
closed = 0;
nodes = (
(550,700,l),
(200,700,ls),
(147,700,o),
(100,653,o),
(100,600,cs),
(100,200,l)
);
},
{
closed = 0;
nodes = (
(550,380,l),
(200,380,l)
);
},
{
closed = 0;
nodes = (
(550,60,l),
(200,60,l)
);
},
{
closed = 0;
nodes = (
(460.9,1018.4,l),
(324,923.8,l)
);
},
{
closed = 0;
nodes = (
(301,939.4,l),
(187,1018.4,l),
(135,947.5,l)
);
}
);
width = 650;
}
);
metricLeft = O;
metricRight = H;
unicode = 282;
},
{
glyphname = Ecircumflex;
kernLeft = O;
layers = (
{
layerId = m01;
shapes = (
{
pos = (39,170);
ref = circumflexcomb;
},
{
ref = E;
}
);
width = 650;
},
{
associatedMasterId = m01;
layerId = "D4997CF1-8A71-4C14-B601-E35C6327E996";
name = side;
shapes = (
{
closed = 0;
nodes = (
(550,700,l,{
name = topBottomColor;
}),
(200,700,ls,{
name = topColor;
}),
(147,700,o),
(100,653,o),
(100,600,cs,{
name = shadowColor;
}),
(100,60,l,{
name = shadowBottomColor;
})
);
},
{
closed = 0;
nodes = (
(335,1030.4,l,{
name = topColor;
}),
(143,898.1,l,{
name = topBottomColor;
})
);
}
);
width = 650;
},
{
associatedMasterId = m01;
layerId = "7081DCC8-A062-432E-832A-56606B550515";
name = top;
shapes = (
{
closed = 0;
nodes = (
(570,380,l,{
name = midTopColor;
}),
(180,380,l,{
name = shadowColor;
})
);
},
{
closed = 0;
nodes = (
(570,60,l,{
name = midTopColor;
}),
(180,60,l,{
name = shadowColor;
})
);
},
{
closed = 0;
nodes = (
(143,898.1,l,{
name = shadowColor;
}),
(198,819.2,l,{
name = shadowColor;
})
);
},
{
closed = 0;
nodes = (
(527,898.1,l,{
name = shadowColor;
}),
(335,1030.4,l,{
name = topBottomColor;
})
);
}
);
width = 650;
},
{
associatedMasterId = m01;
layerId = "EDB7E09F-A7AC-487C-B8FF-D6E8EC6F1416";
name = highlightColor;
shapes = (
{
closed = 0;
nodes = (
(550,700,l),
(200,700,ls),
(147,700,o),
(100,653,o),
(100,600,cs),
(100,200,l)
);
},
{
closed = 0;
nodes = (
(550,380,l),
(200,380,l)
);
},
{
closed = 0;
nodes = (
(550,60,l),
(200,60,l)
);
},
{
closed = 0;
nodes = (
(449.2,951.7,l),
(335,1030.4,l,{
name = "";
}),
(143,898.1,l,{
name = "";
})
);
}
);
width = 650;
}
);
metricLeft = O;
metricRight = H;
unicode = 202;
},
{
glyphname = Edieresis;
kernLeft = O;
layers = (
{
layerId = m01;
shapes = (
{
pos = (130,810);
ref = _part.circle;
scale = (1.4,1.4);
},
{
pos = (380,810);
ref = _part.circle;
scale = (1.4,1.4);
},
{
ref = E;
}
);
width = 650;
},
{
associatedMasterId = m01;
layerId = "D4997CF1-8A71-4C14-B601-E35C6327E996";
name = side;
shapes = (
{
closed = 0;
nodes = (
(550,700,l,{
name = topBottomColor;
}),
(200,700,ls,{
name = topColor;
}),
(147,700,o),
(100,653,o),
(100,600,cs,{
name = shadowColor;
}),
(100,60,l,{
name = shadowBottomColor;
})
);
},
{
closed = 0;
nodes = (
(200,950,l,{
name = topColor;
}),
(159.4,950,o,{
name = "";
}),
(130,920.6,o,{
name = "";
}),
(130,880,cs,{
name = shadowColor;
}),
(130,859.4,o,{
name = "";
}),
(137.6,841.7,o,{
name = "";
}),
(150.3,829.3,c,{
name = shadowBottomColor;
})
);
},
{
closed = 0;
nodes = (
(450,950,l,{
name = topColor;
}),
(409.4,950,o,{
name = "";
}),
(380,920.6,o,{
name = "";
}),
(380,880,cs,{
name = shadowColor;
}),
(380,859.4,o,{
name = "";
}),
(387.6,841.7,o,{
name = "";
}),
(400.3,829.3,c,{
name = shadowBottomColor;
})
);
}
);
width = 650;
},
{
associatedMasterId = m01;
layerId = "7081DCC8-A062-432E-832A-56606B550515";
name = top;
shapes = (
{
closed = 0;
nodes = (
(570,380,l,{
name = midTopColor;
}),
(180,380,l,{
name = shadowColor;
})
);
},
{
closed = 0;
nodes = (
(570,60,l,{
name = midTopColor;
}),
(180,60,l,{
name = shadowColor;
})
);
}
);
width = 650;
},
{
associatedMasterId = m01;
layerId = "EDB7E09F-A7AC-487C-B8FF-D6E8EC6F1416";
name = highlightColor;
shapes = (
{
closed = 0;
nodes = (
(550,700,l),
(200,700,ls),
(147,700,o),
(100,653,o),
(100,600,cs),
(100,200,l)
);
},
{
closed = 0;
nodes = (
(550,380,l),
(200,380,l)
);
},
{
closed = 0;
nodes = (
(550,60,l),
(200,60,l)
);
},
{
closed = 0;
nodes = (
(201,950,l,{
name = "";
}),
(160.4,950,o,{
name = "";
}),
(131,920.6,o,{
name = "";
}),
(131,880,c,{
name = "";
})
);
},
{
closed = 0;
nodes = (
(451,950,l,{
name = "";
}),
(410.4,950,o,{
name = "";
}),
(381,920.6,o,{
name = "";
}),
(381,880,c,{
name = "";
})
);
}
);
width = 650;
}
);
metricLeft = O;
metricRight = H;
unicode = 203;
},
{
glyphname = Edotaccent;
kernLeft = O;
layers = (
{
layerId = m01;
shapes = (
{
pos = (35,200);
ref = dotaccentcomb;
},
{
ref = E;
}
);
width = 650;
},
{
associatedMasterId = m01;
layerId = "D4997CF1-8A71-4C14-B601-E35C6327E996";
name = side;
shapes = (
{
closed = 0;
nodes = (
(550,700,l,{
name = topBottomColor;
}),
(200,700,ls,{
name = topColor;
}),
(147,700,o),
(100,653,o),
(100,600,cs,{
name = shadowColor;
}),
(100,60,l,{
name = shadowBottomColor;
})
);
},
{
closed = 0;
nodes = (
(335,950,l,{
name = topColor;
}),
(294.4,950,o,{
name = "";
}),
(265,920.6,o,{
name = "";
}),
(265,880,cs,{
name = shadowColor;
}),
(265,859.4,o,{
name = "";
}),
(272.6,841.7,o,{
name = "";
}),
(285.3,829.3,c,{
name = shadowBottomColor;
})
);
}
);
width = 650;
},
{
associatedMasterId = m01;
layerId = "7081DCC8-A062-432E-832A-56606B550515";
name = top;
shapes = (
{
closed = 0;
nodes = (
(570,380,l,{
name = midTopColor;
}),
(180,380,l,{
name = shadowColor;
})
);
},
{
closed = 0;
nodes = (
(570,60,l,{
name = midTopColor;
}),
(180,60,l,{
name = shadowColor;
})
);
}
);
width = 650;
},
{
associatedMasterId = m01;
layerId = "EDB7E09F-A7AC-487C-B8FF-D6E8EC6F1416";
name = highlightColor;
shapes = (
{
closed = 0;
nodes = (
(550,700,l),
(200,700,ls),
(147,700,o),
(100,653,o),
(100,600,cs),
(100,200,l)
);
},
{
closed = 0;
nodes = (
(550,380,l),
(200,380,l)
);
},
{
closed = 0;
nodes = (
(550,60,l),
(200,60,l)
);
},
{
closed = 0;
nodes = (
(335,950,l,{
name = "";
}),
(294.4,950,o,{
name = "";
}),
(265,920.6,o,{
name = "";
}),
(265,880,c,{
name = "";
})
);
}
);
width = 650;
}
);
metricLeft = O;
metricRight = H;
unicode = 278;
},
{
glyphname = Egrave;
kernLeft = O;
layers = (
{
layerId = m01;
shapes = (
{
pos = (29,180);
ref = gravecomb;
},
{
ref = E;
}
);
width = 650;
},
{
associatedMasterId = m01;
layerId = "D4997CF1-8A71-4C14-B601-E35C6327E996";
name = side;
shapes = (
{
closed = 0;
nodes = (
(550,700,l,{
name = topBottomColor;
}),
(200,700,ls,{
name = topColor;
}),
(147,700,o),
(100,653,o),
(100,600,cs,{
name = shadowColor;
}),
(100,60,l,{
name = shadowBottomColor;
})
);
},
{
closed = 0;
nodes = (
(194,1077,l,{
name = shadowColor;
}),
(137,1001,l,{
name = shadowColor;
})
);
}
);
width = 650;
},
{
associatedMasterId = m01;
layerId = "7081DCC8-A062-432E-832A-56606B550515";
name = top;
shapes = (
{
closed = 0;
nodes = (
(570,380,l,{
name = midTopColor;
}),
(180,380,l,{
name = shadowColor;
})
);
},
{
closed = 0;
nodes = (
(570,60,l,{
name = midTopColor;
}),
(180,60,l,{
name = shadowColor;
})
);
},
{
closed = 0;
nodes = (
(544.2,830.1,l,{
name = shadowColor;
}),
(194,1077,l,{
name = topBottomColor;
})
);
}
);
width = 650;
},
{
associatedMasterId = m01;
layerId = "EDB7E09F-A7AC-487C-B8FF-D6E8EC6F1416";
name = highlightColor;
shapes = (
{
closed = 0;
nodes = (
(550,700,l),
(200,700,ls),
(147,700,o),
(100,653,o),
(100,600,cs),
(100,200,l)
);
},
{
closed = 0;
nodes = (
(550,380,l),
(200,380,l)
);
},
{
closed = 0;
nodes = (
(550,60,l),
(200,60,l)
);
},
{
closed = 0;
nodes = (
(350.7,966.8,l),
(194,1077,l),
(137,1001,l)
);
}
);
width = 650;
}
);
metricLeft = O;
metricRight = H;
unicode = 200;
},
{
glyphname = Emacron;
kernLeft = O;
layers = (
{
layerId = m01;
shapes = (
{
pos = (130,830);
ref = _part.square;
scale = (3.5,1);
},
{
ref = E;
}
);
width = 650;
},
{
associatedMasterId = m01;
layerId = "D4997CF1-8A71-4C14-B601-E35C6327E996";
name = side;
shapes = (
{
closed = 0;
nodes = (
(550,700,l,{
name = topBottomColor;
}),
(200,700,ls,{
name = topColor;
}),
(147,700,o),
(100,653,o),
(100,600,cs,{
name = shadowColor;
}),
(100,60,l,{
name = shadowBottomColor;
})
);
},
{
closed = 0;
nodes = (
(130,930,l,{
name = shadowColor;
}),
(130,810,l,{
name = shadowColor;
})
);
}
);
width = 650;
},
{
associatedMasterId = m01;
layerId = "7081DCC8-A062-432E-832A-56606B550515";
name = top;
shapes = (
{
closed = 0;
nodes = (
(570,380,l,{
name = midTopColor;
}),
(180,380,l,{
name = shadowColor;
})
);
},
{
closed = 0;
nodes = (
(570,60,l,{
name = midTopColor;
}),
(180,60,l,{
name = shadowColor;
})
);
},
{
closed = 0;
nodes = (
(480,930,l,{
name = topColor;
}),
(130,930,l,{
name = topColor;
})
);
}
);
width = 650;
},
{
associatedMasterId = m01;
layerId = "EDB7E09F-A7AC-487C-B8FF-D6E8EC6F1416";
name = highlightColor;
shapes = (
{
closed = 0;
nodes = (
(550,700,l),
(200,700,ls),
(147,700,o),
(100,653,o),
(100,600,cs),
(100,200,l)
);
},
{
closed = 0;
nodes = (
(550,380,l),
(200,380,l)
);
},
{
closed = 0;
nodes = (
(550,60,l),
(200,60,l)
);
},
{
closed = 0;
nodes = (
(480,930,l),
(130,930,l),
(130,830,l)
);
}
);
width = 650;
}
);
metricLeft = O;
metricRight = H;
unicode = 274;
},
{
glyphname = Eogonek;
kernLeft = O;
layers = (
{
layerId = m01;
shapes = (
{
pos = (450,-140);
ref = _part.corner;
scale = (-1,1);
},
{
angle = 180;
pos = (450,-140);
ref = _part.corner;
},
{
angle = 180;
pos = (550,-140);
ref = _part.square;
},
{
ref = E;
}
);
width = 650;
},
{
associatedMasterId = m01;
layerId = "D4997CF1-8A71-4C14-B601-E35C6327E996";
name = side;
shapes = (
{
closed = 0;
nodes = (
(550,700,l,{
name = topColor;
}),
(200,700,ls,{
name = topColor;
}),
(147,700,o),
(100,653,o),
(100,600,cs,{
name = shadowColor;
}),
(100,60,l,{
name = shadowBottomColor;
})
);
}
);
width = 650;
},
{
associatedMasterId = m01;
layerId = "7081DCC8-A062-432E-832A-56606B550515";
name = top;
shapes = (
{
closed = 0;
nodes = (
(570,380,l,{
name = midTopColor;
}),
(180,380,l,{
name = shadowColor;
})
);
},
{
closed = 0;
nodes = (
(570,60,l,{
name = midTopColor;
}),
(180,60,l,{
name = shadowColor;
})
);
},
{
closed = 0;
nodes = (
(600,-140,l,{
name = midTopColor;
}),
(450,-140,l,{
name = shadowBottomColor;
})
);
},
{
closed = 0;
nodes = (
(450,-40,l,{
name = shadowColor;
}),
(397,-40,o),
(350,-87,o),
(350,-140,cs,{
name = shadowColor;
}),
(350,-168,o),
(363,-195,o),
(380,-210,c,{
name = shadowBottomColor;
})
);
}
);
width = 650;
},
{
associatedMasterId = m01;
layerId = "EDB7E09F-A7AC-487C-B8FF-D6E8EC6F1416";
name = highlightColor;
shapes = (
{
closed = 0;
nodes = (
(550,700,l),
(200,700,ls),
(147,700,o),
(100,653,o),
(100,600,cs),
(100,200,l)
);
},
{
closed = 0;
nodes = (
(550,380,l),
(200,380,l)
);
},
{
closed = 0;
nodes = (
(550,60,l),
(200,60,l)
);
},
{
closed = 0;
nodes = (
(380,-70,l),
(360,-90,o),
(350,-110,o),
(350,-140,cs),
(350,-168,o),
(363,-195,o),
(380,-210,c)
);
}
);
width = 650;
}
);
metricLeft = O;
metricRight = H;
unicode = 280;
},
{
glyphname = Etilde;
kernLeft = O;
layers = (
{
layerId = m01;
shapes = (
{
pos = (0,134);
ref = tildecomb;
},
{
ref = E;
}
);
width = 650;
},
{
associatedMasterId = m01;
layerId = "D4997CF1-8A71-4C14-B601-E35C6327E996";
name = side;
shapes = (
{
closed = 0;
nodes = (
(550,700,l,{
name = topBottomColor;
}),
(200,700,ls,{
name = topColor;
}),
(147,700,o),
(100,653,o),
(100,600,cs,{
name = shadowColor;
}),
(100,60,l,{
name = shadowBottomColor;
})
);
},
{
closed = 0;
nodes = (
(542,955,l,{
name = topColor;
}),
(463.2,1019.4,l,{
name = frontTopColor;
})
);
},
{
closed = 0;
nodes = (
(388.4,926.4,l,{
name = topBottomColor;
}),
(310,989.1,ls,{
name = topColor;
}),
(258.3,1030.4,o),
(211.2,1030.4,o),
(178.2,989.1,cs,{
name = topBottomColor;
}),
(87,875,l,{
name = shadowColor;
})
);
}
);
width = 650;
},
{
associatedMasterId = m01;
layerId = "7081DCC8-A062-432E-832A-56606B550515";
name = top;
shapes = (
{
closed = 0;
nodes = (
(570,380,l,{
name = midTopColor;
}),
(180,380,l,{
name = shadowColor;
})
);
},
{
closed = 0;
nodes = (
(570,60,l,{
name = midTopColor;
}),
(180,60,l,{
name = shadowColor;
})
);
},
{
closed = 0;
nodes = (
(463.2,1019.4,l,{
name = topColor;
}),
(362.3,894,l,{
name = shadowColor;
})
);
}
);
width = 650;
},
{
associatedMasterId = m01;
layerId = "EDB7E09F-A7AC-487C-B8FF-D6E8EC6F1416";
name = highlightColor;
shapes = (
{
closed = 0;
nodes = (
(550,700,l),
(200,700,ls),
(147,700,o),
(100,653,o),
(100,600,cs),
(100,200,l)
);
},
{
closed = 0;
nodes = (
(550,380,l),
(200,380,l)
);
},
{
closed = 0;
nodes = (
(550,60,l),
(200,60,l)
);
},
{
closed = 0;
nodes = (
(463.2,1019.4,l),
(388.4,926.4,l)
);
},
{
closed = 0;
nodes = (
(310,989.1,l),
(258.3,1030.4,o),
(211.2,1030.4,o),
(178.2,989.1,cs),
(87,875,l)
);
}
);
width = 650;
}
);
metricRight = H;
unicode = 7868;
},
{
glyphname = Schwa;
layers = (
{
layerId = m01;
shapes = (
{
angle = 180;
pos = (300,380);
ref = _part.square;
},
{
angle = 180;
pos = (400,20);
ref = _part.square;
},
{
angle = 180;
pos = (400,720);
ref = _part.square;
},
{
angle = 180;
pos = (600,220);
ref = _part.square;
},
{
pos = (400,520);
ref = _part.corner.wide;
},
{
pos = (400,120);
ref = _part.corner.wide;
scale = (1,-1);
},
{
angle = 180;
pos = (300,120);
ref = _part.corner.wide;
},
{
pos = (200,280);
ref = _part.corner;
scale = (-1,1);
},
{
angle = 180;
pos = (400,380);
ref = _part.square;
},
{
pos = (400,280);
ref = _part.corner;
},
{
pos = (300,520);
ref = _part.corner.wide;
scale = (-1,1);
},
{
angle = 180;
pos = (200,280);
ref = _part.square;
scale = (1,1.6);
},
{
angle = 180;
pos = (600,420);
ref = _part.square;
scale = (1,2);
},
{
angle = 180;
pos = (600,520);
ref = _part.square;
}
);
width = 700;
},
{
associatedMasterId = m01;
layerId = "D4997CF1-8A71-4C14-B601-E35C6327E996";
name = side;
shapes = (
{
closed = 0;
nodes = (
(469.7,590,l,{
name = shadowBottomColor;
}),
(488.2,571.6,o),
(500,546.6,o),
(500,520,cs,{
name = shadowColor;
}),
(500,305.1,l,{
name = shadowBottomColor;
})
);
},
{
closed = 0;
nodes = (
(500,285.6,l,{
name = shadowBottomColor;
}),
(500,120,ls,{
name = shadowColor;
}),
(500,67,o),
(453,20,o),
(400,20,cs,{
name = midTopColor;
}),
(300,20,ls,{
name = shadowColor;
}),
(273.3,20,o),
(248,32,o),
(229.6,50.6,c,{
name = shadowColor;
})
);
}
);
width = 700;
},
{
associatedMasterId = m01;
layerId = "7081DCC8-A062-432E-832A-56606B550515";
name = top;
shapes = (
{
closed = 0;
nodes = (
(400,720,l,{
name = topColor;
}),
(300,720,ls,{
name = topColor;
}),
(194,720,o),
(100,626,o),
(100,520,c,{
name = shadowColor;
})
);
},
{
closed = 0;
nodes = (
(400,380,l,{
name = midTopColor;
}),
(200,380,ls,{
name = shadowColor;
}),
(147,380,o),
(100,333,o),
(100,280,cs,{
name = shadowColor;
}),
(100,120,ls,{
name = shadowColor;
}),
(100,63.1,o),
(127.1,9.6,o),
(168.6,-27.7,c,{
name = shadowBottomColor;
})
);
}
);
width = 700;
},
{
associatedMasterId = m01;
layerId = "EDB7E09F-A7AC-487C-B8FF-D6E8EC6F1416";
name = highlightColor;
shapes = (
{
closed = 0;
nodes = (
(400,380,l),
(200,380,ls),
(147,380,o),
(100,333,o),
(100,280,cs),
(100,120,l)
);
},
{
closed = 0;
nodes = (
(500,222.3,l),
(500,120,ls),
(500,67,o),
(453,20,o),
(400,20,cs),
(300,20,l)
);
},
{
closed = 0;
nodes = (
(400,720,l),
(300,720,ls),
(194,720,o),
(100,626,o),
(100,520,c)
);
}
);
width = 700;
}
);
metricLeft = H;
metricRight = H;
unicode = 399;
},
{
glyphname = F;
kernLeft = O;
layers = (
{
layerId = m01;
shapes = (
{
pos = (100,0);
ref = _part.square;
},
{
pos = (100,100);
ref = _part.square;
},
{
pos = (100,300);
ref = _part.square;
},
{
pos = (100,400);
ref = _part.square;
},
{
pos = (100,500);
ref = _part.square;
},
{
pos = (200,600);
ref = _part.corner;
scale = (-1,1);
},
{
pos = (300,250);
ref = _part.corner;
scale = (-1,1);
},
{
pos = (200,600);
ref = _part.square;
},
{
pos = (300,250);
ref = _part.square;
},
{
pos = (300,600);
ref = _part.square;
},
{
pos = (400,250);
ref = _part.square;
scale = (1.5,1);
},
{
pos = (400,600);
ref = _part.square;
scale = (0.5,1);
},
{
pos = (450,600);
ref = _part.square;
},
{
pos = (100,200);
ref = _part.square;
}
);
width = 650;
},
{
associatedMasterId = m01;
layerId = "2370A5A6-4AE8-485F-9996-4436778F3408";
name = side;
shapes = (
{
closed = 0;
nodes = (
(550,700,l,{
name = topColor;
}),
(200,700,ls,{
name = topColor;
}),
(147,700,o),
(100,653,o),
(100,600,cs,{
name = shadowColor;
}),
(100,0,l,{
name = shadowBottomColor;
})
);
}
);
width = 650;
},
{
associatedMasterId = m01;
layerId = "B254B304-BD3F-4D30-895C-F4494AA7E51C";
name = top;
shapes = (
{
closed = 0;
nodes = (
(550,350,l,{
name = midTopColor;
}),
(300,350,ls,{
name = shadowColor;
}),
(247,350,o),
(200,303,o),
(200,250,c,{
name = shadowBottomColor;
})
);
}
);
width = 650;
},
{
associatedMasterId = m01;
layerId = "93C2E488-4A4B-4EF2-BF8C-334BE54D9502";
name = highlightColor;
shapes = (
{
closed = 0;
nodes = (
(550,700,l),
(200,700,ls),
(147,700,o),
(100,653,o),
(100,600,cs),
(100,180,l)
);
},
{
closed = 0;
nodes = (
(500,350,l),
(300,350,ls),
(247,350,o),
(200,303,o),
(200,250,c)
);
}
);
width = 650;
}
);
metricLeft = H;
unicode = 70;
},
{
glyphname = G;
kernLeft = O;
layers = (
{
layerId = m01;
shapes = (
{
angle = 180;
pos = (200,60);
ref = _part.corner;
},
{
pos = (100,60);
ref = _part.square;
},
{
pos = (100,500);
ref = _part.square;
},
{
pos = (200,640);
ref = _part.corner;
scale = (-1,1);
},
{
pos = (200,640);
ref = _part.square;
},
{
pos = (450,300);
ref = _part.square;
},
{
pos = (450,640);
ref = _part.corner;
},
{
pos = (200,-40);
ref = _part.square;
},
{
pos = (450,60);
ref = _part.square;
},
{
pos = (100,300);
ref = _part.square;
},
{
pos = (350,60);
ref = _part.corner;
scale = (1,-1);
},
{
pos = (100,400);
ref = _part.square;
},
{
pos = (450,540);
ref = _part.square;
},
{
pos = (350,640);
ref = _part.square;
},
{
pos = (450,-40);
ref = _part.square;
},
{
pos = (350,300);
ref = _part.square;
},
{
pos = (300,300);
ref = _part.square;
scale = (0.5,1);
},
{
pos = (100,200);
ref = _part.square;
},
{
pos = (450,200);
ref = _part.square;
},
{
pos = (100,100);
ref = _part.square;
},
{
pos = (450,100);
ref = _part.square;
},
{
pos = (100,540);
ref = _part.square;
},
{
pos = (300,640);
ref = _part.square;
scale = (0.5,1);
},
{
pos = (300,-40);
ref = _part.square;
scale = (0.5,1);
}
);
width = 650;
},
{
associatedMasterId = m01;
layerId = "2C384F79-5CD3-4E38-BE7D-B4F85283FAEF";
name = side;
shapes = (
{
closed = 0;
nodes = (
(300,400,l,{
name = shadowColor;
}),
(300,300,l,{
name = shadowColor;
})
);
},
{
closed = 0;
nodes = (
(450,670,l,{
name = shadowBottomColor;
}),
(450,540,l,{
name = shadowColor;
})
);
},
{
closed = 0;
nodes = (
(450,300,l,{
name = shadowBottomColor;
}),
(450,61,l,{
name = shadowColor;
})
);
},
{
closed = 0;
nodes = (
(450,740,l,{
name = topColor;
}),
(200,740,ls,{
name = topColor;
}),
(147,740,o),
(100,693,o),
(100,640,cs,{
name = shadowColor;
}),
(100,60,l,{
name = shadowBottomColor;
})
);
},
{
closed = 0;
nodes = (
(450,50,l,{
name = shadowBottomColor;
}),
(450,-40,l,{
name = shadowColor;
})
);
}
);
width = 650;
},
{
associatedMasterId = m01;
layerId = "0FFE4ED2-6023-4C84-AC42-C3167908F38C";
name = top;
shapes = (
{
closed = 0;
nodes = (
(500,60,l,{
name = midTopColor;
}),
(200,60,l,{
name = shadowColor;
})
);
},
{
closed = 0;
nodes = (
(550,400,l,{
name = midTopColor;
}),
(300,400,l,{
name = midTopColor;
})
);
}
);
width = 650;
},
{
associatedMasterId = m01;
layerId = "A4FBAE46-958F-45DF-839B-9985185F3E80";
name = highlightColor;
shapes = (
{
closed = 0;
nodes = (
(450,740,l),
(200,740,ls),
(147,740,o),
(100,693,o),
(100,640,cs),
(100,190,l)
);
},
{
closed = 0;
nodes = (
(450,300,l),
(450,60,l),
(200,60,l)
);
},
{
closed = 0;
nodes = (
(550,400,l),
(300,400,l),
(300,300,l)
);
}
);
width = 650;
}
);
metricLeft = H;
metricRight = H;
unicode = 71;
},
{
glyphname = Gbreve;
kernLeft = O;
layers = (
{
layerId = m01;
shapes = (
{
ref = G;
},
{
pos = (25,280);
ref = brevecomb;
}
);
width = 650;
},
{
associatedMasterId = m01;
layerId = "2C384F79-5CD3-4E38-BE7D-B4F85283FAEF";
name = side;
shapes = (
{
closed = 0;
nodes = (
(300,400,l,{
name = shadowColor;
}),
(300,300,l,{
name = shadowColor;
})
);
},
{
closed = 0;
nodes = (
(450,670,l,{
name = shadowBottomColor;
}),
(450,540,l,{
name = shadowColor;
})
);
},
{
closed = 0;
nodes = (
(450,740,l,{
name = topBottomColor;
}),
(200,740,ls,{
name = topColor;
}),
(147,740,o),
(100,693,o),
(100,640,cs,{
name = shadowColor;
}),
(100,60,l,{
name = shadowBottomColor;
})
);
},
{
closed = 0;
nodes = (
(450,50,l,{
name = shadowBottomColor;
}),
(450,-40,l,{
name = shadowColor;
})
);
},
{
closed = 0;
nodes = (
(425,1050,l,{
name = shadowColor;
}),
(425,1016,o),
(405.7,984.5,o),
(377.9,966.3,cs,{
name = topColor;
}),
(362.3,956.1,o),
(344,950,o),
(325,950,cs,{
name = midTopColor;
}),
(295.7,950,o),
(268.3,964.3,o),
(249.6,986.1,c,{
name = shadowColor;
})
);
},
{
closed = 0;
nodes = (
(125,1050,l,{
name = shadowColor;
}),
(125,993,o),
(152.2,939.5,o),
(193.8,902.2,c,{
name = shadowBottomColor;
})
);
},
{
closed = 0;
nodes = (
(450,300,l,{
name = shadowBottomColor;
}),
(450,61,l,{
name = shadowColor;
})
);
}
);
width = 650;
},
{
associatedMasterId = m01;
layerId = "0FFE4ED2-6023-4C84-AC42-C3167908F38C";
name = top;
shapes = (
{
closed = 0;
nodes = (
(550,400,l,{
name = midTopColor;
}),
(300,400,l,{
name = midTopColor;
})
);
},
{
closed = 0;
nodes = (
(225,1050,l,{
name = topColor;
}),
(125,1050,l,{
name = topColor;
})
);
},
{
closed = 0;
nodes = (
(525,1050,l,{
name = topColor;
}),
(425,1050,l,{
name = topColor;
})
);
},
{
closed = 0;
nodes = (
(500,60,l,{
name = midTopColor;
}),
(200,60,l,{
name = shadowColor;
})
);
}
);
width = 650;
},
{
associatedMasterId = m01;
layerId = "A4FBAE46-958F-45DF-839B-9985185F3E80";
name = highlightColor;
shapes = (
{
closed = 0;
nodes = (
(450,740,l),
(200,740,ls),
(147,740,o),
(100,693,o),
(100,640,cs),
(100,190,l)
);
},
{
closed = 0;
nodes = (
(450,300,l),
(450,60,l),
(200,60,l)
);
},
{
closed = 0;
nodes = (
(550,400,l),
(300,400,l),
(300,300,l)
);
},
{
closed = 0;
nodes = (
(225,1050,l,{
name = "";
}),
(125,1050,l,{
name = "";
}),
(125,993,o,{
name = "";
}),
(152.2,939.5,o,{
name = "";
}),
(193.8,902.2,c,{
name = "";
})
);
},
{
closed = 0;
nodes = (
(525,1050,l,{
name = "";
}),
(425,1050,l,{
name = "";
}),
(425,997,o,{
name = "";
}),
(378,950,o,{
name = "";
}),
(325,950,c,{
name = "";
})
);
}
);
width = 650;
}
);
metricLeft = H;
metricRight = H;
unicode = 286;
},
{
glyphname = Gcaron;
kernLeft = O;
layers = (
{
layerId = m01;
shapes = (
{
pos = (28,205);
ref = caroncomb;
},
{
ref = G;
}
);
width = 650;
},
{
associatedMasterId = m01;
layerId = "2C384F79-5CD3-4E38-BE7D-B4F85283FAEF";
name = side;
shapes = (
{
closed = 0;
nodes = (
(300,400,l,{
name = shadowColor;
}),
(300,300,l,{
name = shadowColor;
})
);
},
{
closed = 0;
nodes = (
(450,670,l,{
name = shadowBottomColor;
}),
(450,540,l,{
name = shadowColor;
})
);
},
{
closed = 0;
nodes = (
(450,740,l,{
name = topBottomColor;
}),
(200,740,ls,{
name = topColor;
}),
(147,740,o),
(100,693,o),
(100,640,cs,{
name = shadowColor;
}),
(100,60,l,{
name = shadowBottomColor;
})
);
},
{
closed = 0;
nodes = (
(450,50,l,{
name = shadowBottomColor;
}),
(450,-40,l,{
name = shadowColor;
})
);
},
{
closed = 0;
nodes = (
(465.9,1058.4,l,{
name = topColor;
}),
(273,925.2,l,{
name = shadowColor;
})
);
},
{
closed = 0;
nodes = (
(192,1058.4,l,{
name = shadowColor;
}),
(140,987.5,l,{
name = shadowColor;
})
);
},
{
closed = 0;
nodes = (
(450,300,l,{
name = shadowBottomColor;
}),
(450,61,l,{
name = shadowColor;
})
);
}
);
width = 650;
},
{
associatedMasterId = m01;
layerId = "0FFE4ED2-6023-4C84-AC42-C3167908F38C";
name = top;
shapes = (
{
closed = 0;
nodes = (
(550,400,l,{
name = midTopColor;
}),
(300,400,l,{
name = midTopColor;
})
);
},
{
closed = 0;
nodes = (
(329,963.8,l,{
name = topBottomColor;
}),
(192,1058.4,l,{
name = midTopColor;
})
);
},
{
closed = 0;
nodes = (
(500,60,l,{
name = midTopColor;
}),
(200,60,l,{
name = shadowColor;
})
);
}
);
width = 650;
},
{
associatedMasterId = m01;
layerId = "A4FBAE46-958F-45DF-839B-9985185F3E80";
name = highlightColor;
shapes = (
{
closed = 0;
nodes = (
(450,740,l),
(200,740,ls),
(147,740,o),
(100,693,o),
(100,640,cs),
(100,190,l)
);
},
{
closed = 0;
nodes = (
(450,300,l),
(450,60,l),
(200,60,l)
);
},
{
closed = 0;
nodes = (
(550,400,l),
(300,400,l),
(300,300,l)
);
},
{
closed = 0;
nodes = (
(465.9,1058.4,l),
(329,963.8,l)
);
},
{
closed = 0;
nodes = (
(306,979.4,l),
(192,1058.4,l),
(140,987.5,l)
);
}
);
width = 650;
}
);
metricLeft = H;
metricRight = H;
unicode = 486;
},
{
glyphname = Gcircumflex;
kernLeft = O;
layers = (
{
layerId = m01;
shapes = (
{
ref = G;
},
{
pos = (29,210);
ref = circumflexcomb;
}
);
width = 650;
},
{
associatedMasterId = m01;
layerId = "2C384F79-5CD3-4E38-BE7D-B4F85283FAEF";
name = side;
shapes = (
{
closed = 0;
nodes = (
(300,400,l,{
name = shadowColor;
}),
(300,300,l,{
name = shadowColor;
})
);
},
{
closed = 0;
nodes = (
(450,670,l,{
name = shadowBottomColor;
}),
(450,540,l,{
name = shadowColor;
})
);
},
{
closed = 0;
nodes = (
(450,740,l,{
name = topBottomColor;
}),
(200,740,ls,{
name = topColor;
}),
(147,740,o),
(100,693,o),
(100,640,cs,{
name = shadowColor;
}),
(100,60,l,{
name = shadowBottomColor;
})
);
},
{
closed = 0;
nodes = (
(450,50,l,{
name = shadowBottomColor;
}),
(450,-40,l,{
name = shadowColor;
})
);
},
{
closed = 0;
nodes = (
(325,1070.4,l,{
name = topColor;
}),
(133,938.1,l,{
name = topBottomColor;
})
);
},
{
closed = 0;
nodes = (
(450,300,l,{
name = shadowBottomColor;
}),
(450,61,l,{
name = shadowColor;
})
);
}
);
width = 650;
},
{
associatedMasterId = m01;
layerId = "0FFE4ED2-6023-4C84-AC42-C3167908F38C";
name = top;
shapes = (
{
closed = 0;
nodes = (
(550,400,l,{
name = midTopColor;
}),
(300,400,l,{
name = midTopColor;
})
);
},
{
closed = 0;
nodes = (
(133,938.1,l,{
name = shadowColor;
}),
(188,859.2,l,{
name = shadowColor;
})
);
},
{
closed = 0;
nodes = (
(517,938.1,l,{
name = shadowColor;
}),
(325,1070.4,l,{
name = topBottomColor;
})
);
},
{
closed = 0;
nodes = (
(500,60,l,{
name = midTopColor;
}),
(200,60,l,{
name = shadowColor;
})
);
}
);
width = 650;
},
{
associatedMasterId = m01;
layerId = "A4FBAE46-958F-45DF-839B-9985185F3E80";
name = highlightColor;
shapes = (
{
closed = 0;
nodes = (
(450,740,l),
(200,740,ls),
(147,740,o),
(100,693,o),
(100,640,cs),
(100,190,l)
);
},
{
closed = 0;
nodes = (
(450,300,l),
(450,60,l),
(200,60,l)
);
},
{
closed = 0;
nodes = (
(550,400,l),
(300,400,l),
(300,300,l)
);
},
{
closed = 0;
nodes = (
(439.2,991.7,l),
(325,1070.4,l,{
name = "";
}),
(133,938.1,l,{
name = "";
})
);
}
);
width = 650;
}
);
metricLeft = H;
metricRight = H;
unicode = 284;
},
{
glyphname = Gcommaaccent;
kernLeft = O;
layers = (
{
layerId = m01;
shapes = (
{
ref = G;
},
{
pos = (0,10);
ref = commaaccentcomb;
}
);
width = 650;
},
{
associatedMasterId = m01;
layerId = "2C384F79-5CD3-4E38-BE7D-B4F85283FAEF";
name = side;
shapes = (
{
closed = 0;
nodes = (
(300,400,l,{
name = shadowColor;
}),
(300,300,l,{
name = shadowColor;
})
);
},
{
closed = 0;
nodes = (
(450,670,l,{
name = shadowBottomColor;
}),
(450,540,l,{
name = shadowColor;
})
);
},
{
closed = 0;
nodes = (
(450,740,l,{
name = topColor;
}),
(200,740,ls,{
name = topColor;
}),
(147,740,o),
(100,693,o),
(100,640,cs,{
name = shadowColor;
}),
(100,60,l,{
name = shadowBottomColor;
})
);
},
{
closed = 0;
nodes = (
(450,50,l,{
name = shadowBottomColor;
}),
(450,-40,l,{
name = shadowColor;
})
);
},
{
closed = 0;
nodes = (
(330,-90,l,{
name = shadowColor;
}),
(283.6,-90,o),
(250,-123.6,o),
(250,-170,cs,{
name = shadowBottomColor;
}),
(250,-197.2,o),
(261.5,-220,o),
(280.4,-234.2,c,{
name = shadowBottomColor;
})
);
},
{
closed = 0;
nodes = (
(450,300,l,{
name = shadowBottomColor;
}),
(450,61,l,{
name = shadowColor;
})
);
}
);
width = 650;
},
{
associatedMasterId = m01;
layerId = "0FFE4ED2-6023-4C84-AC42-C3167908F38C";
name = top;
shapes = (
{
closed = 0;
nodes = (
(550,400,l,{
name = midTopColor;
}),
(300,400,l,{
name = midTopColor;
})
);
},
{
closed = 0;
nodes = (
(330,-232,l,{
name = shadowBottomColor;
}),
(330,-330,l,{
name = shadowColor;
})
);
},
{
closed = 0;
nodes = (
(500,60,l,{
name = midTopColor;
}),
(200,60,l,{
name = shadowColor;
})
);
}
);
width = 650;
},
{
associatedMasterId = m01;
layerId = "A4FBAE46-958F-45DF-839B-9985185F3E80";
name = highlightColor;
shapes = (
{
closed = 0;
nodes = (
(450,740,l),
(200,740,ls),
(147,740,o),
(100,693,o),
(100,640,cs),
(100,190,l)
);
},
{
closed = 0;
nodes = (
(450,300,l),
(450,60,l),
(200,60,l)
);
},
{
closed = 0;
nodes = (
(550,400,l),
(300,400,l),
(300,300,l)
);
},
{
closed = 0;
nodes = (
(330,-90,l,{
name = "";
}),
(283.6,-90,o,{
name = "";
}),
(250,-123.6,o,{
name = "";
}),
(250,-170,c,{
name = "";
})
);
}
);
width = 650;
}
);
metricLeft = H;
metricRight = H;
unicode = 290;
},
{
glyphname = Gdotaccent;
kernLeft = O;
layers = (
{
layerId = m01;
shapes = (
{
pos = (35,240);
ref = dotaccentcomb;
},
{
ref = G;
}
);
width = 650;
},
{
associatedMasterId = m01;
layerId = "2C384F79-5CD3-4E38-BE7D-B4F85283FAEF";
name = side;
shapes = (
{
closed = 0;
nodes = (
(300,400,l,{
name = shadowColor;
}),
(300,300,l,{
name = shadowColor;
})
);
},
{
closed = 0;
nodes = (
(450,670,l,{
name = shadowBottomColor;
}),
(450,540,l,{
name = shadowColor;
})
);
},
{
closed = 0;
nodes = (
(450,740,l,{
name = topBottomColor;
}),
(200,740,ls,{
name = topColor;
}),
(147,740,o),
(100,693,o),
(100,640,cs,{
name = shadowColor;
}),
(100,60,l,{
name = shadowBottomColor;
})
);
},
{
closed = 0;
nodes = (
(450,50,l,{
name = shadowBottomColor;
}),
(450,-40,l,{
name = shadowColor;
})
);
},
{
closed = 0;
nodes = (
(335,990,l,{
name = topColor;
}),
(294.4,990,o,{
name = "";
}),
(265,960.6,o,{
name = "";
}),
(265,920,cs,{
name = shadowColor;
}),
(265,899.4,o,{
name = "";
}),
(272.6,881.7,o,{
name = "";
}),
(285.3,869.3,c,{
name = shadowBottomColor;
})
);
},
{
closed = 0;
nodes = (
(450,300,l,{
name = shadowBottomColor;
}),
(450,61,l,{
name = shadowColor;
})
);
}
);
width = 650;
},
{
associatedMasterId = m01;
layerId = "0FFE4ED2-6023-4C84-AC42-C3167908F38C";
name = top;
shapes = (
{
closed = 0;
nodes = (
(550,400,l,{
name = midTopColor;
}),
(300,400,l,{
name = midTopColor;
})
);
},
{
closed = 0;
nodes = (
(500,60,l,{
name = midTopColor;
}),
(200,60,l,{
name = shadowColor;
})
);
}
);
width = 650;
},
{
associatedMasterId = m01;
layerId = "A4FBAE46-958F-45DF-839B-9985185F3E80";
name = highlightColor;
shapes = (
{
closed = 0;
nodes = (
(450,740,l),
(200,740,ls),
(147,740,o),
(100,693,o),
(100,640,cs),
(100,190,l)
);
},
{
closed = 0;
nodes = (
(450,300,l),
(450,60,l),
(200,60,l)
);
},
{
closed = 0;
nodes = (
(550,400,l),
(300,400,l),
(300,300,l)
);
},
{
closed = 0;
nodes = (
(335,990,l,{
name = "";
}),
(294.4,990,o,{
name = "";
}),
(265,960.6,o,{
name = "";
}),
(265,920,c,{
name = "";
})
);
}
);
width = 650;
}
);
metricLeft = H;
metricRight = H;
unicode = 288;
},
{
glyphname = Gmacron;
kernLeft = O;
layers = (
{
layerId = m01;
shapes = (
{
pos = (130,870);
ref = _part.square;
scale = (3.5,1);
},
{
ref = G;
}
);
width = 650;
},
{
associatedMasterId = m01;
layerId = "2C384F79-5CD3-4E38-BE7D-B4F85283FAEF";
name = side;
shapes = (
{
closed = 0;
nodes = (
(300,400,l,{
name = shadowColor;
}),
(300,300,l,{
name = shadowColor;
})
);
},
{
closed = 0;
nodes = (
(450,670,l,{
name = shadowBottomColor;
}),
(450,540,l,{
name = shadowColor;
})
);
},
{
closed = 0;
nodes = (
(450,740,l,{
name = topBottomColor;
}),
(200,740,ls,{
name = topColor;
}),
(147,740,o),
(100,693,o),
(100,640,cs,{
name = shadowColor;
}),
(100,60,l,{
name = shadowBottomColor;
})
);
},
{
closed = 0;
nodes = (
(450,50,l,{
name = shadowBottomColor;
}),
(450,-40,l,{
name = shadowColor;
})
);
},
{
closed = 0;
nodes = (
(130,970,l,{
name = shadowColor;
}),
(130,850,l,{
name = shadowColor;
})
);
},
{
closed = 0;
nodes = (
(450,300,l,{
name = shadowBottomColor;
}),
(450,61,l,{
name = shadowColor;
})
);
}
);
width = 650;
},
{
associatedMasterId = m01;
layerId = "0FFE4ED2-6023-4C84-AC42-C3167908F38C";
name = top;
shapes = (
{
closed = 0;
nodes = (
(550,400,l,{
name = midTopColor;
}),
(300,400,l,{
name = midTopColor;
})
);
},
{
closed = 0;
nodes = (
(480,970,l,{
name = topColor;
}),
(130,970,l,{
name = topColor;
})
);
},
{
closed = 0;
nodes = (
(500,60,l,{
name = midTopColor;
}),
(200,60,l,{
name = shadowColor;
})
);
}
);
width = 650;
},
{
associatedMasterId = m01;
layerId = "A4FBAE46-958F-45DF-839B-9985185F3E80";
name = highlightColor;
shapes = (
{
closed = 0;
nodes = (
(450,740,l),
(200,740,ls),
(147,740,o),
(100,693,o),
(100,640,cs),
(100,190,l)
);
},
{
closed = 0;
nodes = (
(450,300,l),
(450,60,l),
(200,60,l)
);
},
{
closed = 0;
nodes = (
(550,400,l),
(300,400,l),
(300,300,l)
);
},
{
closed = 0;
nodes = (
(480,970,l),
(130,970,l),
(130,870,l)
);
}
);
width = 650;
}
);
metricLeft = H;
metricRight = H;
unicode = 7712;
},
{
glyphname = H;
layers = (
{
layerId = m01;
shapes = (
{
pos = (100,0);
ref = _part.square;
},
{
pos = (100,100);
ref = _part.square;
},
{
pos = (100,300);
ref = _part.square;
},
{
pos = (100,400);
ref = _part.square;
},
{
pos = (200,600);
ref = _part.square;
scale = (-1,1);
},
{
pos = (300,300);
ref = _part.square;
scale = (-1,1);
},
{
pos = (300,300);
ref = _part.square;
},
{
pos = (400,300);
ref = _part.square;
scale = (0.5,1);
},
{
pos = (450,0);
ref = _part.square;
},
{
pos = (450,100);
ref = _part.square;
},
{
pos = (450,300);
ref = _part.square;
},
{
pos = (450,400);
ref = _part.square;
},
{
pos = (450,600);
ref = _part.square;
},
{
pos = (100,500);
ref = _part.square;
},
{
pos = (450,500);
ref = _part.square;
},
{
pos = (100,200);
ref = _part.square;
},
{
pos = (450,200);
ref = _part.square;
}
);
width = 650;
},
{
associatedMasterId = m01;
layerId = "5BB07B42-561E-4270-A853-7E26F5130516";
name = side;
shapes = (
{
closed = 0;
nodes = (
(100,700,l,{
name = shadowColor;
}),
(100,0,l,{
name = shadowBottomColor;
})
);
},
{
closed = 0;
nodes = (
(450,300,l,{
name = shadowBottomColor;
}),
(450,0,l,{
name = shadowColor;
})
);
},
{
closed = 0;
nodes = (
(450,700,l,{
name = shadowColor;
}),
(450,400,l,{
name = shadowColor;
})
);
}
);
width = 650;
},
{
associatedMasterId = m01;
layerId = "A6279EE8-A047-4C8D-ABCA-08F0EBA0DBD2";
name = top;
shapes = (
{
closed = 0;
nodes = (
(200,700,l,{
name = topColor;
}),
(100,700,l,{
name = topColor;
})
);
},
{
closed = 0;
nodes = (
(550,700,l,{
name = topColor;
}),
(450,700,l,{
name = topColor;
})
);
},
{
closed = 0;
nodes = (
(550,400,l,{
name = midTopColor;
}),
(140,400,l,{
name = shadowColor;
})
);
}
);
width = 650;
},
{
associatedMasterId = m01;
layerId = "585F8603-551C-4BE7-A371-D9DEC41B3951";
name = highlightColor;
shapes = (
{
closed = 0;
nodes = (
(200,700,l),
(100,700,l),
(100,160,l)
);
},
{
closed = 0;
nodes = (
(550,700,l),
(450,700,l),
(450,400,l),
(200,400,l)
);
}
);
width = 650;
}
);
unicode = 72;
},
{
glyphname = Hbar;
layers = (
{
layerId = m01;
shapes = (
{
pos = (50,530);
ref = _part.square;
},
{
pos = (600,530);
ref = _part.square;
},
{
pos = (250,530);
ref = _part.square;
scale = (2.5,1);
},
{
pos = (50,0);
ref = H;
}
);
width = 750;
},
{
associatedMasterId = m01;
layerId = "5BB07B42-561E-4270-A853-7E26F5130516";
name = side;
shapes = (
{
closed = 0;
nodes = (
(500,700,l,{
name = shadowColor;
}),
(500,630,l,{
name = shadowColor;
})
);
},
{
closed = 0;
nodes = (
(150,700,l,{
name = shadowColor;
}),
(150,630,l,{
name = shadowColor;
})
);
},
{
closed = 0;
nodes = (
(150,530,l,{
name = shadowBottomColor;
}),
(150,0,l,{
name = shadowColor;
})
);
},
{
closed = 0;
nodes = (
(500,300,l,{
name = shadowBottomColor;
}),
(500,0,l,{
name = shadowColor;
})
);
},
{
closed = 0;
nodes = (
(500,530,l,{
name = shadowBottomColor;
}),
(500,401,l,{
name = shadowColor;
})
);
},
{
closed = 0;
nodes = (
(50,630,l,{
name = shadowColor;
}),
(50,530,l,{
name = shadowColor;
})
);
}
);
width = 750;
},
{
associatedMasterId = m01;
layerId = "A6279EE8-A047-4C8D-ABCA-08F0EBA0DBD2";
name = top;
shapes = (
{
closed = 0;
nodes = (
(250,700,l,{
name = topColor;
}),
(150,700,l,{
name = topColor;
})
);
},
{
closed = 0;
nodes = (
(600,700,l,{
name = topColor;
}),
(500,700,l,{
name = topColor;
})
);
},
{
closed = 0;
nodes = (
(580,400,l,{
name = midTopColor;
}),
(220,400,l,{
name = shadowColor;
})
);
},
{
closed = 0;
nodes = (
(700,630,l,{
name = topColor;
}),
(560,630,l,{
name = shadowColor;
})
);
},
{
closed = 0;
nodes = (
(500,630,l,{
name = topColor;
}),
(230,630,l,{
name = shadowColor;
})
);
},
{
closed = 0;
nodes = (
(200,630,l,{
name = shadowColor;
}),
(50,630,l,{
name = topColor;
})
);
}
);
width = 750;
},
{
associatedMasterId = m01;
layerId = "585F8603-551C-4BE7-A371-D9DEC41B3951";
name = highlightColor;
shapes = (
{
closed = 0;
nodes = (
(250,700,l),
(150,700,l),
(150,630,l)
);
},
{
closed = 0;
nodes = (
(600,700,l),
(500,700,l),
(500,660,l)
);
},
{
closed = 0;
nodes = (
(500,530,l),
(500,400,l),
(250,400,l)
);
},
{
closed = 0;
nodes = (
(120,630,l,{
name = "";
}),
(50,630,l,{
name = "";
}),
(50,530,l,{
name = "";
})
);
},
{
closed = 0;
nodes = (
(500,650,l),
(500,630,l),
(290,630,l)
);
}
);
width = 750;
}
);
unicode = 294;
},
{
glyphname = Hcircumflex;
layers = (
{
layerId = m01;
shapes = (
{
pos = (29,170);
ref = circumflexcomb;
},
{
ref = H;
}
);
width = 650;
},
{
associatedMasterId = m01;
layerId = "5BB07B42-561E-4270-A853-7E26F5130516";
name = side;
shapes = (
{
closed = 0;
nodes = (
(100,700,l,{
name = shadowColor;
}),
(100,0,l,{
name = shadowBottomColor;
})
);
},
{
closed = 0;
nodes = (
(450,300,l,{
name = shadowBottomColor;
}),
(450,0,l,{
name = shadowColor;
})
);
},
{
closed = 0;
nodes = (
(450,700,l,{
name = shadowColor;
}),
(450,400,l,{
name = shadowColor;
})
);
},
{
closed = 0;
nodes = (
(325,1030.4,l,{
name = topColor;
}),
(133,898.1,l,{
name = topBottomColor;
})
);
}
);
width = 650;
},
{
associatedMasterId = m01;
layerId = "A6279EE8-A047-4C8D-ABCA-08F0EBA0DBD2";
name = top;
shapes = (
{
closed = 0;
nodes = (
(250,700,l,{
name = topBottomColor;
}),
(100,700,l,{
name = topColor;
})
);
},
{
closed = 0;
nodes = (
(550,700,l,{
name = topBottomColor;
}),
(450,700,l,{
name = topBottomColor;
})
);
},
{
closed = 0;
nodes = (
(550,400,l,{
name = midTopColor;
}),
(140,400,l,{
name = shadowColor;
})
);
},
{
closed = 0;
nodes = (
(133,898.1,l,{
name = shadowColor;
}),
(188,819.2,l,{
name = shadowColor;
})
);
},
{
closed = 0;
nodes = (
(517,898.1,l,{
name = shadowColor;
}),
(325,1030.4,l,{
name = topBottomColor;
})
);
}
);
width = 650;
},
{
associatedMasterId = m01;
layerId = "585F8603-551C-4BE7-A371-D9DEC41B3951";
name = highlightColor;
shapes = (
{
closed = 0;
nodes = (
(200,700,l),
(100,700,l),
(100,160,l)
);
},
{
closed = 0;
nodes = (
(550,700,l),
(450,700,l),
(450,400,l),
(200,400,l)
);
},
{
closed = 0;
nodes = (
(439.2,951.7,l),
(325,1030.4,l,{
name = "";
}),
(133,898.1,l,{
name = "";
})
);
}
);
width = 650;
}
);
metricLeft = H;
metricRight = H;
unicode = 292;
},
{
glyphname = I;
layers = (
{
layerId = m01;
shapes = (
{
pos = (280,0);
ref = _part.square;
},
{
pos = (280,100);
ref = _part.square;
},
{
pos = (280,200);
ref = _part.square;
},
{
pos = (280,300);
ref = _part.square;
},
{
pos = (280,400);
ref = _part.square;
},
{
pos = (180,600);
ref = _part.square;
},
{
pos = (280,600);
ref = _part.square;
},
{
pos = (380,600);
ref = _part.square;
},
{
pos = (180,0);
ref = _part.square;
},
{
pos = (380,0);
ref = _part.square;
},
{
pos = (280,500);
ref = _part.square;
},
{
pos = (460,600);
ref = _part.square;
},
{
pos = (460,0);
ref = _part.square;
},
{
pos = (100,600);
ref = _part.square;
},
{
pos = (100,0);
ref = _part.square;
}
);
width = 660;
},
{
associatedMasterId = m01;
layerId = "55BEE56A-246E-4DD6-A8EB-C1BB4F2B7546";
name = side;
shapes = (
{
closed = 0;
nodes = (
(100,700,l,{
name = shadowColor;
}),
(100,600,l,{
name = shadowColor;
})
);
},
{
closed = 0;
nodes = (
(280,600,l,{
name = shadowBottomColor;
}),
(280,100,l,{
name = shadowColor;
})
);
},
{
closed = 0;
nodes = (
(100,100,l,{
name = shadowColor;
}),
(100,0,l,{
name = shadowBottomColor;
})
);
}
);
width = 660;
},
{
associatedMasterId = m01;
layerId = "C4EE4B83-14A0-4E92-870F-CC70CEBF13BC";
name = top;
shapes = (
{
closed = 0;
nodes = (
(330,100,l,{
name = shadowColor;
}),
(100,100,l,{
name = midTopColor;
})
);
},
{
closed = 0;
nodes = (
(560,700,l,{
name = topColor;
}),
(100,700,l,{
name = topColor;
})
);
},
{
closed = 0;
nodes = (
(560,100,l,{
name = midTopColor;
}),
(380,100,l,{
name = shadowColor;
})
);
}
);
width = 660;
},
{
associatedMasterId = m01;
layerId = "093722E8-9592-40FC-8032-5E2C5098B9CB";
name = highlightColor;
shapes = (
{
closed = 0;
nodes = (
(280,500,l),
(280,100,l),
(100,100,l)
);
},
{
closed = 0;
nodes = (
(560,100,l),
(472,100,l),
(380,100,l)
);
},
{
closed = 0;
nodes = (
(560,700,l),
(100,700,l),
(100,600,l)
);
}
);
width = 660;
}
);
metricLeft = H;
metricRight = H;
unicode = 73;
},
{
glyphname = IJ;
layers = (
{
layerId = m01;
shapes = (
{
pos = (300,-40);
ref = _part.square;
scale = (0.5,1);
},
{
pos = (450,60);
ref = _part.square;
},
{
pos = (450,200);
ref = _part.square;
},
{
pos = (450,300);
ref = _part.square;
},
{
pos = (450,400);
ref = _part.square;
},
{
pos = (100,600);
ref = _part.square;
},
{
pos = (300,600);
ref = _part.square;
scale = (0.5,1);
},
{
pos = (450,600);
ref = _part.square;
},
{
pos = (200,-40);
ref = _part.square;
},
{
pos = (450,60);
ref = _part.corner;
scale = (1,-1);
},
{
pos = (350,-40);
ref = _part.square;
},
{
pos = (350,700);
ref = _part.corner;
scale = (1,-1);
},
{
angle = 180;
pos = (200,60);
ref = _part.corner;
},
{
pos = (100,60);
ref = _part.square;
},
{
pos = (450,500);
ref = _part.square;
},
{
pos = (100,500);
ref = _part.square;
},
{
pos = (100,400);
ref = _part.square;
},
{
pos = (100,300);
ref = _part.square;
},
{
pos = (450,100);
ref = _part.square;
},
{
pos = (100,100);
ref = _part.square;
}
);
width = 650;
},
{
associatedMasterId = m01;
layerId = "2A8EDBC9-FD57-45D1-AA42-747219A74AB2";
name = side;
shapes = (
{
closed = 0;
nodes = (
(100,200,l,{
name = shadowColor;
}),
(100,60,ls,{
name = shadowBottomColor;
})
);
},
{
closed = 0;
nodes = (
(100,700,l,{
name = shadowColor;
}),
(100,300,l,{
name = shadowBottomColor;
})
);
},
{
closed = 0;
nodes = (
(300,700,l,{
name = shadowColor;
}),
(300,600,l,{
name = shadowColor;
})
);
},
{
closed = 0;
nodes = (
(450,700,l,{
name = shadowBottomColor;
}),
(450,60,l,{
name = shadowColor;
})
);
}
);
width = 650;
},
{
associatedMasterId = m01;
layerId = "8856AFD9-88E8-4BF7-8694-553994670AE2";
name = top;
shapes = (
{
closed = 0;
nodes = (
(200,200,l,{
name = midTopColor;
}),
(100,200,l,{
name = midTopColor;
})
);
},
{
closed = 0;
nodes = (
(200,700,l,{
name = topColor;
}),
(100,700,l,{
name = topColor;
})
);
},
{
closed = 0;
nodes = (
(550,700,l,{
name = topColor;
}),
(300,700,l,{
name = topColor;
})
);
},
{
closed = 0;
nodes = (
(550,60,l,{
name = midTopColor;
}),
(200,60,l,{
name = shadowColor;
})
);
}
);
width = 650;
},
{
associatedMasterId = m01;
layerId = "856D75B3-91D6-4B9D-B145-E7BA9AE86A4C";
name = highlightColor;
shapes = (
{
closed = 0;
nodes = (
(200,200,l),
(100,200,l),
(100,100,ls)
);
},
{
closed = 0;
nodes = (
(200,700,l),
(100,700,l),
(100,400,l)
);
},
{
closed = 0;
nodes = (
(300,600,l),
(300,700,l),
(550,700,l)
);
},
{
closed = 0;
nodes = (
(450,500,l),
(450,60,l),
(200,60,l)
);
}
);
width = 650;
}
);
metricLeft = H;
metricRight = H;
unicode = 306;
},
{
glyphname = Iacute;
layers = (
{
layerId = m01;
shapes = (
{
ref = I;
},
{
pos = (35,199);
ref = acutecomb;
}
);
width = 660;
},
{
associatedMasterId = m01;
layerId = "55BEE56A-246E-4DD6-A8EB-C1BB4F2B7546";
name = side;
shapes = (
{
closed = 0;
nodes = (
(100,700,l,{
name = shadowColor;
}),
(100,600,l,{
name = shadowColor;
})
);
},
{
closed = 0;
nodes = (
(280,600,l,{
name = shadowBottomColor;
}),
(280,100,l,{
name = shadowColor;
})
);
},
{
closed = 0;
nodes = (
(100,100,l,{
name = shadowColor;
}),
(100,0,l,{
name = shadowBottomColor;
})
);
},
{
closed = 0;
nodes = (
(179,896.2,l,{
name = shadowColor;
}),
(232,809.1,l,{
name = shadowColor;
})
);
}
);
width = 660;
},
{
associatedMasterId = m01;
layerId = "C4EE4B83-14A0-4E92-870F-CC70CEBF13BC";
name = top;
shapes = (
{
closed = 0;
nodes = (
(330,100,l,{
name = shadowColor;
}),
(100,100,l,{
name = midTopColor;
})
);
},
{
closed = 0;
nodes = (
(560,700,l,{
name = topBottomColor;
}),
(100,700,l,{
name = topColor;
})
);
},
{
closed = 0;
nodes = (
(560,100,l,{
name = midTopColor;
}),
(380,100,l,{
name = shadowColor;
})
);
},
{
closed = 0;
nodes = (
(418,1028.9,l,{
name = topColor;
}),
(179,896.2,l,{
name = topBottomColor;
})
);
}
);
width = 660;
},
{
associatedMasterId = m01;
layerId = "093722E8-9592-40FC-8032-5E2C5098B9CB";
name = highlightColor;
shapes = (
{
closed = 0;
nodes = (
(280,500,l),
(280,100,l),
(100,100,l)
);
},
{
closed = 0;
nodes = (
(560,100,l),
(472,100,l),
(380,100,l)
);
},
{
closed = 0;
nodes = (
(560,700,l),
(100,700,l),
(100,600,l)
);
},
{
closed = 0;
nodes = (
(418,1028.9,l,{
name = "";
}),
(179,896.2,l,{
name = "";
}),
(232,809.1,l,{
name = "";
})
);
}
);
width = 660;
}
);
metricLeft = H;
metricRight = H;
unicode = 205;
},
{
glyphname = Icircumflex;
layers = (
{
layerId = m01;
shapes = (
{
pos = (34,170);
ref = circumflexcomb;
},
{
ref = I;
}
);
width = 660;
},
{
associatedMasterId = m01;
layerId = "55BEE56A-246E-4DD6-A8EB-C1BB4F2B7546";
name = side;
shapes = (
{
closed = 0;
nodes = (
(100,700,l,{
name = shadowColor;
}),
(100,600,l,{
name = shadowColor;
})
);
},
{
closed = 0;
nodes = (
(280,600,l,{
name = shadowBottomColor;
}),
(280,100,l,{
name = shadowColor;
})
);
},
{
closed = 0;
nodes = (
(100,100,l,{
name = shadowColor;
}),
(100,0,l,{
name = shadowBottomColor;
})
);
},
{
closed = 0;
nodes = (
(330,1030.4,l,{
name = topColor;
}),
(138,898.1,l,{
name = topBottomColor;
})
);
}
);
width = 660;
},
{
associatedMasterId = m01;
layerId = "C4EE4B83-14A0-4E92-870F-CC70CEBF13BC";
name = top;
shapes = (
{
closed = 0;
nodes = (
(330,100,l,{
name = shadowColor;
}),
(100,100,l,{
name = midTopColor;
})
);
},
{
closed = 0;
nodes = (
(560,700,l,{
name = topBottomColor;
}),
(100,700,l,{
name = topColor;
})
);
},
{
closed = 0;
nodes = (
(560,100,l,{
name = midTopColor;
}),
(380,100,l,{
name = shadowColor;
})
);
},
{
closed = 0;
nodes = (
(138,898.1,l,{
name = shadowColor;
}),
(193,819.2,l,{
name = shadowColor;
})
);
},
{
closed = 0;
nodes = (
(522,898.1,l,{
name = shadowColor;
}),
(330,1030.4,l,{
name = topBottomColor;
})
);
}
);
width = 660;
},
{
associatedMasterId = m01;
layerId = "093722E8-9592-40FC-8032-5E2C5098B9CB";
name = highlightColor;
shapes = (
{
closed = 0;
nodes = (
(280,500,l),
(280,100,l),
(100,100,l)
);
},
{
closed = 0;
nodes = (
(560,100,l),
(472,100,l),
(380,100,l)
);
},
{
closed = 0;
nodes = (
(560,700,l),
(100,700,l),
(100,600,l)
);
},
{
closed = 0;
nodes = (
(444.2,951.7,l),
(330,1030.4,l,{
name = "";
}),
(138,898.1,l,{
name = "";
})
);
}
);
width = 660;
}
);
metricLeft = H;
metricRight = H;
unicode = 206;
},
{
glyphname = Idieresis;
layers = (
{
layerId = m01;
shapes = (
{
pos = (130,810);
ref = _part.circle;
scale = (1.4,1.4);
},
{
pos = (380,810);
ref = _part.circle;
scale = (1.4,1.4);
},
{
ref = I;
}
);
width = 660;
},
{
associatedMasterId = m01;
layerId = "55BEE56A-246E-4DD6-A8EB-C1BB4F2B7546";
name = side;
shapes = (
{
closed = 0;
nodes = (
(100,700,l,{
name = shadowColor;
}),
(100,600,l,{
name = shadowColor;
})
);
},
{
closed = 0;
nodes = (
(280,600,l,{
name = shadowBottomColor;
}),
(280,100,l,{
name = shadowColor;
})
);
},
{
closed = 0;
nodes = (
(100,100,l,{
name = shadowColor;
}),
(100,0,l,{
name = shadowBottomColor;
})
);
},
{
closed = 0;
nodes = (
(200,950,l,{
name = topColor;
}),
(159.4,950,o,{
name = "";
}),
(130,920.6,o,{
name = "";
}),
(130,880,cs,{
name = shadowColor;
}),
(130,859.4,o,{
name = "";
}),
(137.6,841.7,o,{
name = "";
}),
(150.3,829.3,c,{
name = shadowBottomColor;
})
);
},
{
closed = 0;
nodes = (
(450,950,l,{
name = topColor;
}),
(409.4,950,o,{
name = "";
}),
(380,920.6,o,{
name = "";
}),
(380,880,cs,{
name = shadowColor;
}),
(380,859.4,o,{
name = "";
}),
(387.6,841.7,o,{
name = "";
}),
(400.3,829.3,c,{
name = shadowBottomColor;
})
);
}
);
width = 660;
},
{
associatedMasterId = m01;
layerId = "C4EE4B83-14A0-4E92-870F-CC70CEBF13BC";
name = top;
shapes = (
{
closed = 0;
nodes = (
(330,100,l,{
name = shadowColor;
}),
(100,100,l,{
name = midTopColor;
})
);
},
{
closed = 0;
nodes = (
(560,700,l,{
name = topBottomColor;
}),
(100,700,l,{
name = topColor;
})
);
},
{
closed = 0;
nodes = (
(560,100,l,{
name = midTopColor;
}),
(380,100,l,{
name = shadowColor;
})
);
}
);
width = 660;
},
{
associatedMasterId = m01;
layerId = "093722E8-9592-40FC-8032-5E2C5098B9CB";
name = highlightColor;
shapes = (
{
closed = 0;
nodes = (
(280,500,l),
(280,100,l),
(100,100,l)
);
},
{
closed = 0;
nodes = (
(560,100,l),
(472,100,l),
(380,100,l)
);
},
{
closed = 0;
nodes = (
(560,700,l),
(100,700,l),
(100,600,l)
);
},
{
closed = 0;
nodes = (
(201,950,l,{
name = "";
}),
(160.4,950,o,{
name = "";
}),
(131,920.6,o,{
name = "";
}),
(131,880,c,{
name = "";
})
);
},
{
closed = 0;
nodes = (
(451,950,l,{
name = "";
}),
(410.4,950,o,{
name = "";
}),
(381,920.6,o,{
name = "";
}),
(381,880,c,{
name = "";
})
);
}
);
width = 660;
}
);
metricLeft = H;
metricRight = H;
unicode = 207;
},
{
glyphname = Idotaccent;
layers = (
{
layerId = m01;
shapes = (
{
pos = (30,200);
ref = dotaccentcomb;
},
{
ref = I;
}
);
width = 660;
},
{
associatedMasterId = m01;
layerId = "55BEE56A-246E-4DD6-A8EB-C1BB4F2B7546";
name = side;
shapes = (
{
closed = 0;
nodes = (
(100,700,l,{
name = shadowColor;
}),
(100,600,l,{
name = shadowColor;
})
);
},
{
closed = 0;
nodes = (
(280,600,l,{
name = shadowBottomColor;
}),
(280,100,l,{
name = shadowColor;
})
);
},
{
closed = 0;
nodes = (
(100,100,l,{
name = shadowColor;
}),
(100,0,l,{
name = shadowBottomColor;
})
);
},
{
closed = 0;
nodes = (
(330,950,l,{
name = topColor;
}),
(289.4,950,o,{
name = "";
}),
(260,920.6,o,{
name = "";
}),
(260,880,cs,{
name = shadowColor;
}),
(260,859.4,o,{
name = "";
}),
(267.6,841.7,o,{
name = "";
}),
(280.3,829.3,c,{
name = shadowBottomColor;
})
);
}
);
width = 660;
},
{
associatedMasterId = m01;
layerId = "C4EE4B83-14A0-4E92-870F-CC70CEBF13BC";
name = top;
shapes = (
{
closed = 0;
nodes = (
(330,100,l,{
name = shadowColor;
}),
(100,100,l,{
name = midTopColor;
})
);
},
{
closed = 0;
nodes = (
(560,700,l,{
name = topColor;
}),
(360.3,700,l,{
name = topBottomColor;
}),
(100,700,l,{
name = topColor;
})
);
},
{
closed = 0;
nodes = (
(560,100,l,{
name = midTopColor;
}),
(380,100,l,{
name = shadowColor;
})
);
}
);
width = 660;
},
{
associatedMasterId = m01;
layerId = "093722E8-9592-40FC-8032-5E2C5098B9CB";
name = highlightColor;
shapes = (
{
closed = 0;
nodes = (
(280,500,l),
(280,100,l),
(100,100,l)
);
},
{
closed = 0;
nodes = (
(560,100,l),
(472,100,l),
(380,100,l)
);
},
{
closed = 0;
nodes = (
(560,700,l),
(100,700,l),
(100,600,l)
);
},
{
closed = 0;
nodes = (
(330,950,l,{
name = "";
}),
(289.4,950,o,{
name = "";
}),
(260,920.6,o,{
name = "";
}),
(260,880,c,{
name = "";
})
);
}
);
width = 660;
}
);
metricLeft = H;
metricRight = H;
unicode = 304;
},
{
glyphname = Igrave;
layers = (
{
layerId = m01;
shapes = (
{
pos = (33,180);
ref = gravecomb;
},
{
ref = I;
}
);
width = 660;
},
{
associatedMasterId = m01;
layerId = "55BEE56A-246E-4DD6-A8EB-C1BB4F2B7546";
name = side;
shapes = (
{
closed = 0;
nodes = (
(100,700,l,{
name = shadowColor;
}),
(100,600,l,{
name = shadowColor;
})
);
},
{
closed = 0;
nodes = (
(280,600,l,{
name = shadowBottomColor;
}),
(280,100,l,{
name = shadowColor;
})
);
},
{
closed = 0;
nodes = (
(100,100,l,{
name = shadowColor;
}),
(100,0,l,{
name = shadowBottomColor;
})
);
},
{
closed = 0;
nodes = (
(198,1077,l,{
name = shadowColor;
}),
(141,1001,l,{
name = shadowColor;
})
);
}
);
width = 660;
},
{
associatedMasterId = m01;
layerId = "C4EE4B83-14A0-4E92-870F-CC70CEBF13BC";
name = top;
shapes = (
{
closed = 0;
nodes = (
(330,100,l,{
name = shadowColor;
}),
(100,100,l,{
name = midTopColor;
})
);
},
{
closed = 0;
nodes = (
(560,700,l,{
name = topBottomColor;
}),
(100,700,l,{
name = topColor;
})
);
},
{
closed = 0;
nodes = (
(560,100,l,{
name = midTopColor;
}),
(380,100,l,{
name = shadowColor;
})
);
},
{
closed = 0;
nodes = (
(548.2,830.1,l,{
name = shadowColor;
}),
(198,1077,l,{
name = topBottomColor;
})
);
}
);
width = 660;
},
{
associatedMasterId = m01;
layerId = "093722E8-9592-40FC-8032-5E2C5098B9CB";
name = highlightColor;
shapes = (
{
closed = 0;
nodes = (
(280,500,l),
(280,100,l),
(100,100,l)
);
},
{
closed = 0;
nodes = (
(560,100,l),
(472,100,l),
(380,100,l)
);
},
{
closed = 0;
nodes = (
(560,700,l),
(100,700,l),
(100,600,l)
);
},
{
closed = 0;
nodes = (
(354.7,966.8,l),
(198,1077,l),
(141,1001,l)
);
}
);
width = 660;
}
);
metricLeft = H;
metricRight = H;
unicode = 204;
},
{
glyphname = Imacron;
layers = (
{
layerId = m01;
shapes = (
{
pos = (130,830);
ref = _part.square;
scale = (3.5,1);
},
{
ref = I;
}
);
width = 660;
},
{
associatedMasterId = m01;
layerId = "55BEE56A-246E-4DD6-A8EB-C1BB4F2B7546";
name = side;
shapes = (
{
closed = 0;
nodes = (
(100,700,l,{
name = shadowColor;
}),
(100,600,l,{
name = shadowColor;
})
);
},
{
closed = 0;
nodes = (
(280,600,l,{
name = shadowBottomColor;
}),
(280,100,l,{
name = shadowColor;
})
);
},
{
closed = 0;
nodes = (
(100,100,l,{
name = shadowColor;
}),
(100,0,l,{
name = shadowBottomColor;
})
);
},
{
closed = 0;
nodes = (
(130,930,l,{
name = shadowColor;
}),
(130,810,l,{
name = shadowColor;
})
);
}
);
width = 660;
},
{
associatedMasterId = m01;
layerId = "C4EE4B83-14A0-4E92-870F-CC70CEBF13BC";
name = top;
shapes = (
{
closed = 0;
nodes = (
(330,100,l,{
name = shadowColor;
}),
(100,100,l,{
name = midTopColor;
})
);
},
{
closed = 0;
nodes = (
(560,700,l,{
name = topBottomColor;
}),
(100,700,l,{
name = topColor;
})
);
},
{
closed = 0;
nodes = (
(560,100,l,{
name = midTopColor;
}),
(380,100,l,{
name = shadowColor;
})
);
},
{
closed = 0;
nodes = (
(480,930,l,{
name = topColor;
}),
(130,930,l,{
name = topColor;
})
);
}
);
width = 660;
},
{
associatedMasterId = m01;
layerId = "093722E8-9592-40FC-8032-5E2C5098B9CB";
name = highlightColor;
shapes = (
{
closed = 0;
nodes = (
(280,500,l),
(280,100,l),
(100,100,l)
);
},
{
closed = 0;
nodes = (
(560,100,l),
(472,100,l),
(380,100,l)
);
},
{
closed = 0;
nodes = (
(560,700,l),
(100,700,l),
(100,600,l)
);
},
{
closed = 0;
nodes = (
(480,930,l),
(130,930,l),
(130,830,l)
);
}
);
width = 660;
}
);
metricLeft = H;
metricRight = H;
unicode = 298;
},
{
glyphname = Iogonek;
layers = (
{
layerId = m01;
shapes = (
{
pos = (460,-100);
ref = _part.corner;
scale = (-1,1);
},
{
angle = 180;
pos = (460,-100);
ref = _part.corner;
},
{
angle = 180;
pos = (560,-100);
ref = _part.square;
},
{
ref = I;
}
);
width = 660;
},
{
associatedMasterId = m01;
layerId = "55BEE56A-246E-4DD6-A8EB-C1BB4F2B7546";
name = side;
shapes = (
{
closed = 0;
nodes = (
(100,700,l,{
name = shadowColor;
}),
(100,600,l,{
name = shadowColor;
})
);
},
{
closed = 0;
nodes = (
(280,600,l,{
name = shadowBottomColor;
}),
(280,100,l,{
name = shadowColor;
})
);
},
{
closed = 0;
nodes = (
(100,100,l,{
name = shadowColor;
}),
(100,0,l,{
name = shadowBottomColor;
})
);
}
);
width = 660;
},
{
associatedMasterId = m01;
layerId = "C4EE4B83-14A0-4E92-870F-CC70CEBF13BC";
name = top;
shapes = (
{
closed = 0;
nodes = (
(330,100,l,{
name = shadowColor;
}),
(100,100,l,{
name = midTopColor;
})
);
},
{
closed = 0;
nodes = (
(560,700,l,{
name = topColor;
}),
(100,700,l,{
name = topColor;
})
);
},
{
closed = 0;
nodes = (
(560,100,l,{
name = midTopColor;
}),
(380,100,l,{
name = shadowColor;
})
);
},
{
closed = 0;
nodes = (
(610,-100,l,{
name = midTopColor;
}),
(460,-100,l,{
name = shadowColor;
})
);
},
{
closed = 0;
nodes = (
(460,0,l,{
name = shadowColor;
}),
(407,0,o),
(360,-47,o),
(360,-100,cs,{
name = shadowColor;
}),
(360,-128,o),
(373,-155,o),
(390,-170,c,{
name = shadowBottomColor;
})
);
}
);
width = 660;
},
{
associatedMasterId = m01;
layerId = "093722E8-9592-40FC-8032-5E2C5098B9CB";
name = highlightColor;
shapes = (
{
closed = 0;
nodes = (
(280,500,l),
(280,100,l),
(100,100,l)
);
},
{
closed = 0;
nodes = (
(560,100,l),
(472,100,l),
(380,100,l)
);
},
{
closed = 0;
nodes = (
(560,700,l),
(100,700,l),
(100,600,l)
);
},
{
closed = 0;
nodes = (
(390,-30,l),
(370,-50,o),
(360,-70,o),
(360,-100,cs),
(360,-128,o),
(373,-155,o),
(390,-170,c)
);
}
);
width = 660;
}
);
metricLeft = H;
metricRight = H;
unicode = 302;
},
{
glyphname = Itilde;
layers = (
{
layerId = m01;
shapes = (
{
pos = (5,134);
ref = tildecomb;
},
{
ref = I;
}
);
width = 660;
},
{
associatedMasterId = m01;
layerId = "55BEE56A-246E-4DD6-A8EB-C1BB4F2B7546";
name = side;
shapes = (
{
closed = 0;
nodes = (
(100,700,l,{
name = shadowColor;
}),
(100,600,l,{
name = shadowColor;
})
);
},
{
closed = 0;
nodes = (
(280,600,l,{
name = shadowBottomColor;
}),
(280,100,l,{
name = shadowColor;
})
);
},
{
closed = 0;
nodes = (
(100,100,l,{
name = shadowColor;
}),
(100,0,l,{
name = shadowBottomColor;
})
);
},
{
closed = 0;
nodes = (
(547,955,l,{
name = topColor;
}),
(468.2,1019.4,l,{
name = frontTopColor;
})
);
},
{
closed = 0;
nodes = (
(393.4,926.4,l,{
name = topBottomColor;
}),
(315,989.1,ls,{
name = topColor;
}),
(263.3,1030.4,o),
(216.2,1030.4,o),
(183.2,989.1,cs,{
name = topBottomColor;
}),
(92,875,l,{
name = shadowColor;
})
);
}
);
width = 660;
},
{
associatedMasterId = m01;
layerId = "C4EE4B83-14A0-4E92-870F-CC70CEBF13BC";
name = top;
shapes = (
{
closed = 0;
nodes = (
(330,100,l,{
name = shadowColor;
}),
(100,100,l,{
name = midTopColor;
})
);
},
{
closed = 0;
nodes = (
(560,700,l,{
name = topBottomColor;
}),
(100,700,l,{
name = topColor;
})
);
},
{
closed = 0;
nodes = (
(560,100,l,{
name = midTopColor;
}),
(380,100,l,{
name = shadowColor;
})
);
},
{
closed = 0;
nodes = (
(468.2,1019.4,l,{
name = topColor;
}),
(367.3,894,l,{
name = shadowColor;
})
);
}
);
width = 660;
},
{
associatedMasterId = m01;
layerId = "093722E8-9592-40FC-8032-5E2C5098B9CB";
name = highlightColor;
shapes = (
{
closed = 0;
nodes = (
(280,500,l),
(280,100,l),
(100,100,l)
);
},
{
closed = 0;
nodes = (
(560,100,l),
(472,100,l),
(380,100,l)
);
},
{
closed = 0;
nodes = (
(560,700,l),
(100,700,l),
(100,600,l)
);
},
{
closed = 0;
nodes = (
(468.2,1019.4,l),
(393.4,926.4,l)
);
},
{
closed = 0;
nodes = (
(315,989.1,l),
(263.3,1030.4,o),
(216.2,1030.4,o),
(183.2,989.1,cs),
(92,875,l)
);
}
);
width = 660;
}
);
metricRight = H;
unicode = 296;
},
{
glyphname = J;
kernRight = O;
layers = (
{
layerId = m01;
shapes = (
{
pos = (300,-40);
ref = _part.square;
scale = (0.5,1);
},
{
pos = (450,60);
ref = _part.square;
},
{
pos = (450,200);
ref = _part.square;
},
{
pos = (450,300);
ref = _part.square;
},
{
pos = (450,400);
ref = _part.square;
},
{
pos = (200,600);
ref = _part.square;
},
{
pos = (300,600);
ref = _part.square;
scale = (0.5,1);
},
{
pos = (450,600);
ref = _part.square;
},
{
pos = (200,-40);
ref = _part.square;
},
{
pos = (450,60);
ref = _part.corner;
scale = (1,-1);
},
{
pos = (350,-40);
ref = _part.square;
},
{
pos = (350,700);
ref = _part.corner;
scale = (1,-1);
},
{
angle = 180;
pos = (200,60);
ref = _part.corner;
},
{
pos = (100,60);
ref = _part.square;
},
{
pos = (100,200);
ref = _part.square;
},
{
pos = (450,500);
ref = _part.square;
},
{
pos = (450,100);
ref = _part.square;
},
{
pos = (100,100);
ref = _part.square;
}
);
width = 650;
},
{
associatedMasterId = m01;
layerId = "0FC5E8EF-8F1E-4DE6-ABC2-8DFF0D744A61";
name = side;
shapes = (
{
closed = 0;
nodes = (
(450,700,l,{
name = shadowBottomColor;
}),
(450,60,l,{
name = shadowColor;
})
);
},
{
closed = 0;
nodes = (
(200,700,l,{
name = shadowColor;
}),
(200,600,l,{
name = shadowColor;
})
);
},
{
closed = 0;
nodes = (
(100,300,l,{
name = shadowColor;
}),
(100,60,l,{
name = shadowBottomColor;
})
);
}
);
width = 650;
},
{
associatedMasterId = m01;
layerId = "18438908-CED8-4CDD-9F5F-5BDD6962EDDF";
name = top;
shapes = (
{
closed = 0;
nodes = (
(550,700,l,{
name = topColor;
}),
(200,700,l,{
name = topColor;
})
);
},
{
closed = 0;
nodes = (
(200,300,l,{
name = midTopColor;
}),
(100,300,l,{
name = midTopColor;
})
);
},
{
closed = 0;
nodes = (
(550,60,l,{
name = midTopColor;
}),
(200,60,l,{
name = shadowColor;
})
);
}
);
width = 650;
},
{
associatedMasterId = m01;
layerId = "93BB84E3-731F-4138-A651-9C1D69E514E9";
name = highlightColor;
shapes = (
{
closed = 0;
nodes = (
(200,300,l),
(100,300,l),
(100,60,ls)
);
},
{
closed = 0;
nodes = (
(550,700,l),
(200,700,l),
(200,600,l)
);
},
{
closed = 0;
nodes = (
(450,500,l),
(450,60,l),
(200,60,l)
);
}
);
width = 650;
}
);
metricLeft = H;
metricRight = H;
unicode = 74;
},
{
glyphname = Jacute;
kernRight = O;
layers = (
{
layerId = m01;
shapes = (
{
ref = J;
},
{
pos = (65,199);
ref = acutecomb;
}
);
width = 650;
},
{
associatedMasterId = m01;
layerId = "0FC5E8EF-8F1E-4DE6-ABC2-8DFF0D744A61";
name = side;
shapes = (
{
closed = 0;
nodes = (
(450,700,l,{
name = shadowBottomColor;
}),
(450,60,l,{
name = shadowColor;
})
);
},
{
closed = 0;
nodes = (
(200,700,l,{
name = shadowColor;
}),
(200,600,l,{
name = shadowColor;
})
);
},
{
closed = 0;
nodes = (
(100,300,l,{
name = shadowColor;
}),
(100,60,l,{
name = shadowBottomColor;
})
);
},
{
closed = 0;
nodes = (
(209,896.2,l,{
name = shadowColor;
}),
(262,809.1,l,{
name = shadowColor;
})
);
}
);
width = 650;
},
{
associatedMasterId = m01;
layerId = "18438908-CED8-4CDD-9F5F-5BDD6962EDDF";
name = top;
shapes = (
{
closed = 0;
nodes = (
(550,700,l,{
name = topBottomColor;
}),
(200,700,l,{
name = topColor;
})
);
},
{
closed = 0;
nodes = (
(200,300,l,{
name = midTopColor;
}),
(100,300,l,{
name = midTopColor;
})
);
},
{
closed = 0;
nodes = (
(550,60,l,{
name = midTopColor;
}),
(200,60,l,{
name = shadowColor;
})
);
},
{
closed = 0;
nodes = (
(448,1028.9,l,{
name = topColor;
}),
(209,896.2,l,{
name = topBottomColor;
})
);
}
);
width = 650;
},
{
associatedMasterId = m01;
layerId = "93BB84E3-731F-4138-A651-9C1D69E514E9";
name = highlightColor;
shapes = (
{
closed = 0;
nodes = (
(200,300,l),
(100,300,l),
(100,60,ls)
);
},
{
closed = 0;
nodes = (
(550,700,l),
(200,700,l),
(200,600,l)
);
},
{
closed = 0;
nodes = (
(450,500,l),
(450,60,l),
(200,60,l)
);
},
{
closed = 0;
nodes = (
(448,1028.9,l,{
name = "";
}),
(209,896.2,l,{
name = "";
}),
(262,809.1,l,{
name = "";
})
);
}
);
width = 650;
}
);
metricLeft = H;
},
{
glyphname = Jcircumflex;
kernRight = O;
layers = (
{
layerId = m01;
shapes = (
{
ref = J;
},
{
pos = (79,170);
ref = circumflexcomb;
}
);
width = 650;
},
{
associatedMasterId = m01;
layerId = "0FC5E8EF-8F1E-4DE6-ABC2-8DFF0D744A61";
name = side;
shapes = (
{
closed = 0;
nodes = (
(450,700,l,{
name = shadowBottomColor;
}),
(450,60,l,{
name = shadowColor;
})
);
},
{
closed = 0;
nodes = (
(200,700,l,{
name = shadowColor;
}),
(200,600,l,{
name = shadowColor;
})
);
},
{
closed = 0;
nodes = (
(100,300,l,{
name = shadowColor;
}),
(100,60,l,{
name = shadowBottomColor;
})
);
},
{
closed = 0;
nodes = (
(375,1030.4,l,{
name = topColor;
}),
(183,898.1,l,{
name = topBottomColor;
})
);
}
);
width = 650;
},
{
associatedMasterId = m01;
layerId = "18438908-CED8-4CDD-9F5F-5BDD6962EDDF";
name = top;
shapes = (
{
closed = 0;
nodes = (
(550,700,l,{
name = topBottomColor;
}),
(200,700,l,{
name = topColor;
})
);
},
{
closed = 0;
nodes = (
(200,300,l,{
name = midTopColor;
}),
(100,300,l,{
name = midTopColor;
})
);
},
{
closed = 0;
nodes = (
(550,60,l,{
name = midTopColor;
}),
(200,60,l,{
name = shadowColor;
})
);
},
{
closed = 0;
nodes = (
(183,898.1,l,{
name = shadowColor;
}),
(238,819.2,l,{
name = shadowColor;
})
);
},
{
closed = 0;
nodes = (
(567,898.1,l,{
name = shadowColor;
}),
(375,1030.4,l,{
name = topBottomColor;
})
);
}
);
width = 650;
},
{
associatedMasterId = m01;
layerId = "93BB84E3-731F-4138-A651-9C1D69E514E9";
name = highlightColor;
shapes = (
{
closed = 0;
nodes = (
(200,300,l),
(100,300,l),
(100,60,ls)
);
},
{
closed = 0;
nodes = (
(550,700,l),
(200,700,l),
(200,600,l)
);
},
{
closed = 0;
nodes = (
(450,500,l),
(450,60,l),
(200,60,l)
);
},
{
closed = 0;
nodes = (
(489.2,951.7,l),
(375,1030.4,l,{
name = "";
}),
(183,898.1,l,{
name = "";
})
);
}
);
width = 650;
}
);
metricLeft = H;
unicode = 308;
},
{
glyphname = K;
layers = (
{
layerId = m01;
shapes = (
{
pos = (100,0);
ref = _part.square;
},
{
pos = (100,100);
ref = _part.square;
},
{
pos = (100,300);
ref = _part.square;
},
{
pos = (100,400);
ref = _part.square;
},
{
pos = (300,300);
ref = _part.square;
scale = (-1,1);
},
{
pos = (300,300);
ref = _part.square;
},
{
pos = (100,500);
ref = _part.square;
},
{
pos = (100,600);
ref = _part.square;
},
{
pos = (450,100);
ref = _part.square;
scale = (1,-1);
},
{
pos = (450,100);
ref = _part.square;
},
{
pos = (450,300);
ref = _part.corner;
},
{
pos = (450,500);
ref = _part.corner;
scale = (1,-1);
},
{
pos = (450,500);
ref = _part.square;
},
{
pos = (450,600);
ref = _part.square;
},
{
pos = (400,300);
ref = _part.square;
scale = (0.5,1);
},
{
pos = (100,200);
ref = _part.square;
},
{
pos = (450,200);
ref = _part.square;
}
);
width = 650;
},
{
associatedMasterId = m01;
layerId = "2FE8F371-E62E-40FD-9D5B-69F4C2DCF7F9";
name = side;
shapes = (
{
closed = 0;
nodes = (
(450,300,l,{
name = shadowBottomColor;
}),
(450,0,l,{
name = shadowColor;
})
);
},
{
closed = 0;
nodes = (
(100,700,l,{
name = shadowColor;
}),
(100,0,l,{
name = shadowBottomColor;
})
);
},
{
closed = 0;
nodes = (
(450,700,l,{
name = shadowColor;
}),
(450,370,l,{
name = shadowBottomColor;
})
);
},
{
closed = 0;
nodes = (
(520,370,l,{
name = midTopColor;
}),
(500,390,o),
(480,400,o),
(450,400,c,{
name = shadowColor;
})
);
}
);
width = 650;
},
{
associatedMasterId = m01;
layerId = "2E644F71-C771-4536-B6A4-3F8D6F14C1C0";
name = top;
shapes = (
{
closed = 0;
nodes = (
(550,700,l,{
name = topColor;
}),
(450,700,l,{
name = topColor;
})
);
},
{
closed = 0;
nodes = (
(200,700,l,{
name = topColor;
}),
(100,700,l,{
name = topColor;
})
);
},
{
closed = 0;
nodes = (
(460,400,l,{
name = midTopColor;
}),
(200,400,l,{
name = shadowColor;
})
);
}
);
width = 650;
},
{
associatedMasterId = m01;
layerId = "D8CF50E8-B896-4A1B-BA92-FEB8719735D8";
name = highlightColor;
shapes = (
{
closed = 0;
nodes = (
(550,700,l),
(450,700,l),
(450,400,l),
(200,400,l)
);
},
{
closed = 0;
nodes = (
(200,700,l),
(100,700,l),
(100,200,l)
);
}
);
width = 650;
}
);
metricLeft = H;
metricRight = H;
unicode = 75;
},
{
glyphname = Kcommaaccent;
layers = (
{
layerId = m01;
shapes = (
{
ref = K;
},
{
pos = (0,50);
ref = commaaccentcomb;
}
);
width = 650;
},
{
associatedMasterId = m01;
layerId = "2FE8F371-E62E-40FD-9D5B-69F4C2DCF7F9";
name = side;
shapes = (
{
closed = 0;
nodes = (
(450,300,l,{
name = shadowBottomColor;
}),
(450,0,l,{
name = shadowColor;
})
);
},
{
closed = 0;
nodes = (
(100,700,l,{
name = shadowColor;
}),
(100,0,l,{
name = shadowBottomColor;
})
);
},
{
closed = 0;
nodes = (
(450,700,l,{
name = shadowColor;
}),
(450,370,l,{
name = shadowBottomColor;
})
);
},
{
closed = 0;
nodes = (
(520,370,l,{
name = midTopColor;
}),
(500,390,o),
(480,400,o),
(450,400,c,{
name = shadowColor;
})
);
},
{
closed = 0;
nodes = (
(330,-50,l,{
name = shadowColor;
}),
(283.6,-50,o),
(250,-83.6,o),
(250,-130,cs,{
name = shadowBottomColor;
}),
(250,-157.2,o),
(261.5,-180,o),
(280.4,-194.2,c,{
name = shadowBottomColor;
})
);
}
);
width = 650;
},
{
associatedMasterId = m01;
layerId = "2E644F71-C771-4536-B6A4-3F8D6F14C1C0";
name = top;
shapes = (
{
closed = 0;
nodes = (
(550,700,l,{
name = topColor;
}),
(450,700,l,{
name = topColor;
})
);
},
{
closed = 0;
nodes = (
(200,700,l,{
name = topColor;
}),
(100,700,l,{
name = topColor;
})
);
},
{
closed = 0;
nodes = (
(460,400,l,{
name = midTopColor;
}),
(200,400,l,{
name = shadowColor;
})
);
},
{
closed = 0;
nodes = (
(330,-192,l,{
name = shadowBottomColor;
}),
(330,-290,l,{
name = shadowColor;
})
);
}
);
width = 650;
},
{
associatedMasterId = m01;
layerId = "D8CF50E8-B896-4A1B-BA92-FEB8719735D8";
name = highlightColor;
shapes = (
{
closed = 0;
nodes = (
(550,700,l),
(450,700,l),
(450,400,l),
(200,400,l)
);
},
{
closed = 0;
nodes = (
(200,700,l),
(100,700,l),
(100,200,l)
);
},
{
closed = 0;
nodes = (
(330,-50,l,{
name = "";
}),
(283.6,-50,o,{
name = "";
}),
(250,-83.6,o,{
name = "";
}),
(250,-130,c,{
name = "";
})
);
}
);
width = 650;
}
);
metricLeft = H;
metricRight = H;
unicode = 310;
},
{
glyphname = L;
kernRight = L;
layers = (
{
layerId = m01;
shapes = (
{
pos = (100,60);
ref = _part.square;
},
{
pos = (100,200);
ref = _part.square;
},
{
pos = (100,300);
ref = _part.square;
},
{
pos = (100,400);
ref = _part.square;
},
{
pos = (100,500);
ref = _part.square;
},
{
pos = (200,-40);
ref = _part.square;
},
{
pos = (300,-40);
ref = _part.square;
},
{
pos = (400,-40);
ref = _part.square;
scale = (0.5,1);
},
{
angle = 180;
pos = (200,60);
ref = _part.corner;
},
{
pos = (100,600);
ref = _part.square;
},
{
pos = (100,100);
ref = _part.square;
},
{
pos = (100,700);
ref = _part.square;
},
{
pos = (100,750);
ref = _part.square;
}
);
width = 550;
},
{
associatedMasterId = m01;
layerId = "852E2F17-4E0B-4A54-8518-2FADA965201D";
name = side;
shapes = (
{
closed = 0;
nodes = (
(100,850,l,{
name = shadowColor;
}),
(100,60,ls,{
name = shadowBottomColor;
})
);
}
);
width = 550;
},
{
associatedMasterId = m01;
layerId = "C5487AA0-F86A-48E8-A1FB-1432211887E5";
name = top;
shapes = (
{
closed = 0;
nodes = (
(450,60,l,{
name = midTopColor;
}),
(200,60,l,{
name = shadowColor;
})
);
},
{
closed = 0;
nodes = (
(200,850,l,{
name = topColor;
}),
(100,850,l,{
name = topColor;
})
);
}
);
width = 550;
},
{
associatedMasterId = m01;
layerId = "6091D937-1047-40EF-A9D1-7698E053A8A9";
name = highlightColor;
shapes = (
{
closed = 0;
nodes = (
(200,850,l),
(100,850,l),
(100,60,ls)
);
},
{
closed = 0;
nodes = (
(450,60,l),
(320,60,l),
(200,60,l)
);
}
);
width = 550;
}
);
metricLeft = H;
unicode = 76;
},
{
glyphname = Lacute;
kernRight = L;
layers = (
{
layerId = m01;
shapes = (
{
ref = L;
},
{
pos = (-75,299);
ref = acutecomb;
}
);
width = 550;
},
{
associatedMasterId = m01;
layerId = "852E2F17-4E0B-4A54-8518-2FADA965201D";
name = side;
shapes = (
{
closed = 0;
nodes = (
(100,850,l,{
name = shadowColor;
}),
(100,60,ls,{
name = shadowBottomColor;
})
);
},
{
closed = 0;
nodes = (
(69,996.2,l,{
name = shadowColor;
}),
(122,909.1,l,{
name = shadowColor;
})
);
}
);
width = 550;
},
{
associatedMasterId = m01;
layerId = "C5487AA0-F86A-48E8-A1FB-1432211887E5";
name = top;
shapes = (
{
closed = 0;
nodes = (
(450,60,l,{
name = midTopColor;
}),
(200,60,l,{
name = shadowColor;
})
);
},
{
closed = 0;
nodes = (
(250,850,l,{
name = topBottomColor;
}),
(70,850,l,{
name = topColor;
})
);
},
{
closed = 0;
nodes = (
(308,1128.9,l,{
name = topColor;
}),
(69,996.2,l,{
name = topBottomColor;
})
);
}
);
width = 550;
},
{
associatedMasterId = m01;
layerId = "6091D937-1047-40EF-A9D1-7698E053A8A9";
name = highlightColor;
shapes = (
{
closed = 0;
nodes = (
(200,850,l),
(100,850,l),
(100,60,ls)
);
},
{
closed = 0;
nodes = (
(450,60,l),
(320,60,l),
(200,60,l)
);
},
{
closed = 0;
nodes = (
(308,1128.9,l,{
name = "";
}),
(69,996.2,l,{
name = "";
}),
(122,909.1,l,{
name = "";
})
);
}
);
width = 550;
}
);
unicode = 313;
},
{
glyphname = Lcaron;
kernRight = L;
layers = (
{
layerId = m01;
shapes = (
{
angle = 180;
pos = (400,650);
ref = _part.corner;
},
{
pos = (300,750);
ref = _part.square;
},
{
pos = (300,650);
ref = _part.square;
},
{
ref = L;
}
);
width = 550;
},
{
associatedMasterId = m01;
layerId = "852E2F17-4E0B-4A54-8518-2FADA965201D";
name = side;
shapes = (
{
closed = 0;
nodes = (
(100,850,l,{
name = shadowColor;
}),
(100,60,ls,{
name = shadowBottomColor;
})
);
},
{
closed = 0;
nodes = (
(300,850,l,{
name = shadowColor;
}),
(300,650,ls,{
name = shadowColor;
}),
(300,623.1,o),
(312.1,597.8,o),
(330.9,579.4,c,{
name = shadowBottomColor;
})
);
}
);
width = 550;
},
{
associatedMasterId = m01;
layerId = "C5487AA0-F86A-48E8-A1FB-1432211887E5";
name = top;
shapes = (
{
closed = 0;
nodes = (
(450,60,l,{
name = midTopColor;
}),
(200,60,l,{
name = shadowColor;
})
);
},
{
closed = 0;
nodes = (
(200,850,l,{
name = topColor;
}),
(100,850,l,{
name = topColor;
})
);
},
{
closed = 0;
nodes = (
(400,850,l,{
name = topColor;
}),
(300,850,l,{
name = topColor;
})
);
}
);
width = 550;
},
{
associatedMasterId = m01;
layerId = "6091D937-1047-40EF-A9D1-7698E053A8A9";
name = highlightColor;
shapes = (
{
closed = 0;
nodes = (
(200,850,l),
(100,850,l),
(100,60,ls)
);
},
{
closed = 0;
nodes = (
(450,60,l),
(320,60,l),
(200,60,l)
);
},
{
closed = 0;
nodes = (
(400,850,l),
(300,850,l),
(300,650,l)
);
}
);
width = 550;
}
);
metricLeft = H;
unicode = 317;
},
{
glyphname = Lcommaaccent;
kernRight = L;
layers = (
{
layerId = m01;
shapes = (
{
ref = L;
},
{
pos = (-80,10);
ref = commaaccentcomb;
}
);
width = 550;
},
{
associatedMasterId = m01;
layerId = "852E2F17-4E0B-4A54-8518-2FADA965201D";
name = side;
shapes = (
{
closed = 0;
nodes = (
(100,850,l,{
name = shadowColor;
}),
(100,60,ls,{
name = shadowBottomColor;
})
);
},
{
closed = 0;
nodes = (
(250,-90,l,{
name = shadowColor;
}),
(203.6,-90,o),
(170,-123.6,o),
(170,-170,cs,{
name = shadowBottomColor;
}),
(170,-197.2,o),
(181.5,-220,o),
(200.4,-234.2,c,{
name = shadowBottomColor;
})
);
}
);
width = 550;
},
{
associatedMasterId = m01;
layerId = "C5487AA0-F86A-48E8-A1FB-1432211887E5";
name = top;
shapes = (
{
closed = 0;
nodes = (
(450,60,l,{
name = midTopColor;
}),
(200,60,l,{
name = shadowColor;
})
);
},
{
closed = 0;
nodes = (
(200,850,l,{
name = topColor;
}),
(100,850,l,{
name = topColor;
})
);
},
{
closed = 0;
nodes = (
(250,-232,l,{
name = shadowBottomColor;
}),
(250,-330,l,{
name = shadowColor;
})
);
}
);
width = 550;
},
{
associatedMasterId = m01;
layerId = "6091D937-1047-40EF-A9D1-7698E053A8A9";
name = highlightColor;
shapes = (
{
closed = 0;
nodes = (
(200,850,l),
(100,850,l),
(100,60,ls)
);
},
{
closed = 0;
nodes = (
(450,60,l),
(200,60,l)
);
},
{
closed = 0;
nodes = (
(250,-90,l,{
name = "";
}),
(203.6,-90,o,{
name = "";
}),
(170,-123.6,o,{
name = "";
}),
(170,-170,c,{
name = "";
})
);
}
);
width = 550;
}
);
metricLeft = H;
unicode = 315;
},
{
glyphname = Lslash;
layers = (
{
layerId = m01;
shapes = (
{
pos = (250,340);
ref = _part.square;
},
{
pos = (50,240);
ref = _part.square;
},
{
pos = (50,0);
ref = L;
}
);
width = 600;
},
{
associatedMasterId = m01;
layerId = "852E2F17-4E0B-4A54-8518-2FADA965201D";
name = side;
shapes = (
{
closed = 0;
nodes = (
(150,850,l,{
name = shadowColor;
}),
(150,340,l,{
name = shadowBottomColor;
})
);
},
{
closed = 0;
nodes = (
(50,340,l,{
name = shadowColor;
}),
(50,240,l,{
name = shadowColor;
})
);
},
{
closed = 0;
nodes = (
(150,240,l,{
name = shadowBottomColor;
}),
(150,60,ls,{
name = shadowColor;
})
);
}
);
width = 550;
},
{
associatedMasterId = m01;
layerId = "C5487AA0-F86A-48E8-A1FB-1432211887E5";
name = top;
shapes = (
{
closed = 0;
nodes = (
(500,60,l,{
name = midTopColor;
}),
(250,60,l,{
name = shadowColor;
})
);
},
{
closed = 0;
nodes = (
(250,850,l,{
name = topColor;
}),
(150,850,l,{
name = topColor;
})
);
},
{
closed = 0;
nodes = (
(350,440,l,{
name = midTopColor;
}),
(220,440,l,{
name = shadowColor;
})
);
},
{
closed = 0;
nodes = (
(190,340,l,{
name = shadowColor;
}),
(50,340,l,{
name = midTopColor;
})
);
}
);
width = 550;
},
{
associatedMasterId = m01;
layerId = "6091D937-1047-40EF-A9D1-7698E053A8A9";
name = highlightColor;
shapes = (
{
closed = 0;
nodes = (
(250,850,l),
(150,850,l),
(150,340,l)
);
},
{
closed = 0;
nodes = (
(500,60,l),
(370,60,l),
(250,60,l)
);
},
{
closed = 0;
nodes = (
(110,340,l),
(50,340,l),
(50,240,l)
);
}
);
width = 550;
}
);
unicode = 321;
},
{
glyphname = M;
layers = (
{
layerId = m01;
shapes = (
{
pos = (100,100);
ref = _part.square;
},
{
pos = (100,400);
ref = _part.square;
},
{
pos = (350,300);
ref = _part.square;
},
{
pos = (350,400);
ref = _part.square;
},
{
pos = (200,640);
ref = _part.square;
scale = (1.5,1);
},
{
pos = (100,0);
ref = _part.square;
},
{
pos = (350,0);
ref = _part.square;
},
{
pos = (100,200);
ref = _part.square;
},
{
pos = (100,300);
ref = _part.square;
},
{
pos = (350,100);
ref = _part.square;
},
{
pos = (350,200);
ref = _part.square;
},
{
pos = (200,640);
ref = _part.corner;
scale = (-1,1);
},
{
pos = (600,300);
ref = _part.square;
},
{
pos = (600,400);
ref = _part.square;
},
{
pos = (600,640);
ref = _part.corner;
},
{
pos = (600,0);
ref = _part.square;
},
{
pos = (600,100);
ref = _part.square;
},
{
pos = (600,200);
ref = _part.square;
},
{
pos = (450,640);
ref = _part.square;
scale = (-1,1);
},
{
pos = (600,640);
ref = _part.square;
scale = (-1.5,1);
},
{
pos = (100,500);
ref = _part.square;
},
{
pos = (350,500);
ref = _part.square;
},
{
pos = (600,500);
ref = _part.square;
},
{
pos = (100,540);
ref = _part.square;
},
{
pos = (350,540);
ref = _part.square;
},
{
pos = (600,540);
ref = _part.square;
}
);
width = 800;
},
{
associatedMasterId = m01;
layerId = "3AC84568-D63D-4AF8-8702-0A17C3889192";
name = side;
shapes = (
{
closed = 0;
nodes = (
(600,640,l,{
name = shadowBottomColor;
}),
(600,50,l,{
name = shadowColor;
})
);
},
{
closed = 0;
nodes = (
(350,640,l,{
name = shadowBottomColor;
}),
(350,50,l,{
name = shadowColor;
})
);
},
{
closed = 0;
nodes = (
(600,740,l,{
name = topColor;
}),
(200,740,l,{
name = topColor;
}),
(142,738,o),
(100,691,o),
(100,640,c,{
name = shadowColor;
}),
(100,0,l,{
name = shadowBottomColor;
})
);
}
);
width = 800;
},
{
associatedMasterId = m01;
layerId = "27E3982A-3C49-4446-AC97-826B020C6322";
name = top;
width = 800;
},
{
associatedMasterId = m01;
layerId = "02E5E079-F19D-4EC4-8542-26A8C0A61071";
name = highlightColor;
shapes = (
{
closed = 0;
nodes = (
(600,740,l),
(200,740,ls),
(147,740,o),
(100,693,o),
(100,640,cs),
(100,200,l)
);
}
);
width = 800;
}
);
metricLeft = H;
metricRight = H;
unicode = 77;
},
{
glyphname = N;
layers = (
{
layerId = m01;
shapes = (
{
pos = (100,100);
ref = _part.square;
},
{
pos = (100,400);
ref = _part.square;
},
{
pos = (350,600);
ref = _part.corner;
},
{
pos = (100,0);
ref = _part.square;
},
{
pos = (100,200);
ref = _part.square;
},
{
pos = (100,300);
ref = _part.square;
},
{
pos = (200,600);
ref = _part.square;
scale = (-1,1);
},
{
pos = (600,100);
ref = _part.square;
scale = (1,-1);
},
{
pos = (600,300);
ref = _part.square;
},
{
pos = (600,400);
ref = _part.square;
},
{
pos = (600,100);
ref = _part.square;
},
{
pos = (600,200);
ref = _part.square;
},
{
pos = (100,500);
ref = _part.square;
},
{
pos = (600,500);
ref = _part.square;
},
{
angle = 180;
pos = (450,100);
ref = _part.corner;
},
{
pos = (350,300);
ref = _part.square;
},
{
pos = (350,400);
ref = _part.square;
},
{
pos = (350,100);
ref = _part.square;
},
{
pos = (350,200);
ref = _part.square;
},
{
pos = (350,500);
ref = _part.square;
},
{
pos = (450,0);
ref = _part.square;
scale = (1.5,1);
},
{
pos = (600,600);
ref = _part.square;
},
{
pos = (200,600);
ref = _part.square;
scale = (1.5,1);
}
);
width = 800;
},
{
associatedMasterId = m01;
layerId = "5741736B-BCAE-4924-ACB5-6C1B1A2F47B0";
name = side;
shapes = (
{
closed = 0;
nodes = (
(600,700,l,{
name = shadowColor;
}),
(600,100,l,{
name = shadowBottomColor;
})
);
},
{
closed = 0;
nodes = (
(100,700,l,{
name = shadowColor;
}),
(100,0,l,{
name = shadowBottomColor;
})
);
},
{
closed = 0;
nodes = (
(350,600,l,{
name = shadowBottomColor;
}),
(350,100,l,{
name = shadowColor;
})
);
}
);
width = 800;
},
{
associatedMasterId = m01;
layerId = "6DB2CB06-3C8E-4854-BDE6-44B05588C16B";
name = top;
shapes = (
{
closed = 0;
nodes = (
(700,700,l,{
name = topColor;
}),
(600,700,l,{
name = topColor;
})
);
},
{
closed = 0;
nodes = (
(350,700,l,{
name = topColor;
}),
(100,700,l,{
name = topColor;
})
);
},
{
closed = 0;
nodes = (
(750,100,l,{
name = midTopColor;
}),
(450,100,l,{
name = shadowColor;
})
);
}
);
width = 800;
},
{
associatedMasterId = m01;
layerId = "562187E4-9B97-4768-B045-31CEAF9F8EAF";
name = highlightColor;
shapes = (
{
closed = 0;
nodes = (
(700,700,l),
(600,700,l),
(600,100,l),
(450,100,l)
);
},
{
closed = 0;
nodes = (
(350,700,l),
(100,700,l),
(100,150,l)
);
}
);
width = 800;
}
);
metricLeft = H;
metricRight = H;
unicode = 78;
},
{
glyphname = Nacute;
layers = (
{
layerId = m01;
shapes = (
{
ref = N;
},
{
pos = (95,199);
ref = acutecomb;
}
);
width = 800;
},
{
associatedMasterId = m01;
layerId = "5741736B-BCAE-4924-ACB5-6C1B1A2F47B0";
name = side;
shapes = (
{
closed = 0;
nodes = (
(600,700,l,{
name = shadowColor;
}),
(600,100,l,{
name = shadowBottomColor;
})
);
},
{
closed = 0;
nodes = (
(100,700,l,{
name = shadowColor;
}),
(100,0,l,{
name = shadowBottomColor;
})
);
},
{
closed = 0;
nodes = (
(350,600,l,{
name = shadowBottomColor;
}),
(350,100,l,{
name = shadowColor;
})
);
},
{
closed = 0;
nodes = (
(239,896.2,l,{
name = shadowColor;
}),
(292,809.1,l,{
name = shadowColor;
})
);
}
);
width = 800;
},
{
associatedMasterId = m01;
layerId = "6DB2CB06-3C8E-4854-BDE6-44B05588C16B";
name = top;
shapes = (
{
closed = 0;
nodes = (
(700,700,l,{
name = topBottomColor;
}),
(600,700,l,{
name = topBottomColor;
})
);
},
{
closed = 0;
nodes = (
(350,700,l,{
name = topBottomColor;
}),
(100,700,l,{
name = topColor;
})
);
},
{
closed = 0;
nodes = (
(750,100,l,{
name = midTopColor;
}),
(450,100,l,{
name = shadowColor;
})
);
},
{
closed = 0;
nodes = (
(478,1028.9,l,{
name = topColor;
}),
(239,896.2,l,{
name = topBottomColor;
})
);
}
);
width = 800;
},
{
associatedMasterId = m01;
layerId = "562187E4-9B97-4768-B045-31CEAF9F8EAF";
name = highlightColor;
shapes = (
{
closed = 0;
nodes = (
(700,700,l),
(600,700,l),
(600,100,l),
(450,100,l)
);
},
{
closed = 0;
nodes = (
(350,700,l),
(100,700,l),
(100,150,l)
);
},
{
closed = 0;
nodes = (
(478,1028.9,l,{
name = "";
}),
(239,896.2,l,{
name = "";
}),
(292,809.1,l,{
name = "";
})
);
}
);
width = 800;
}
);
metricLeft = H;
metricRight = H;
unicode = 323;
},
{
glyphname = Ncaron;
layers = (
{
layerId = m01;
shapes = (
{
pos = (93,165);
ref = caroncomb;
},
{
ref = N;
}
);
width = 800;
},
{
associatedMasterId = m01;
layerId = "5741736B-BCAE-4924-ACB5-6C1B1A2F47B0";
name = side;
shapes = (
{
closed = 0;
nodes = (
(600,700,l,{
name = shadowColor;
}),
(600,100,l,{
name = shadowBottomColor;
})
);
},
{
closed = 0;
nodes = (
(100,700,l,{
name = shadowColor;
}),
(100,0,l,{
name = shadowBottomColor;
})
);
},
{
closed = 0;
nodes = (
(350,600,l,{
name = shadowBottomColor;
}),
(350,100,l,{
name = shadowColor;
})
);
},
{
closed = 0;
nodes = (
(530.9,1018.4,l,{
name = topColor;
}),
(338,885.2,l,{
name = shadowColor;
})
);
},
{
closed = 0;
nodes = (
(257,1018.4,l,{
name = shadowColor;
}),
(205,947.5,l,{
name = shadowColor;
})
);
}
);
width = 800;
},
{
associatedMasterId = m01;
layerId = "6DB2CB06-3C8E-4854-BDE6-44B05588C16B";
name = top;
shapes = (
{
closed = 0;
nodes = (
(700,700,l,{
name = topBottomColor;
}),
(600,700,l,{
name = topBottomColor;
})
);
},
{
closed = 0;
nodes = (
(350,700,l,{
name = topBottomColor;
}),
(100,700,l,{
name = topColor;
})
);
},
{
closed = 0;
nodes = (
(750,100,l,{
name = midTopColor;
}),
(450,100,l,{
name = shadowColor;
})
);
},
{
closed = 0;
nodes = (
(394,923.8,l,{
name = topBottomColor;
}),
(257,1018.4,l,{
name = midTopColor;
})
);
}
);
width = 800;
},
{
associatedMasterId = m01;
layerId = "562187E4-9B97-4768-B045-31CEAF9F8EAF";
name = highlightColor;
shapes = (
{
closed = 0;
nodes = (
(700,700,l),
(600,700,l),
(600,100,l),
(450,100,l)
);
},
{
closed = 0;
nodes = (
(350,700,l),
(100,700,l),
(100,150,l)
);
},
{
closed = 0;
nodes = (
(530.9,1018.4,l),
(394,923.8,l)
);
},
{
closed = 0;
nodes = (
(371,939.4,l),
(257,1018.4,l),
(205,947.5,l)
);
}
);
width = 800;
}
);
metricLeft = H;
metricRight = H;
unicode = 327;
},
{
glyphname = Ncommaaccent;
layers = (
{
layerId = m01;
shapes = (
{
ref = N;
},
{
pos = (70,50);
ref = commaaccentcomb;
}
);
width = 800;
},
{
associatedMasterId = m01;
layerId = "5741736B-BCAE-4924-ACB5-6C1B1A2F47B0";
name = side;
shapes = (
{
closed = 0;
nodes = (
(600,700,l,{
name = shadowColor;
}),
(600,100,l,{
name = shadowBottomColor;
})
);
},
{
closed = 0;
nodes = (
(100,700,l,{
name = shadowColor;
}),
(100,0,l,{
name = shadowBottomColor;
})
);
},
{
closed = 0;
nodes = (
(350,600,l,{
name = shadowBottomColor;
}),
(350,100,l,{
name = shadowColor;
})
);
},
{
closed = 0;
nodes = (
(400,-50,l,{
name = shadowColor;
}),
(353.6,-50,o),
(320,-83.6,o),
(320,-130,cs,{
name = shadowBottomColor;
}),
(320,-157.2,o),
(331.5,-180,o),
(350.4,-194.2,c,{
name = shadowBottomColor;
})
);
}
);
width = 800;
},
{
associatedMasterId = m01;
layerId = "6DB2CB06-3C8E-4854-BDE6-44B05588C16B";
name = top;
shapes = (
{
closed = 0;
nodes = (
(700,700,l,{
name = topColor;
}),
(600,700,l,{
name = topColor;
})
);
},
{
closed = 0;
nodes = (
(350,700,l,{
name = topColor;
}),
(100,700,l,{
name = topColor;
})
);
},
{
closed = 0;
nodes = (
(750,100,l,{
name = midTopColor;
}),
(450,100,l,{
name = shadowColor;
})
);
},
{
closed = 0;
nodes = (
(400,-192,l,{
name = shadowBottomColor;
}),
(400,-290,l,{
name = shadowColor;
})
);
}
);
width = 800;
},
{
associatedMasterId = m01;
layerId = "562187E4-9B97-4768-B045-31CEAF9F8EAF";
name = highlightColor;
shapes = (
{
closed = 0;
nodes = (
(700,700,l),
(600,700,l),
(600,100,l),
(450,100,l)
);
},
{
closed = 0;
nodes = (
(350,700,l),
(100,700,l),
(100,150,l)
);
},
{
closed = 0;
nodes = (
(400,-50,l,{
name = "";
}),
(353.6,-50,o,{
name = "";
}),
(320,-83.6,o,{
name = "";
}),
(320,-130,c,{
name = "";
})
);
}
);
width = 800;
}
);
metricLeft = H;
metricRight = H;
unicode = 325;
},
{
glyphname = Ntilde;
layers = (
{
layerId = m01;
shapes = (
{
ref = N;
},
{
pos = (65,134);
ref = tildecomb;
}
);
width = 800;
},
{
associatedMasterId = m01;
layerId = "5741736B-BCAE-4924-ACB5-6C1B1A2F47B0";
name = side;
shapes = (
{
closed = 0;
nodes = (
(600,700,l,{
name = shadowColor;
}),
(600,100,l,{
name = shadowBottomColor;
})
);
},
{
closed = 0;
nodes = (
(100,700,l,{
name = shadowColor;
}),
(100,0,l,{
name = shadowBottomColor;
})
);
},
{
closed = 0;
nodes = (
(350,600,l,{
name = shadowBottomColor;
}),
(350,100,l,{
name = shadowColor;
})
);
},
{
closed = 0;
nodes = (
(607,955,l,{
name = topColor;
}),
(528.2,1019.4,l,{
name = frontTopColor;
})
);
},
{
closed = 0;
nodes = (
(453.4,926.4,l,{
name = topBottomColor;
}),
(375,989.1,ls,{
name = topColor;
}),
(323.3,1030.4,o),
(276.2,1030.4,o),
(243.2,989.1,cs,{
name = topBottomColor;
}),
(152,875,l,{
name = shadowColor;
})
);
}
);
width = 800;
},
{
associatedMasterId = m01;
layerId = "6DB2CB06-3C8E-4854-BDE6-44B05588C16B";
name = top;
shapes = (
{
closed = 0;
nodes = (
(700,700,l,{
name = topBottomColor;
}),
(600,700,l,{
name = topBottomColor;
})
);
},
{
closed = 0;
nodes = (
(350,700,l,{
name = topBottomColor;
}),
(100,700,l,{
name = topColor;
})
);
},
{
closed = 0;
nodes = (
(750,100,l,{
name = midTopColor;
}),
(450,100,l,{
name = shadowColor;
})
);
},
{
closed = 0;
nodes = (
(528.2,1019.4,l,{
name = topColor;
}),
(427.3,894,l,{
name = shadowColor;
})
);
}
);
width = 800;
},
{
associatedMasterId = m01;
layerId = "562187E4-9B97-4768-B045-31CEAF9F8EAF";
name = highlightColor;
shapes = (
{
closed = 0;
nodes = (
(700,700,l),
(600,700,l),
(600,100,l),
(450,100,l)
);
},
{
closed = 0;
nodes = (
(350,700,l),
(100,700,l),
(100,150,l)
);
},
{
closed = 0;
nodes = (
(528.2,1019.4,l),
(453.4,926.4,l)
);
},
{
closed = 0;
nodes = (
(375,989.1,l),
(323.3,1030.4,o),
(276.2,1030.4,o),
(243.2,989.1,cs),
(152,875,l)
);
}
);
width = 800;
}
);
metricLeft = H;
metricRight = H;
unicode = 209;
},
{
glyphname = Eng;
layers = (
{
layerId = m01;
shapes = (
{
pos = (600,-100);
ref = _part.square;
},
{
pos = (500,-200);
ref = _part.square;
},
{
pos = (600,-100);
ref = _part.corner;
scale = (1,-1);
},
{
ref = N;
}
);
width = 800;
},
{
associatedMasterId = m01;
layerId = "5741736B-BCAE-4924-ACB5-6C1B1A2F47B0";
name = side;
shapes = (
{
closed = 0;
nodes = (
(600,700,l,{
name = shadowColor;
}),
(600,100,l,{
name = shadowBottomColor;
})
);
},
{
closed = 0;
nodes = (
(100,700,l,{
name = shadowColor;
}),
(100,0,l,{
name = shadowBottomColor;
})
);
},
{
closed = 0;
nodes = (
(350,600,l,{
name = shadowBottomColor;
}),
(350,100,l,{
name = shadowColor;
})
);
},
{
closed = 0;
nodes = (
(600,0,l,{
name = shadowBottomColor;
}),
(600,-100,l,{
name = shadowColor;
})
);
},
{
closed = 0;
nodes = (
(500,-100,l,{
name = shadowBottomColor;
}),
(500,-200,l,{
name = shadowBottomColor;
})
);
}
);
width = 800;
},
{
associatedMasterId = m01;
layerId = "6DB2CB06-3C8E-4854-BDE6-44B05588C16B";
name = top;
shapes = (
{
closed = 0;
nodes = (
(700,700,l,{
name = topColor;
}),
(600,700,l,{
name = topColor;
})
);
},
{
closed = 0;
nodes = (
(350,700,l,{
name = topColor;
}),
(100,700,l,{
name = topColor;
})
);
},
{
closed = 0;
nodes = (
(750,100,l,{
name = midTopColor;
}),
(450,100,l,{
name = shadowColor;
})
);
},
{
closed = 0;
nodes = (
(590,-100,l,{
name = shadowBottomColor;
}),
(500,-100,l,{
name = shadowColor;
})
);
}
);
width = 800;
},
{
associatedMasterId = m01;
layerId = "562187E4-9B97-4768-B045-31CEAF9F8EAF";
name = highlightColor;
shapes = (
{
closed = 0;
nodes = (
(700,700,l),
(600,700,l),
(600,100,l),
(450,100,l)
);
},
{
closed = 0;
nodes = (
(350,700,l),
(100,700,l),
(100,150,l)
);
},
{
closed = 0;
nodes = (
(600,-100,l),
(500,-100,l),
(500,-200,l)
);
}
);
width = 800;
}
);
metricLeft = H;
metricRight = H;
unicode = 330;
},
{
glyphname = O;
kernLeft = O;
kernRight = O;
layers = (
{
layerId = m01;
shapes = (
{
pos = (200,640);
ref = _part.corner;
scale = (-1,1);
},
{
pos = (100,60);
ref = _part.square;
},
{
pos = (100,200);
ref = _part.square;
},
{
pos = (100,300);
ref = _part.square;
},
{
pos = (100,400);
ref = _part.square;
},
{
pos = (450,640);
ref = _part.corner;
},
{
pos = (450,60);
ref = _part.square;
},
{
pos = (450,200);
ref = _part.square;
},
{
pos = (450,300);
ref = _part.square;
},
{
pos = (450,400);
ref = _part.square;
},
{
angle = 180;
pos = (200,60);
ref = _part.corner;
},
{
pos = (450,60);
ref = _part.corner;
scale = (1,-1);
},
{
pos = (300,-40);
ref = _part.square;
},
{
pos = (200,-40);
ref = _part.square;
},
{
pos = (300,640);
ref = _part.square;
},
{
pos = (200,640);
ref = _part.square;
},
{
pos = (100,500);
ref = _part.square;
},
{
pos = (450,500);
ref = _part.square;
},
{
pos = (100,100);
ref = _part.square;
},
{
pos = (450,100);
ref = _part.square;
},
{
pos = (100,540);
ref = _part.square;
},
{
pos = (450,540);
ref = _part.square;
},
{
pos = (400,-40);
ref = _part.square;
scale = (0.5,1);
},
{
pos = (400,640);
ref = _part.square;
scale = (0.5,1);
}
);
width = 650;
},
{
associatedMasterId = m01;
layerId = "10B63CF4-5522-4E07-8E10-CFE4820A53FD";
name = side;
shapes = (
{
closed = 0;
nodes = (
(450,640,l,{
name = shadowBottomColor;
}),
(450,60,l,{
name = shadowColor;
})
);
},
{
closed = 0;
nodes = (
(450,740,l,{
name = topColor;
}),
(200,740,l,{
name = topColor;
}),
(151,740,o),
(100,696,o),
(100,640,c,{
name = shadowColor;
}),
(100,60,l,{
name = shadowBottomColor;
})
);
}
);
width = 650;
},
{
associatedMasterId = m01;
layerId = "208566FE-B55F-44D3-AA81-52447B841A83";
name = top;
shapes = (
{
closed = 0;
nodes = (
(550,60,l,{
name = midTopColor;
}),
(200,60,l,{
name = shadowColor;
})
);
}
);
width = 650;
},
{
associatedMasterId = m01;
layerId = "6DFAC5CD-CB97-4FBA-9364-96010D8BAA51";
name = highlightColor;
shapes = (
{
closed = 0;
nodes = (
(450,740,l),
(200,740,ls),
(146,740,o),
(100,692,o),
(100,640,cs),
(100,190,l)
);
},
{
closed = 0;
nodes = (
(450,640,l),
(450,60,l),
(200,60,l)
);
}
);
width = 650;
}
);
metricLeft = H;
metricRight = H;
unicode = 79;
},
{
glyphname = Oacute;
kernLeft = O;
kernRight = O;
layers = (
{
layerId = m01;
shapes = (
{
ref = O;
},
{
pos = (25,239);
ref = acutecomb;
}
);
width = 650;
},
{
associatedMasterId = m01;
layerId = "10B63CF4-5522-4E07-8E10-CFE4820A53FD";
name = side;
shapes = (
{
closed = 0;
nodes = (
(450,640,l,{
name = shadowBottomColor;
}),
(450,60,l,{
name = shadowColor;
})
);
},
{
closed = 0;
nodes = (
(450,740,l,{
name = topBottomColor;
}),
(200,740,l,{
name = topColor;
}),
(151,740,o),
(100,696,o),
(100,640,c,{
name = shadowColor;
}),
(100,60,l,{
name = shadowBottomColor;
})
);
},
{
closed = 0;
nodes = (
(169,936.2,l,{
name = shadowColor;
}),
(222,849.1,l,{
name = shadowColor;
})
);
}
);
width = 650;
},
{
associatedMasterId = m01;
layerId = "208566FE-B55F-44D3-AA81-52447B841A83";
name = top;
shapes = (
{
closed = 0;
nodes = (
(550,60,l,{
name = midTopColor;
}),
(200,60,l,{
name = shadowColor;
})
);
},
{
closed = 0;
nodes = (
(408,1068.9,l,{
name = topColor;
}),
(169,936.2,l,{
name = topBottomColor;
})
);
}
);
width = 650;
},
{
associatedMasterId = m01;
layerId = "6DFAC5CD-CB97-4FBA-9364-96010D8BAA51";
name = highlightColor;
shapes = (
{
closed = 0;
nodes = (
(450,740,l),
(200,740,ls),
(150,740,o),
(100,690,o),
(100,640,cs),
(100,190,l)
);
},
{
closed = 0;
nodes = (
(450,640,l),
(450,60,l),
(200,60,l)
);
},
{
closed = 0;
nodes = (
(408,1068.9,l,{
name = "";
}),
(169,936.2,l,{
name = "";
}),
(222,849.1,l,{
name = "";
})
);
}
);
width = 650;
}
);
metricLeft = H;
metricRight = H;
unicode = 211;
},
{
glyphname = Ocircumflex;
kernLeft = O;
kernRight = O;
layers = (
{
layerId = m01;
shapes = (
{
pos = (29,210);
ref = circumflexcomb;
},
{
ref = O;
}
);
width = 650;
},
{
associatedMasterId = m01;
layerId = "10B63CF4-5522-4E07-8E10-CFE4820A53FD";
name = side;
shapes = (
{
closed = 0;
nodes = (
(450,640,l,{
name = shadowBottomColor;
}),
(450,60,l,{
name = shadowColor;
})
);
},
{
closed = 0;
nodes = (
(450,740,l,{
name = topBottomColor;
}),
(200,740,l,{
name = topColor;
}),
(151,740,o),
(100,696,o),
(100,640,c,{
name = shadowColor;
}),
(100,60,l,{
name = shadowBottomColor;
})
);
},
{
closed = 0;
nodes = (
(325,1070.4,l,{
name = topColor;
}),
(133,938.1,l,{
name = topBottomColor;
})
);
}
);
width = 650;
},
{
associatedMasterId = m01;
layerId = "208566FE-B55F-44D3-AA81-52447B841A83";
name = top;
shapes = (
{
closed = 0;
nodes = (
(550,60,l,{
name = midTopColor;
}),
(200,60,l,{
name = shadowColor;
})
);
},
{
closed = 0;
nodes = (
(133,938.1,l,{
name = shadowColor;
}),
(188,859.2,l,{
name = shadowColor;
})
);
},
{
closed = 0;
nodes = (
(517,938.1,l,{
name = shadowColor;
}),
(325,1070.4,l,{
name = topBottomColor;
})
);
}
);
width = 650;
},
{
associatedMasterId = m01;
layerId = "6DFAC5CD-CB97-4FBA-9364-96010D8BAA51";
name = highlightColor;
shapes = (
{
closed = 0;
nodes = (
(450,740,l),
(200,740,ls),
(150,740,o),
(100,690,o),
(100,640,cs),
(100,190,l)
);
},
{
closed = 0;
nodes = (
(450,640,l),
(450,60,l),
(200,60,l)
);
},
{
closed = 0;
nodes = (
(439.2,991.7,l),
(325,1070.4,l,{
name = "";
}),
(133,938.1,l,{
name = "";
})
);
}
);
width = 650;
}
);
metricLeft = H;
metricRight = H;
unicode = 212;
},
{
glyphname = Odieresis;
kernLeft = O;
kernRight = O;
layers = (
{
layerId = m01;
shapes = (
{
pos = (130,850);
ref = _part.circle;
scale = (1.4,1.4);
},
{
pos = (380,850);
ref = _part.circle;
scale = (1.4,1.4);
},
{
ref = O;
}
);
width = 650;
},
{
associatedMasterId = m01;
layerId = "10B63CF4-5522-4E07-8E10-CFE4820A53FD";
name = side;
shapes = (
{
closed = 0;
nodes = (
(450,640,l,{
name = shadowBottomColor;
}),
(450,60,l,{
name = shadowColor;
})
);
},
{
closed = 0;
nodes = (
(450,740,l,{
name = topBottomColor;
}),
(200,740,l,{
name = topColor;
}),
(151,740,o),
(100,696,o),
(100,640,c,{
name = shadowColor;
}),
(100,60,l,{
name = shadowBottomColor;
})
);
},
{
closed = 0;
nodes = (
(200,990,l,{
name = topColor;
}),
(159.4,990,o,{
name = "";
}),
(130,960.6,o,{
name = "";
}),
(130,920,cs,{
name = shadowColor;
}),
(130,899.4,o,{
name = "";
}),
(137.6,881.7,o,{
name = "";
}),
(150.3,869.3,c,{
name = shadowBottomColor;
})
);
},
{
closed = 0;
nodes = (
(450,990,l,{
name = topColor;
}),
(409.4,990,o,{
name = "";
}),
(380,960.6,o,{
name = "";
}),
(380,920,cs,{
name = shadowColor;
}),
(380,899.4,o,{
name = "";
}),
(387.6,881.7,o,{
name = "";
}),
(400.3,869.3,c,{
name = shadowBottomColor;
})
);
}
);
width = 650;
},
{
associatedMasterId = m01;
layerId = "208566FE-B55F-44D3-AA81-52447B841A83";
name = top;
shapes = (
{
closed = 0;
nodes = (
(550,60,l,{
name = midTopColor;
}),
(200,60,l,{
name = shadowColor;
})
);
}
);
width = 650;
},
{
associatedMasterId = m01;
layerId = "6DFAC5CD-CB97-4FBA-9364-96010D8BAA51";
name = highlightColor;
shapes = (
{
closed = 0;
nodes = (
(450,740,l),
(200,740,ls),
(150,740,o),
(100,690,o),
(100,640,cs),
(100,190,l)
);
},
{
closed = 0;
nodes = (
(450,640,l),
(450,60,l),
(200,60,l)
);
},
{
closed = 0;
nodes = (
(201,990,l,{
name = "";
}),
(160.4,990,o,{
name = "";
}),
(131,960.6,o,{
name = "";
}),
(131,920,c,{
name = "";
})
);
},
{
closed = 0;
nodes = (
(451,990,l,{
name = "";
}),
(410.4,990,o,{
name = "";
}),
(381,960.6,o,{
name = "";
}),
(381,920,c,{
name = "";
})
);
}
);
width = 650;
}
);
metricLeft = H;
metricRight = H;
unicode = 214;
},
{
glyphname = Ograve;
kernLeft = O;
kernRight = O;
layers = (
{
layerId = m01;
shapes = (
{
pos = (28,220);
ref = gravecomb;
},
{
ref = O;
}
);
width = 650;
},
{
associatedMasterId = m01;
layerId = "10B63CF4-5522-4E07-8E10-CFE4820A53FD";
name = side;
shapes = (
{
closed = 0;
nodes = (
(450,640,l,{
name = shadowBottomColor;
}),
(450,60,l,{
name = shadowColor;
})
);
},
{
closed = 0;
nodes = (
(450,740,l,{
name = topBottomColor;
}),
(200,740,l,{
name = topColor;
}),
(151,740,o),
(100,696,o),
(100,640,c,{
name = shadowColor;
}),
(100,60,l,{
name = shadowBottomColor;
})
);
},
{
closed = 0;
nodes = (
(194,1117,l,{
name = shadowColor;
}),
(137,1041,l,{
name = shadowColor;
})
);
}
);
width = 650;
},
{
associatedMasterId = m01;
layerId = "208566FE-B55F-44D3-AA81-52447B841A83";
name = top;
shapes = (
{
closed = 0;
nodes = (
(550,60,l,{
name = midTopColor;
}),
(200,60,l,{
name = shadowColor;
})
);
},
{
closed = 0;
nodes = (
(543.2,870.1,l,{
name = shadowColor;
}),
(193,1117,l,{
name = topBottomColor;
})
);
}
);
width = 650;
},
{
associatedMasterId = m01;
layerId = "6DFAC5CD-CB97-4FBA-9364-96010D8BAA51";
name = highlightColor;
shapes = (
{
closed = 0;
nodes = (
(450,740,l),
(200,740,ls),
(150,740,o),
(100,690,o),
(100,640,cs),
(100,190,l)
);
},
{
closed = 0;
nodes = (
(450,640,l),
(450,60,l),
(200,60,l)
);
},
{
closed = 0;
nodes = (
(349.7,1006.8,l),
(193,1117,l),
(136,1041,l)
);
}
);
width = 650;
}
);
metricLeft = H;
metricRight = H;
unicode = 210;
},
{
glyphname = Ohungarumlaut;
kernLeft = O;
kernRight = O;
layers = (
{
layerId = m01;
shapes = (
{
ref = O;
},
{
pos = (30,214.1);
ref = hungarumlautcomb;
}
);
width = 650;
},
{
associatedMasterId = m01;
layerId = "10B63CF4-5522-4E07-8E10-CFE4820A53FD";
name = side;
shapes = (
{
closed = 0;
nodes = (
(450,640,l,{
name = shadowBottomColor;
}),
(450,60,l,{
name = shadowColor;
})
);
},
{
closed = 0;
nodes = (
(450,740,l,{
name = topBottomColor;
}),
(200,740,l,{
name = topColor;
}),
(151,740,o),
(100,696,o),
(100,640,c,{
name = shadowColor;
}),
(100,60,l,{
name = shadowBottomColor;
})
);
},
{
closed = 0;
nodes = (
(470,1059,l,{
name = topColor;
}),
(342,914,l,{
name = shadowColor;
})
);
},
{
closed = 0;
nodes = (
(240,1059,l,{
name = topColor;
}),
(112,914,l,{
name = topBottomColor;
})
);
}
);
width = 650;
},
{
associatedMasterId = m01;
layerId = "208566FE-B55F-44D3-AA81-52447B841A83";
name = top;
shapes = (
{
closed = 0;
nodes = (
(550,60,l,{
name = midTopColor;
}),
(200,60,l,{
name = shadowColor;
})
);
},
{
closed = 0;
nodes = (
(549,994,l,{
name = shadowColor;
}),
(470,1058,l,{
name = midTopColor;
})
);
},
{
closed = 0;
nodes = (
(319,994,l,{
name = shadowColor;
}),
(240,1058,l,{
name = midTopColor;
})
);
}
);
width = 650;
},
{
associatedMasterId = m01;
layerId = "6DFAC5CD-CB97-4FBA-9364-96010D8BAA51";
name = highlightColor;
shapes = (
{
closed = 0;
nodes = (
(450,740,l),
(200,740,ls),
(148,740,o),
(100,693,o),
(100,640,cs),
(100,190,l)
);
},
{
closed = 0;
nodes = (
(450,640,l),
(450,60,l),
(200,60,l)
);
},
{
closed = 0;
nodes = (
(549,994,l,{
name = "";
}),
(470,1058,l,{
name = "";
}),
(342,913,l)
);
},
{
closed = 0;
nodes = (
(319,994,l,{
name = "";
}),
(240,1058,l,{
name = "";
}),
(112,913,l)
);
}
);
width = 650;
}
);
metricLeft = H;
metricRight = H;
unicode = 336;
},
{
glyphname = Omacron;
kernLeft = O;
kernRight = O;
layers = (
{
layerId = m01;
shapes = (
{
pos = (130,870);
ref = _part.square;
scale = (3.5,1);
},
{
ref = O;
}
);
width = 650;
},
{
associatedMasterId = m01;
layerId = "10B63CF4-5522-4E07-8E10-CFE4820A53FD";
name = side;
shapes = (
{
closed = 0;
nodes = (
(450,640,l,{
name = shadowBottomColor;
}),
(450,60,l,{
name = shadowColor;
})
);
},
{
closed = 0;
nodes = (
(450,740,l,{
name = topBottomColor;
}),
(200,740,l,{
name = topColor;
}),
(151,740,o),
(100,696,o),
(100,640,c,{
name = shadowColor;
}),
(100,60,l,{
name = shadowBottomColor;
})
);
},
{
closed = 0;
nodes = (
(130,970,l,{
name = shadowColor;
}),
(130,850,l,{
name = shadowColor;
})
);
}
);
width = 650;
},
{
associatedMasterId = m01;
layerId = "208566FE-B55F-44D3-AA81-52447B841A83";
name = top;
shapes = (
{
closed = 0;
nodes = (
(550,60,l,{
name = midTopColor;
}),
(200,60,l,{
name = shadowColor;
})
);
},
{
closed = 0;
nodes = (
(480,970,l,{
name = topColor;
}),
(130,970,l,{
name = topColor;
})
);
}
);
width = 650;
},
{
associatedMasterId = m01;
layerId = "6DFAC5CD-CB97-4FBA-9364-96010D8BAA51";
name = highlightColor;
shapes = (
{
closed = 0;
nodes = (
(450,740,l),
(200,740,ls),
(150,740,o),
(100,690,o),
(100,640,cs),
(100,190,l)
);
},
{
closed = 0;
nodes = (
(450,640,l),
(450,60,l),
(200,60,l)
);
},
{
closed = 0;
nodes = (
(480,970,l),
(130,970,l),
(130,870,l)
);
}
);
width = 650;
}
);
metricLeft = H;
metricRight = H;
unicode = 332;
},
{
glyphname = Oslash;
kernLeft = O;
layers = (
{
layerId = m01;
shapes = (
{
pos = (200,600);
ref = _part.corner;
scale = (-1,1);
},
{
angle = 180;
pos = (200,200);
ref = _part.corner;
},
{
pos = (100,200);
ref = _part.square;
},
{
pos = (100,300);
ref = _part.square;
},
{
pos = (100,400);
ref = _part.square;
},
{
pos = (250,600);
ref = _part.corner;
},
{
pos = (450,100);
ref = _part.square;
},
{
pos = (450,200);
ref = _part.square;
},
{
pos = (450,300);
ref = _part.square;
},
{
pos = (450,500);
ref = _part.corner;
},
{
angle = 180;
pos = (400,100);
ref = _part.corner;
},
{
pos = (450,100);
ref = _part.corner;
scale = (1,-1);
},
{
pos = (400,0);
ref = _part.square;
scale = (0.5,1);
},
{
pos = (200,600);
ref = _part.square;
scale = (0.5,1);
},
{
pos = (200,100);
ref = _part.corner;
scale = (1,-1);
},
{
pos = (450,600);
ref = _part.corner;
scale = (-1,1);
},
{
pos = (100,100);
ref = _part.square;
scale = (1,-1);
},
{
pos = (550,600);
ref = _part.square;
scale = (-1,1);
},
{
pos = (100,500);
ref = _part.square;
},
{
pos = (450,400);
ref = _part.square;
},
{
pos = (270,300);
ref = _part.square;
scale = (1.1,1);
}
);
width = 650;
},
{
associatedMasterId = m01;
layerId = "76824EC3-F0FD-438E-87B7-5B41EDBD08CD";
name = side;
shapes = (
{
closed = 0;
nodes = (
(250,700,l,{
name = topColor;
}),
(200,700,ls,{
name = topColor;
}),
(147,700,o),
(100,653,o),
(100,600,cs,{
name = shadowColor;
}),
(100,200,ls,{
name = shadowBottomColor;
})
);
},
{
closed = 0;
nodes = (
(100,100,l,{
name = shadowColor;
}),
(100,0,l,{
name = shadowBottomColor;
})
);
},
{
closed = 0;
nodes = (
(270,400,l,{
name = shadowColor;
}),
(270,300,l,{
name = shadowColor;
})
);
},
{
closed = 0;
nodes = (
(450,600,l,{
name = shadowBottomColor;
}),
(450,100,l,{
name = shadowColor;
})
);
}
);
width = 650;
},
{
associatedMasterId = m01;
layerId = "ABF3328B-30B6-44FB-BE17-146E080B8CB2";
name = top;
shapes = (
{
closed = 0;
nodes = (
(380,400,l,{
name = midTopColor;
}),
(270,400,l,{
name = midTopColor;
})
);
},
{
closed = 0;
nodes = (
(550,700,l,{
name = topColor;
}),
(450,700,ls,{
name = topColor;
}),
(397,700,o),
(350,653,o),
(350,600,c,{
name = shadowColor;
})
);
},
{
closed = 0;
nodes = (
(550,500,l,{
name = shadowColor;
}),
(550,553,o),
(503,600,o),
(450,600,c,{
name = shadowBottomColor;
})
);
},
{
closed = 0;
nodes = (
(290,100,l,{
name = shadowColor;
}),
(100,100,l,{
name = shadowColor;
})
);
},
{
closed = 0;
nodes = (
(550,100,l,{
name = midTopColor;
}),
(300,100,l,{
name = shadowColor;
})
);
}
);
width = 650;
},
{
associatedMasterId = m01;
layerId = "A7E2B0E6-0EFE-46AD-BA3F-5FBC5D7751D1";
name = highlightColor;
shapes = (
{
closed = 0;
nodes = (
(250,700,l),
(200,700,ls),
(147,700,o),
(100,653,o),
(100,600,cs),
(100,200,ls)
);
},
{
closed = 0;
nodes = (
(380,400,l),
(270,400,l),
(270,300,l)
);
},
{
closed = 0;
nodes = (
(450,600,l),
(450,100,l),
(100,100,l),
(100,0,l)
);
},
{
closed = 0;
nodes = (
(550,700,l),
(450,700,ls),
(397,700,o),
(350,653,o),
(350,600,c)
);
}
);
width = 650;
}
);
metricLeft = H;
metricRight = H;
unicode = 216;
},
{
glyphname = Otilde;
kernLeft = O;
kernRight = O;
layers = (
{
layerId = m01;
shapes = (
{
ref = O;
},
{
pos = (0,174);
ref = tildecomb;
}
);
width = 650;
},
{
associatedMasterId = m01;
layerId = "10B63CF4-5522-4E07-8E10-CFE4820A53FD";
name = side;
shapes = (
{
closed = 0;
nodes = (
(450,640,l,{
name = shadowBottomColor;
}),
(450,60,l,{
name = shadowColor;
})
);
},
{
closed = 0;
nodes = (
(450,740,l,{
name = topBottomColor;
}),
(200,740,l,{
name = topColor;
}),
(151,740,o),
(100,696,o),
(100,640,c,{
name = shadowColor;
}),
(100,60,l,{
name = shadowBottomColor;
})
);
},
{
closed = 0;
nodes = (
(542,995,l,{
name = topColor;
}),
(463.2,1059.4,l,{
name = frontTopColor;
})
);
},
{
closed = 0;
nodes = (
(388.4,966.4,l,{
name = topBottomColor;
}),
(310,1029.1,ls,{
name = topColor;
}),
(258.3,1070.4,o),
(211.2,1070.4,o),
(178.2,1029.1,cs,{
name = topBottomColor;
}),
(87,915,l,{
name = shadowColor;
})
);
}
);
width = 650;
},
{
associatedMasterId = m01;
layerId = "208566FE-B55F-44D3-AA81-52447B841A83";
name = top;
shapes = (
{
closed = 0;
nodes = (
(550,60,l,{
name = midTopColor;
}),
(200,60,l,{
name = shadowColor;
})
);
},
{
closed = 0;
nodes = (
(463.2,1059.4,l,{
name = topColor;
}),
(362.3,934,l,{
name = shadowColor;
})
);
}
);
width = 650;
},
{
associatedMasterId = m01;
layerId = "6DFAC5CD-CB97-4FBA-9364-96010D8BAA51";
name = highlightColor;
shapes = (
{
closed = 0;
nodes = (
(450,740,l),
(200,740,ls),
(150,740,o),
(100,690,o),
(100,640,cs),
(100,190,l)
);
},
{
closed = 0;
nodes = (
(450,640,l),
(450,60,l),
(200,60,l)
);
},
{
closed = 0;
nodes = (
(463.2,1059.4,l),
(388.4,966.4,l)
);
},
{
closed = 0;
nodes = (
(310,1029.1,l),
(258.3,1070.4,o),
(211.2,1070.4,o),
(178.2,1029.1,cs),
(87,915,l)
);
}
);
width = 650;
}
);
metricRight = H;
unicode = 213;
},
{
glyphname = OE;
kernLeft = O;
layers = (
{
layerId = m01;
shapes = (
{
angle = 180;
pos = (200,100);
ref = _part.corner;
},
{
pos = (100,100);
ref = _part.square;
},
{
pos = (100,300);
ref = _part.square;
},
{
pos = (100,400);
ref = _part.square;
},
{
pos = (100,500);
ref = _part.square;
},
{
pos = (200,600);
ref = _part.corner;
scale = (-1,1);
},
{
angle = 180;
pos = (510,100);
ref = _part.corner;
},
{
pos = (410,100);
ref = _part.square;
},
{
pos = (410,300);
ref = _part.square;
},
{
pos = (410,400);
ref = _part.square;
},
{
pos = (410,500);
ref = _part.square;
},
{
pos = (410,600);
ref = _part.corner;
},
{
pos = (100,200);
ref = _part.square;
},
{
pos = (410,200);
ref = _part.square;
},
{
pos = (510,0);
ref = _part.square;
scale = (2.2,1);
},
{
pos = (510,300);
ref = _part.square;
scale = (2.2,1);
},
{
pos = (610,600);
ref = _part.square;
scale = (1.2,1);
},
{
pos = (200,600);
ref = _part.square;
scale = (2.1,1);
},
{
pos = (200,0);
ref = _part.square;
scale = (2.1,1);
},
{
pos = (610,600);
ref = _part.corner;
scale = (-1,1);
}
);
width = 830;
},
{
associatedMasterId = m01;
layerId = "E9CA82F4-FFD0-4AE0-A91F-D41330194DB1";
name = side;
shapes = (
{
closed = 0;
nodes = (
(100,100,l,{
name = shadowBottomColor;
}),
(100,600,ls,{
name = shadowColor;
}),
(100,653,o),
(147,700,o),
(200,700,cs,{
name = topColor;
}),
(410,700,ls,{
name = topColor;
}),
(436,700,o),
(463,685,o),
(480,660,c,{
name = topColor;
})
);
},
{
closed = 0;
nodes = (
(410,600,l,{
name = shadowBottomColor;
}),
(410,100,l,{
name = shadowColor;
})
);
}
);
width = 830;
},
{
associatedMasterId = m01;
layerId = "E758897E-5038-4467-8DCB-F339FBD2BBFD";
name = top;
shapes = (
{
closed = 0;
nodes = (
(730,400,l,{
name = midTopColor;
}),
(510,400,l,{
name = shadowColor;
})
);
},
{
closed = 0;
nodes = (
(730,100,l,{
name = midTopColor;
}),
(510,100,l,{
name = shadowColor;
})
);
},
{
closed = 0;
nodes = (
(440,100,l,{
name = midTopColor;
}),
(200,100,l,{
name = shadowColor;
})
);
},
{
closed = 0;
nodes = (
(730,700,l,{
name = topColor;
}),
(610,700,ls,{
name = topColor;
}),
(557,700,o),
(510,653,o),
(510,600,c,{
name = shadowColor;
})
);
}
);
width = 830;
},
{
associatedMasterId = m01;
layerId = "84915933-9019-49D9-A183-E56FEC7916D5";
name = highlightColor;
shapes = (
{
closed = 0;
nodes = (
(730,400,l),
(510,400,l)
);
},
{
closed = 0;
nodes = (
(730,700,l),
(610,700,ls),
(557,700,o),
(510,653,o),
(510,600,c)
);
},
{
closed = 0;
nodes = (
(410,700,l),
(200,700,ls),
(147,700,o),
(100,653,o),
(100,600,cs),
(100,150,l)
);
},
{
closed = 0;
nodes = (
(410,550,l),
(410,100,l),
(200,100,l)
);
},
{
closed = 0;
nodes = (
(730,100,l),
(510,100,l)
);
}
);
width = 830;
}
);
metricLeft = H;
metricRight = H;
unicode = 338;
},
{
glyphname = P;
layers = (
{
layerId = m01;
shapes = (
{
pos = (100,0);
ref = _part.square;
},
{
pos = (100,100);
ref = _part.square;
},
{
pos = (100,300);
ref = _part.square;
},
{
pos = (100,400);
ref = _part.square;
},
{
pos = (200,640);
ref = _part.square;
scale = (-1,1);
},
{
angle = 180;
pos = (300,300);
ref = _part.corner;
},
{
pos = (200,640);
ref = _part.square;
},
{
pos = (300,200);
ref = _part.square;
},
{
pos = (300,640);
ref = _part.square;
},
{
pos = (400,200);
ref = _part.square;
scale = (0.5,1);
},
{
pos = (400,640);
ref = _part.square;
scale = (0.5,1);
},
{
pos = (450,300);
ref = _part.corner;
scale = (1,-1);
},
{
pos = (450,400);
ref = _part.square;
},
{
pos = (450,640);
ref = _part.corner;
},
{
pos = (100,500);
ref = _part.square;
},
{
pos = (450,500);
ref = _part.square;
},
{
pos = (100,200);
ref = _part.square;
},
{
pos = (450,300);
ref = _part.square;
},
{
pos = (100,540);
ref = _part.square;
},
{
pos = (450,540);
ref = _part.square;
}
);
width = 650;
},
{
associatedMasterId = m01;
layerId = "A80043D5-E7FF-4B77-8042-EB9E36D03A9B";
name = side;
shapes = (
{
closed = 0;
nodes = (
(100,740,l,{
name = shadowColor;
}),
(100,0,l,{
name = shadowBottomColor;
})
);
},
{
closed = 0;
nodes = (
(450,640,l,{
name = shadowBottomColor;
}),
(450,300,l,{
name = shadowColor;
})
);
},
{
closed = 0;
nodes = (
(200,300,l,{
name = shadowBottomColor;
}),
(200,273,o),
(213,247,o),
(230,230,c,{
name = shadowColor;
})
);
}
);
width = 650;
},
{
associatedMasterId = m01;
layerId = "6EE6B079-6B20-4FEE-9F8D-8E7AD54CD6F1";
name = top;
shapes = (
{
closed = 0;
nodes = (
(450,740,l,{
name = topColor;
}),
(100,740,l,{
name = topColor;
})
);
},
{
closed = 0;
nodes = (
(450,300,l,{
name = midTopColor;
}),
(200,300,l,{
name = shadowColor;
})
);
}
);
width = 650;
},
{
associatedMasterId = m01;
layerId = "1CE9DBA8-9D46-4845-BBDE-556013B60DAB";
name = highlightColor;
shapes = (
{
closed = 0;
nodes = (
(450,740,l),
(100,740,l),
(100,0,l)
);
},
{
closed = 0;
nodes = (
(450,640,l),
(450,300,l),
(200,300,l)
);
}
);
width = 650;
}
);
metricLeft = H;
metricRight = H;
unicode = 80;
},
{
glyphname = Thorn;
layers = (
{
layerId = m01;
shapes = (
{
pos = (100,0);
ref = _part.square;
},
{
pos = (100,100);
ref = _part.square;
},
{
pos = (100,300);
ref = _part.square;
},
{
pos = (100,400);
ref = _part.square;
},
{
pos = (200,600);
ref = _part.square;
scale = (-1,1.4);
},
{
angle = 180;
pos = (300,200);
ref = _part.square;
},
{
pos = (300,500);
ref = _part.corner;
scale = (-1,1);
},
{
pos = (300,100);
ref = _part.square;
},
{
pos = (300,500);
ref = _part.square;
},
{
pos = (400,100);
ref = _part.square;
scale = (0.5,1);
},
{
pos = (400,500);
ref = _part.square;
scale = (0.5,1);
},
{
pos = (450,200);
ref = _part.corner;
scale = (1,-1);
},
{
pos = (450,300);
ref = _part.square;
},
{
pos = (450,500);
ref = _part.corner;
},
{
pos = (100,500);
ref = _part.square;
},
{
pos = (450,400);
ref = _part.square;
},
{
pos = (100,200);
ref = _part.square;
},
{
pos = (450,200);
ref = _part.square;
}
);
width = 650;
},
{
associatedMasterId = m01;
layerId = "0E12295C-EB1F-4A32-9C3F-8E4BA5F200F5";
name = side;
shapes = (
{
closed = 0;
nodes = (
(450,500,l,{
name = shadowBottomColor;
}),
(450,200,l,{
name = shadowColor;
})
);
},
{
closed = 0;
nodes = (
(100,740,l,{
name = shadowColor;
}),
(100,0,l,{
name = shadowBottomColor;
})
);
}
);
width = 650;
},
{
associatedMasterId = m01;
layerId = "218FFE3F-DFE9-4B4F-B698-DBF82B52C137";
name = top;
shapes = (
{
closed = 0;
nodes = (
(450,600,l,{
name = topColor;
}),
(300,600,ls,{
name = topColor;
}),
(247,600,o),
(200,553,o),
(200,500,c,{
name = shadowColor;
})
);
},
{
closed = 0;
nodes = (
(500,200,l,{
name = midTopColor;
}),
(200,200,l,{
name = shadowColor;
})
);
},
{
closed = 0;
nodes = (
(200,740,l,{
name = topColor;
}),
(100,740,l,{
name = topColor;
})
);
}
);
width = 650;
},
{
associatedMasterId = m01;
layerId = "32499790-09B8-4886-9949-5198C597ACCD";
name = highlightColor;
shapes = (
{
closed = 0;
nodes = (
(450,600,l),
(300,600,ls),
(247,600,o),
(200,553,o),
(200,500,c)
);
},
{
closed = 0;
nodes = (
(450,500,l),
(450,200,l),
(200,200,l)
);
},
{
closed = 0;
nodes = (
(200,740,l),
(100,740,l),
(100,110,l)
);
}
);
width = 650;
}
);
metricLeft = H;
metricRight = H;
unicode = 222;
},
{
glyphname = Q;
kernLeft = O;
layers = (
{
layerId = m01;
shapes = (
{
pos = (200,640);
ref = _part.corner;
scale = (-1,1);
},
{
pos = (100,60);
ref = _part.square;
},
{
pos = (100,200);
ref = _part.square;
},
{
pos = (100,300);
ref = _part.square;
},
{
pos = (100,400);
ref = _part.square;
},
{
pos = (450,640);
ref = _part.corner;
},
{
pos = (450,160);
ref = _part.corner;
scale = (1,-1);
},
{
pos = (450,200);
ref = _part.square;
},
{
pos = (450,300);
ref = _part.square;
},
{
pos = (450,400);
ref = _part.square;
},
{
angle = 180;
pos = (200,60);
ref = _part.corner;
},
{
pos = (450,-40);
ref = _part.square;
scale = (1.6,1);
},
{
pos = (400,-40);
ref = _part.square;
scale = (0.5,1);
},
{
pos = (300,-40);
ref = _part.square;
},
{
pos = (200,-40);
ref = _part.square;
},
{
pos = (400,640);
ref = _part.square;
scale = (0.5,1);
},
{
pos = (300,640);
ref = _part.square;
},
{
pos = (200,640);
ref = _part.square;
},
{
pos = (100,500);
ref = _part.square;
},
{
pos = (450,500);
ref = _part.square;
},
{
pos = (100,160);
ref = _part.square;
},
{
pos = (450,160);
ref = _part.square;
},
{
pos = (100,540);
ref = _part.square;
},
{
pos = (450,540);
ref = _part.square;
}
);
width = 650;
},
{
associatedMasterId = m01;
layerId = "BFB81115-5DF9-4DAE-BE33-CFF038AA8BBF";
name = side;
shapes = (
{
closed = 0;
nodes = (
(450,740,l,{
name = topColor;
}),
(200,740,ls,{
name = topColor;
}),
(147,740,o),
(100,693,o),
(100,640,cs,{
name = shadowColor;
}),
(100,60,l,{
name = shadowBottomColor;
})
);
},
{
closed = 0;
nodes = (
(450,640,l,{
name = shadowBottomColor;
}),
(450,60,l,{
name = shadowColor;
})
);
}
);
width = 650;
},
{
associatedMasterId = m01;
layerId = "2370BA0D-6059-4E8D-91C0-14EB87394893";
name = top;
shapes = (
{
closed = 0;
nodes = (
(660,60,l,{
name = midTopColor;
}),
(450,60,l,{
name = shadowBottomColor;
})
);
},
{
closed = 0;
nodes = (
(440,60,l,{
name = midTopColor;
}),
(200,60,l,{
name = shadowColor;
})
);
}
);
width = 650;
},
{
associatedMasterId = m01;
layerId = "9F8FCF1E-00D2-4E65-8336-721C809815FE";
name = highlightColor;
shapes = (
{
closed = 0;
nodes = (
(450,740,l),
(200,740,ls),
(147,740,o),
(100,693,o),
(100,640,cs),
(100,190,l)
);
},
{
closed = 0;
nodes = (
(450,640,l),
(450,60,l),
(200,60,l)
);
}
);
width = 650;
}
);
metricLeft = H;
unicode = 81;
},
{
glyphname = R;
layers = (
{
layerId = m01;
shapes = (
{
pos = (100,0);
ref = _part.square;
},
{
pos = (100,100);
ref = _part.square;
},
{
pos = (100,200);
ref = _part.square;
},
{
pos = (100,300);
ref = _part.square;
},
{
pos = (100,500);
ref = _part.square;
},
{
pos = (200,640);
ref = _part.square;
scale = (-1,1);
},
{
pos = (200,640);
ref = _part.square;
},
{
pos = (300,200);
ref = _part.square;
},
{
pos = (300,640);
ref = _part.square;
},
{
pos = (400,200);
ref = _part.square;
scale = (0.5,1);
},
{
pos = (400,640);
ref = _part.square;
scale = (0.5,1);
},
{
pos = (450,0);
ref = _part.square;
},
{
pos = (450,100);
ref = _part.square;
},
{
pos = (450,200);
ref = _part.corner;
},
{
pos = (450,400);
ref = _part.corner;
scale = (1,-1);
},
{
pos = (450,500);
ref = _part.square;
},
{
pos = (450,640);
ref = _part.corner;
},
{
pos = (300,200);
ref = _part.square;
scale = (-1,1);
},
{
pos = (100,400);
ref = _part.square;
},
{
pos = (450,400);
ref = _part.square;
},
{
pos = (100,540);
ref = _part.square;
},
{
pos = (450,540);
ref = _part.square;
}
);
width = 650;
},
{
associatedMasterId = m01;
layerId = "184E9BEF-1A34-4B44-98D7-FCC568A3E8AD";
name = side;
shapes = (
{
closed = 0;
nodes = (
(100,740,l,{
name = shadowColor;
}),
(100,0,l,{
name = shadowBottomColor;
})
);
},
{
closed = 0;
nodes = (
(450,230,l,{
name = shadowBottomColor;
}),
(450,0,l,{
name = shadowColor;
})
);
},
{
closed = 0;
nodes = (
(450,640,l,{
name = shadowBottomColor;
}),
(450,300,l,{
name = shadowColor;
})
);
}
);
width = 650;
},
{
associatedMasterId = m01;
layerId = "DECE277A-2A10-4798-ABD5-98D410F50F32";
name = top;
shapes = (
{
closed = 0;
nodes = (
(450,740,l,{
name = topColor;
}),
(100,740,l,{
name = topColor;
})
);
},
{
closed = 0;
nodes = (
(470,300,l,{
name = midTopColor;
}),
(150,300,l,{
name = shadowColor;
})
);
},
{
closed = 0;
nodes = (
(530,250,l,{
name = midTopColor;
}),
(520,270,o),
(500,290,o),
(480,300,c,{
name = shadowColor;
})
);
}
);
width = 650;
},
{
associatedMasterId = m01;
layerId = "E12A84AE-EF3B-46B6-97F1-80ED1A29AD7B";
name = highlightColor;
shapes = (
{
closed = 0;
nodes = (
(450,640,l),
(450,300,l),
(200,300,l)
);
},
{
closed = 0;
nodes = (
(450,740,l),
(100,740,l),
(100,200,l)
);
}
);
width = 650;
}
);
metricLeft = H;
metricRight = H;
unicode = 82;
},
{
glyphname = Racute;
layers = (
{
layerId = m01;
shapes = (
{
ref = R;
},
{
pos = (25,239);
ref = acutecomb;
}
);
width = 650;
},
{
associatedMasterId = m01;
layerId = "184E9BEF-1A34-4B44-98D7-FCC568A3E8AD";
name = side;
shapes = (
{
closed = 0;
nodes = (
(100,740,l,{
name = shadowColor;
}),
(100,0,l,{
name = shadowBottomColor;
})
);
},
{
closed = 0;
nodes = (
(450,230,l,{
name = shadowBottomColor;
}),
(450,0,l,{
name = shadowColor;
})
);
},
{
closed = 0;
nodes = (
(450,640,l,{
name = shadowBottomColor;
}),
(450,300,l,{
name = shadowColor;
})
);
},
{
closed = 0;
nodes = (
(169,936.2,l,{
name = shadowColor;
}),
(222,849.1,l,{
name = shadowColor;
})
);
}
);
width = 650;
},
{
associatedMasterId = m01;
layerId = "DECE277A-2A10-4798-ABD5-98D410F50F32";
name = top;
shapes = (
{
closed = 0;
nodes = (
(450,740,l,{
name = topBottomColor;
}),
(100,740,l,{
name = topColor;
})
);
},
{
closed = 0;
nodes = (
(470,300,l,{
name = midTopColor;
}),
(150,300,l,{
name = shadowColor;
})
);
},
{
closed = 0;
nodes = (
(530,250,l,{
name = midTopColor;
}),
(520,270,o),
(500,290,o),
(480,300,c,{
name = shadowColor;
})
);
},
{
closed = 0;
nodes = (
(408,1068.9,l,{
name = topColor;
}),
(169,936.2,l,{
name = topBottomColor;
})
);
}
);
width = 650;
},
{
associatedMasterId = m01;
layerId = "E12A84AE-EF3B-46B6-97F1-80ED1A29AD7B";
name = highlightColor;
shapes = (
{
closed = 0;
nodes = (
(450,640,l),
(450,300,l),
(200,300,l)
);
},
{
closed = 0;
nodes = (
(450,740,l),
(100,740,l),
(100,200,l)
);
},
{
closed = 0;
nodes = (
(408,1068.9,l,{
name = "";
}),
(169,936.2,l,{
name = "";
}),
(222,849.1,l,{
name = "";
})
);
}
);
width = 650;
}
);
metricLeft = H;
metricRight = H;
unicode = 340;
},
{
glyphname = Rcaron;
layers = (
{
layerId = m01;
shapes = (
{
pos = (18,205);
ref = caroncomb;
},
{
ref = R;
}
);
width = 650;
},
{
associatedMasterId = m01;
layerId = "184E9BEF-1A34-4B44-98D7-FCC568A3E8AD";
name = side;
shapes = (
{
closed = 0;
nodes = (
(100,740,l,{
name = shadowColor;
}),
(100,0,l,{
name = shadowBottomColor;
})
);
},
{
closed = 0;
nodes = (
(450,230,l,{
name = shadowBottomColor;
}),
(450,0,l,{
name = shadowColor;
})
);
},
{
closed = 0;
nodes = (
(450,640,l,{
name = shadowBottomColor;
}),
(450,300,l,{
name = shadowColor;
})
);
},
{
closed = 0;
nodes = (
(455.9,1058.4,l,{
name = topColor;
}),
(263,925.2,l,{
name = shadowColor;
})
);
},
{
closed = 0;
nodes = (
(182,1058.4,l,{
name = shadowColor;
}),
(130,987.5,l,{
name = shadowColor;
})
);
}
);
width = 650;
},
{
associatedMasterId = m01;
layerId = "DECE277A-2A10-4798-ABD5-98D410F50F32";
name = top;
shapes = (
{
closed = 0;
nodes = (
(450,740,l,{
name = topBottomColor;
}),
(100,740,l,{
name = topColor;
})
);
},
{
closed = 0;
nodes = (
(470,300,l,{
name = midTopColor;
}),
(150,300,l,{
name = shadowColor;
})
);
},
{
closed = 0;
nodes = (
(530,250,l,{
name = midTopColor;
}),
(520,270,o),
(500,290,o),
(480,300,c,{
name = shadowColor;
})
);
},
{
closed = 0;
nodes = (
(319,963.8,l,{
name = topBottomColor;
}),
(182,1058.4,l,{
name = midTopColor;
})
);
}
);
width = 650;
},
{
associatedMasterId = m01;
layerId = "E12A84AE-EF3B-46B6-97F1-80ED1A29AD7B";
name = highlightColor;
shapes = (
{
closed = 0;
nodes = (
(450,640,l),
(450,300,l),
(200,300,l)
);
},
{
closed = 0;
nodes = (
(450,740,l),
(100,740,l),
(100,200,l)
);
},
{
closed = 0;
nodes = (
(455.9,1058.4,l),
(319,963.8,l)
);
},
{
closed = 0;
nodes = (
(296,979.4,l),
(182,1058.4,l),
(130,987.5,l)
);
}
);
width = 650;
}
);
metricLeft = H;
metricRight = H;
unicode = 344;
},
{
glyphname = Rcommaaccent;
layers = (
{
layerId = m01;
shapes = (
{
ref = R;
},
{
pos = (0,40);
ref = commaaccentcomb;
}
);
width = 650;
},
{
associatedMasterId = m01;
layerId = "184E9BEF-1A34-4B44-98D7-FCC568A3E8AD";
name = side;
shapes = (
{
closed = 0;
nodes = (
(100,740,l,{
name = shadowColor;
}),
(100,0,l,{
name = shadowBottomColor;
})
);
},
{
closed = 0;
nodes = (
(450,230,l,{
name = shadowBottomColor;
}),
(450,0,l,{
name = shadowColor;
})
);
},
{
closed = 0;
nodes = (
(450,640,l,{
name = shadowBottomColor;
}),
(450,300,l,{
name = shadowColor;
})
);
},
{
closed = 0;
nodes = (
(330,-60,l,{
name = shadowColor;
}),
(283.6,-60,o),
(250,-93.6,o),
(250,-140,cs,{
name = shadowBottomColor;
}),
(250,-167.2,o),
(261.5,-190,o),
(280.4,-204.2,c,{
name = shadowBottomColor;
})
);
}
);
width = 650;
},
{
associatedMasterId = m01;
layerId = "DECE277A-2A10-4798-ABD5-98D410F50F32";
name = top;
shapes = (
{
closed = 0;
nodes = (
(450,740,l,{
name = topColor;
}),
(100,740,l,{
name = topColor;
})
);
},
{
closed = 0;
nodes = (
(470,300,l,{
name = midTopColor;
}),
(150,300,l,{
name = shadowColor;
})
);
},
{
closed = 0;
nodes = (
(530,250,l,{
name = midTopColor;
}),
(520,270,o),
(500,290,o),
(480,300,c,{
name = shadowColor;
})
);
},
{
closed = 0;
nodes = (
(330,-202,l,{
name = shadowBottomColor;
}),
(330,-300,l,{
name = shadowColor;
})
);
}
);
width = 650;
},
{
associatedMasterId = m01;
layerId = "E12A84AE-EF3B-46B6-97F1-80ED1A29AD7B";
name = highlightColor;
shapes = (
{
closed = 0;
nodes = (
(450,640,l),
(450,300,l),
(200,300,l)
);
},
{
closed = 0;
nodes = (
(450,740,l),
(100,740,l),
(100,200,l)
);
},
{
closed = 0;
nodes = (
(330,-60,l,{
name = "";
}),
(283.6,-60,o,{
name = "";
}),
(250,-93.6,o,{
name = "";
}),
(250,-140,c,{
name = "";
})
);
}
);
width = 650;
}
);
metricLeft = H;
metricRight = H;
unicode = 342;
},
{
glyphname = S;
kernLeft = O;
kernRight = O;
layers = (
{
layerId = m01;
shapes = (
{
angle = 180;
pos = (200,400);
ref = _part.corner;
},
{
pos = (450,60);
ref = _part.square;
},
{
pos = (200,640);
ref = _part.corner;
scale = (-1,1);
},
{
pos = (200,300);
ref = _part.square;
},
{
pos = (200,640);
ref = _part.square;
},
{
pos = (300,300);
ref = _part.square;
},
{
pos = (300,640);
ref = _part.square;
},
{
pos = (450,300);
ref = _part.corner;
},
{
pos = (200,-40);
ref = _part.square;
},
{
pos = (300,-40);
ref = _part.square;
},
{
pos = (100,500);
ref = _part.square;
},
{
pos = (450,500);
ref = _part.square;
},
{
pos = (100,60);
ref = _part.square;
},
{
pos = (450,60);
ref = _part.corner;
scale = (1,-1);
},
{
pos = (400,300);
ref = _part.square;
scale = (0.5,1);
},
{
pos = (400,640);
ref = _part.square;
scale = (0.5,1);
},
{
pos = (400,-40);
ref = _part.square;
scale = (0.5,1);
},
{
pos = (100,400);
ref = _part.square;
},
{
pos = (450,200);
ref = _part.square;
},
{
angle = 180;
pos = (200,60);
ref = _part.corner;
},
{
pos = (450,640);
ref = _part.corner;
},
{
pos = (450,100);
ref = _part.square;
},
{
pos = (100,540);
ref = _part.square;
},
{
pos = (450,540);
ref = _part.square;
}
);
width = 650;
},
{
associatedMasterId = m01;
layerId = "7DE7D723-8400-467D-834D-5BB4D3F50919";
name = side;
shapes = (
{
closed = 0;
nodes = (
(100,160,l,{
name = shadowColor;
}),
(100,60,l,{
name = shadowBottomColor;
})
);
},
{
closed = 0;
nodes = (
(450,660,l,{
name = shadowBottomColor;
}),
(450,500,l,{
name = shadowColor;
})
);
},
{
closed = 0;
nodes = (
(450,300,l,{
name = shadowBottomColor;
}),
(450,60,l,{
name = shadowColor;
})
);
}
);
width = 650;
},
{
associatedMasterId = m01;
layerId = "BF6D1113-3786-4EB3-AF42-EAEEDD79B7D9";
name = top;
shapes = (
{
closed = 0;
nodes = (
(520,60,l,{
name = midTopColor;
}),
(150,60,l,{
name = shadowColor;
})
);
},
{
closed = 0;
nodes = (
(450,400,l,{
name = midTopColor;
}),
(150,400,l,{
name = shadowColor;
})
);
},
{
closed = 0;
nodes = (
(200,160,l,{
name = midTopColor;
}),
(100,160,l,{
name = midTopColor;
})
);
},
{
closed = 0;
nodes = (
(450,740,l,{
name = topColor;
}),
(200,740,ls,{
name = topColor;
}),
(147,740,o),
(100,693,o),
(100,640,cs,{
name = shadowColor;
}),
(100,400,l,{
name = shadowBottomColor;
})
);
}
);
width = 650;
},
{
associatedMasterId = m01;
layerId = "E26A9DEB-8BD4-4E22-BE95-6E772DF5D180";
name = highlightColor;
shapes = (
{
closed = 0;
nodes = (
(450,740,l),
(200,740,ls),
(147,740,o),
(100,693,o),
(100,640,cs),
(100,400,ls)
);
},
{
closed = 0;
nodes = (
(450,400,l),
(328,400,l),
(200,400,l)
);
},
{
closed = 0;
nodes = (
(450,300,l),
(450,60,l),
(200,60,l)
);
},
{
closed = 0;
nodes = (
(200,160,l),
(100,160,l),
(100,60,l)
);
}
);
width = 650;
}
);
metricLeft = H;
metricRight = H;
unicode = 83;
},
{
glyphname = Sacute;
kernLeft = O;
kernRight = O;
layers = (
{
layerId = m01;
shapes = (
{
ref = S;
},
{
pos = (25,239);
ref = acutecomb;
}
);
width = 650;
},
{
associatedMasterId = m01;
layerId = "7DE7D723-8400-467D-834D-5BB4D3F50919";
name = side;
shapes = (
{
closed = 0;
nodes = (
(100,160,l,{
name = shadowColor;
}),
(100,60,l,{
name = shadowBottomColor;
})
);
},
{
closed = 0;
nodes = (
(450,660,l,{
name = shadowBottomColor;
}),
(450,500,l,{
name = shadowColor;
})
);
},
{
closed = 0;
nodes = (
(450,300,l,{
name = shadowBottomColor;
}),
(450,60,l,{
name = shadowColor;
})
);
},
{
closed = 0;
nodes = (
(169,936.2,l,{
name = shadowColor;
}),
(222,849.1,l,{
name = shadowColor;
})
);
}
);
width = 650;
},
{
associatedMasterId = m01;
layerId = "BF6D1113-3786-4EB3-AF42-EAEEDD79B7D9";
name = top;
shapes = (
{
closed = 0;
nodes = (
(520,60,l,{
name = midTopColor;
}),
(150,60,l,{
name = shadowColor;
})
);
},
{
closed = 0;
nodes = (
(450,400,l,{
name = midTopColor;
}),
(150,400,l,{
name = shadowColor;
})
);
},
{
closed = 0;
nodes = (
(200,160,l,{
name = midTopColor;
}),
(100,160,l,{
name = midTopColor;
})
);
},
{
closed = 0;
nodes = (
(450,740,l,{
name = topBottomColor;
}),
(200,740,ls,{
name = topColor;
}),
(147,740,o),
(100,693,o),
(100,640,cs,{
name = shadowColor;
}),
(100,400,l,{
name = shadowBottomColor;
})
);
},
{
closed = 0;
nodes = (
(408,1068.9,l,{
name = topColor;
}),
(169,936.2,l,{
name = topBottomColor;
})
);
}
);
width = 650;
},
{
associatedMasterId = m01;
layerId = "E26A9DEB-8BD4-4E22-BE95-6E772DF5D180";
name = highlightColor;
shapes = (
{
closed = 0;
nodes = (
(450,740,l),
(200,740,ls),
(147,740,o),
(100,693,o),
(100,640,cs),
(100,400,ls)
);
},
{
closed = 0;
nodes = (
(450,400,l),
(328,400,l),
(200,400,l)
);
},
{
closed = 0;
nodes = (
(450,300,l),
(450,60,l),
(200,60,l)
);
},
{
closed = 0;
nodes = (
(200,160,l),
(100,160,l),
(100,60,l)
);
},
{
closed = 0;
nodes = (
(408,1068.9,l,{
name = "";
}),
(169,936.2,l,{
name = "";
}),
(222,849.1,l,{
name = "";
})
);
}
);
width = 650;
}
);
metricLeft = H;
metricRight = H;
unicode = 346;
},
{
glyphname = Scaron;
kernLeft = O;
kernRight = O;
layers = (
{
layerId = m01;
shapes = (
{
pos = (28,205);
ref = caroncomb;
},
{
ref = S;
}
);
width = 650;
},
{
associatedMasterId = m01;
layerId = "7DE7D723-8400-467D-834D-5BB4D3F50919";
name = side;
shapes = (
{
closed = 0;
nodes = (
(100,160,l,{
name = shadowColor;
}),
(100,60,l,{
name = shadowBottomColor;
})
);
},
{
closed = 0;
nodes = (
(450,660,l,{
name = shadowBottomColor;
}),
(450,500,l,{
name = shadowColor;
})
);
},
{
closed = 0;
nodes = (
(450,300,l,{
name = shadowBottomColor;
}),
(450,60,l,{
name = shadowColor;
})
);
},
{
closed = 0;
nodes = (
(465.9,1058.4,l,{
name = topColor;
}),
(273,925.2,l,{
name = shadowColor;
})
);
},
{
closed = 0;
nodes = (
(192,1058.4,l,{
name = shadowColor;
}),
(140,987.5,l,{
name = shadowColor;
})
);
}
);
width = 650;
},
{
associatedMasterId = m01;
layerId = "BF6D1113-3786-4EB3-AF42-EAEEDD79B7D9";
name = top;
shapes = (
{
closed = 0;
nodes = (
(520,60,l,{
name = midTopColor;
}),
(150,60,l,{
name = shadowColor;
})
);
},
{
closed = 0;
nodes = (
(450,400,l,{
name = midTopColor;
}),
(150,400,l,{
name = shadowColor;
})
);
},
{
closed = 0;
nodes = (
(200,160,l,{
name = midTopColor;
}),
(100,160,l,{
name = midTopColor;
})
);
},
{
closed = 0;
nodes = (
(450,740,l,{
name = topBottomColor;
}),
(200,740,ls,{
name = topColor;
}),
(147,740,o),
(100,693,o),
(100,640,cs,{
name = shadowColor;
}),
(100,400,l,{
name = shadowBottomColor;
})
);
},
{
closed = 0;
nodes = (
(329,963.8,l,{
name = topBottomColor;
}),
(192,1058.4,l,{
name = midTopColor;
})
);
}
);
width = 650;
},
{
associatedMasterId = m01;
layerId = "E26A9DEB-8BD4-4E22-BE95-6E772DF5D180";
name = highlightColor;
shapes = (
{
closed = 0;
nodes = (
(450,740,l),
(200,740,ls),
(147,740,o),
(100,693,o),
(100,640,cs),
(100,400,ls)
);
},
{
closed = 0;
nodes = (
(450,400,l),
(328,400,l),
(200,400,l)
);
},
{
closed = 0;
nodes = (
(450,300,l),
(450,60,l),
(200,60,l)
);
},
{
closed = 0;
nodes = (
(200,160,l),
(100,160,l),
(100,60,l)
);
},
{
closed = 0;
nodes = (
(465.9,1058.4,l),
(329,963.8,l)
);
},
{
closed = 0;
nodes = (
(306,979.4,l),
(192,1058.4,l),
(140,987.5,l)
);
}
);
width = 650;
}
);
metricLeft = H;
metricRight = H;
unicode = 352;
},
{
glyphname = Scedilla;
kernLeft = O;
kernRight = O;
layers = (
{
layerId = m01;
shapes = (
{
pos = (230,-40);
ref = cedillacomb;
},
{
ref = S;
}
);
width = 650;
},
{
associatedMasterId = m01;
layerId = "7DE7D723-8400-467D-834D-5BB4D3F50919";
name = side;
shapes = (
{
closed = 0;
nodes = (
(100,160,l,{
name = shadowColor;
}),
(100,60,l,{
name = shadowBottomColor;
})
);
},
{
closed = 0;
nodes = (
(450,660,l,{
name = shadowBottomColor;
}),
(450,500,l,{
name = shadowColor;
})
);
},
{
closed = 0;
nodes = (
(450,300,l,{
name = shadowBottomColor;
}),
(450,60,l,{
name = shadowColor;
})
);
},
{
closed = 0;
nodes = (
(330,-40,l,{
name = shadowBottomColor;
}),
(330,-140,l,{
name = shadowColor;
})
);
},
{
closed = 0;
nodes = (
(230,-140,l,{
name = shadowBottomColor;
}),
(230,-240,l,{
name = shadowBottomColor;
})
);
}
);
width = 650;
},
{
associatedMasterId = m01;
layerId = "BF6D1113-3786-4EB3-AF42-EAEEDD79B7D9";
name = top;
shapes = (
{
closed = 0;
nodes = (
(520,60,l,{
name = midTopColor;
}),
(150,60,l,{
name = shadowColor;
})
);
},
{
closed = 0;
nodes = (
(450,400,l,{
name = midTopColor;
}),
(150,400,l,{
name = shadowColor;
})
);
},
{
closed = 0;
nodes = (
(200,160,l,{
name = midTopColor;
}),
(100,160,l,{
name = midTopColor;
})
);
},
{
closed = 0;
nodes = (
(450,740,l,{
name = topColor;
}),
(200,740,ls,{
name = topColor;
}),
(147,740,o),
(100,693,o),
(100,640,cs,{
name = shadowColor;
}),
(100,400,l,{
name = shadowBottomColor;
})
);
},
{
closed = 0;
nodes = (
(380,-140,l,{
name = shadowBottomColor;
}),
(230,-140,l,{
name = shadowColor;
})
);
}
);
width = 650;
},
{
associatedMasterId = m01;
layerId = "E26A9DEB-8BD4-4E22-BE95-6E772DF5D180";
name = highlightColor;
shapes = (
{
closed = 0;
nodes = (
(450,740,l),
(200,740,ls),
(147,740,o),
(100,693,o),
(100,640,cs),
(100,400,ls)
);
},
{
closed = 0;
nodes = (
(450,400,l),
(328,400,l),
(200,400,l)
);
},
{
closed = 0;
nodes = (
(450,300,l),
(450,60,l),
(200,60,l)
);
},
{
closed = 0;
nodes = (
(200,160,l),
(100,160,l),
(100,60,l)
);
},
{
closed = 0;
nodes = (
(330,-140,l),
(230,-140,l),
(230,-240,l)
);
}
);
width = 650;
}
);
metricLeft = H;
metricRight = H;
unicode = 350;
},
{
glyphname = Scircumflex;
kernLeft = O;
kernRight = O;
layers = (
{
layerId = m01;
shapes = (
{
ref = S;
},
{
pos = (29,210);
ref = circumflexcomb;
}
);
width = 650;
},
{
associatedMasterId = m01;
layerId = "7DE7D723-8400-467D-834D-5BB4D3F50919";
name = side;
shapes = (
{
closed = 0;
nodes = (
(100,160,l,{
name = shadowColor;
}),
(100,60,l,{
name = shadowBottomColor;
})
);
},
{
closed = 0;
nodes = (
(450,660,l,{
name = shadowBottomColor;
}),
(450,500,l,{
name = shadowColor;
})
);
},
{
closed = 0;
nodes = (
(450,300,l,{
name = shadowBottomColor;
}),
(450,60,l,{
name = shadowColor;
})
);
},
{
closed = 0;
nodes = (
(325,1070.4,l,{
name = topColor;
}),
(133,938.1,l,{
name = topBottomColor;
})
);
}
);
width = 650;
},
{
associatedMasterId = m01;
layerId = "BF6D1113-3786-4EB3-AF42-EAEEDD79B7D9";
name = top;
shapes = (
{
closed = 0;
nodes = (
(520,60,l,{
name = midTopColor;
}),
(150,60,l,{
name = shadowColor;
})
);
},
{
closed = 0;
nodes = (
(450,400,l,{
name = midTopColor;
}),
(150,400,l,{
name = shadowColor;
})
);
},
{
closed = 0;
nodes = (
(200,160,l,{
name = midTopColor;
}),
(100,160,l,{
name = midTopColor;
})
);
},
{
closed = 0;
nodes = (
(450,740,l,{
name = topBottomColor;
}),
(200,740,ls,{
name = topColor;
}),
(147,740,o),
(100,693,o),
(100,640,cs,{
name = shadowColor;
}),
(100,400,l,{
name = shadowBottomColor;
})
);
},
{
closed = 0;
nodes = (
(133,938.1,l,{
name = shadowColor;
}),
(188,859.2,l,{
name = shadowColor;
})
);
},
{
closed = 0;
nodes = (
(517,938.1,l,{
name = shadowColor;
}),
(325,1070.4,l,{
name = topBottomColor;
})
);
}
);
width = 650;
},
{
associatedMasterId = m01;
layerId = "E26A9DEB-8BD4-4E22-BE95-6E772DF5D180";
name = highlightColor;
shapes = (
{
closed = 0;
nodes = (
(450,740,l),
(200,740,ls),
(147,740,o),
(100,693,o),
(100,640,cs),
(100,400,ls)
);
},
{
closed = 0;
nodes = (
(450,400,l),
(328,400,l),
(200,400,l)
);
},
{
closed = 0;
nodes = (
(450,300,l),
(450,60,l),
(200,60,l)
);
},
{
closed = 0;
nodes = (
(200,160,l),
(100,160,l),
(100,60,l)
);
},
{
closed = 0;
nodes = (
(439.2,991.7,l),
(325,1070.4,l,{
name = "";
}),
(133,938.1,l,{
name = "";
})
);
}
);
width = 650;
}
);
metricLeft = H;
metricRight = H;
unicode = 348;
},
{
glyphname = Scommaaccent;
kernLeft = O;
kernRight = O;
layers = (
{
layerId = m01;
shapes = (
{
ref = S;
},
{
ref = commaaccentcomb;
}
);
width = 650;
},
{
associatedMasterId = m01;
layerId = "7DE7D723-8400-467D-834D-5BB4D3F50919";
name = side;
shapes = (
{
closed = 0;
nodes = (
(100,160,l,{
name = shadowColor;
}),
(100,60,l,{
name = shadowBottomColor;
})
);
},
{
closed = 0;
nodes = (
(450,660,l,{
name = shadowBottomColor;
}),
(450,500,l,{
name = shadowColor;
})
);
},
{
closed = 0;
nodes = (
(450,300,l,{
name = shadowBottomColor;
}),
(450,60,l,{
name = shadowColor;
})
);
},
{
closed = 0;
nodes = (
(330,-100,l,{
name = shadowColor;
}),
(283.6,-100,o),
(250,-133.6,o),
(250,-180,cs,{
name = shadowBottomColor;
}),
(250,-207.2,o),
(261.5,-230,o),
(280.4,-244.2,c,{
name = shadowBottomColor;
})
);
}
);
width = 650;
},
{
associatedMasterId = m01;
layerId = "BF6D1113-3786-4EB3-AF42-EAEEDD79B7D9";
name = top;
shapes = (
{
closed = 0;
nodes = (
(520,60,l,{
name = midTopColor;
}),
(150,60,l,{
name = shadowColor;
})
);
},
{
closed = 0;
nodes = (
(450,400,l,{
name = midTopColor;
}),
(150,400,l,{
name = shadowColor;
})
);
},
{
closed = 0;
nodes = (
(200,160,l,{
name = midTopColor;
}),
(100,160,l,{
name = midTopColor;
})
);
},
{
closed = 0;
nodes = (
(450,740,l,{
name = topColor;
}),
(200,740,ls,{
name = topColor;
}),
(147,740,o),
(100,693,o),
(100,640,cs,{
name = shadowColor;
}),
(100,400,l,{
name = shadowBottomColor;
})
);
},
{
closed = 0;
nodes = (
(330,-242,l,{
name = shadowBottomColor;
}),
(330,-340,l,{
name = shadowColor;
})
);
}
);
width = 650;
},
{
associatedMasterId = m01;
layerId = "E26A9DEB-8BD4-4E22-BE95-6E772DF5D180";
name = highlightColor;
shapes = (
{
closed = 0;
nodes = (
(450,740,l),
(200,740,ls),
(147,740,o),
(100,693,o),
(100,640,cs),
(100,400,ls)
);
},
{
closed = 0;
nodes = (
(450,400,l),
(328,400,l),
(200,400,l)
);
},
{
closed = 0;
nodes = (
(450,300,l),
(450,60,l),
(200,60,l)
);
},
{
closed = 0;
nodes = (
(200,160,l),
(100,160,l),
(100,60,l)
);
},
{
closed = 0;
nodes = (
(330,-100,l,{
name = "";
}),
(283.6,-100,o,{
name = "";
}),
(250,-133.6,o,{
name = "";
}),
(250,-180,c,{
name = "";
})
);
}
);
width = 650;
}
);
metricLeft = H;
metricRight = H;
unicode = 536;
},
{
glyphname = Germandbls;
kernRight = O;
layers = (
{
layerId = m01;
shapes = (
{
pos = (100,0);
ref = _part.square;
},
{
pos = (100,100);
ref = _part.square;
},
{
pos = (100,300);
ref = _part.square;
},
{
pos = (100,400);
ref = _part.square;
},
{
pos = (410,380);
ref = _part.corner;
scale = (-1,1);
},
{
angle = 180;
pos = (410,320);
ref = _part.corner;
},
{
pos = (200,640);
ref = _part.corner;
scale = (-1,1);
},
{
pos = (450,100);
ref = _part.corner;
scale = (1,-1);
},
{
pos = (450,100);
ref = _part.square;
scale = (1,1.2);
},
{
pos = (450,220);
ref = _part.corner;
},
{
pos = (450,640);
ref = _part.corner;
},
{
pos = (300,640);
ref = _part.square;
scale = (-1,1);
},
{
pos = (400,640);
ref = _part.square;
scale = (0.5,1);
},
{
pos = (450,480);
ref = _part.corner;
scale = (1,-1);
},
{
pos = (390,100);
ref = _part.square;
scale = (0.6,-1);
},
{
pos = (300,640);
ref = _part.square;
},
{
pos = (300,100);
ref = _part.square;
scale = (0.9,-1);
},
{
pos = (100,200);
ref = _part.square;
},
{
pos = (410,480);
ref = _part.square;
scale = (0.4,-1);
},
{
pos = (410,320);
ref = _part.square;
scale = (0.4,-1);
},
{
pos = (310,380);
ref = _part.square;
scale = (1,-0.6);
},
{
pos = (100,500);
ref = _part.square;
scale = (1,1.4);
},
{
pos = (450,640);
ref = _part.square;
scale = (1,-1.6);
}
);
width = 650;
},
{
associatedMasterId = m01;
layerId = "45971817-6D9B-4772-B5C8-6E9D12E5AB05";
name = side;
shapes = (
{
closed = 0;
nodes = (
(450,740,l,{
name = topColor;
}),
(200,740,ls,{
name = topColor;
}),
(147,740,o),
(100,693,o),
(100,640,cs,{
name = shadowColor;
}),
(100,0,l,{
name = shadowBottomColor;
})
);
},
{
closed = 0;
nodes = (
(450,220,l,{
name = shadowBottomColor;
}),
(450,100,l,{
name = shadowColor;
})
);
},
{
closed = 0;
nodes = (
(450,640,l,{
name = shadowBottomColor;
}),
(450,480,l,{
name = shadowColor;
})
);
},
{
closed = 0;
nodes = (
(300,100,l,{
name = shadowColor;
}),
(300,0,l,{
name = shadowBottomColor;
})
);
}
);
width = 650;
},
{
associatedMasterId = m01;
layerId = "5862D1DA-3EFA-4AE2-A5A8-31839647A07F";
name = top;
shapes = (
{
closed = 0;
nodes = (
(450,320,l,{
name = shadowColor;
}),
(410,320,l,{
name = shadowBottomColor;
})
);
},
{
closed = 0;
nodes = (
(450,100,l,{
name = shadowColor;
}),
(300,100,l,{
name = midTopColor;
})
);
},
{
closed = 0;
nodes = (
(450,480,l,{
name = midTopColor;
}),
(410,480,ls,{
name = midTopColor;
}),
(357,480,o),
(310,433,o),
(310,380,cs,{
name = shadowColor;
}),
(310,320,ls,{
name = shadowColor;
})
);
}
);
width = 650;
},
{
associatedMasterId = m01;
layerId = "9C7A40F6-B20E-4F6A-AC0E-9A229A22508F";
name = highlightColor;
shapes = (
{
closed = 0;
nodes = (
(450,480,l),
(410,480,ls),
(357,480,o),
(310,433,o),
(310,380,cs),
(310,320,ls)
);
},
{
closed = 0;
nodes = (
(450,740,l),
(200,740,ls),
(147,740,o),
(100,693,o),
(100,640,cs),
(100,0,l)
);
},
{
closed = 0;
nodes = (
(450,100,l),
(300,100,l),
(300,0,l)
);
}
);
width = 650;
}
);
metricLeft = H;
metricRight = H;
unicode = 7838;
},
{
glyphname = T;
kernLeft = T;
kernRight = T;
layers = (
{
layerId = m01;
shapes = (
{
pos = (280,0);
ref = _part.square;
},
{
pos = (280,100);
ref = _part.square;
},
{
pos = (280,200);
ref = _part.square;
},
{
pos = (280,300);
ref = _part.square;
},
{
pos = (280,400);
ref = _part.square;
},
{
pos = (180,600);
ref = _part.square;
scale = (-0.8,1);
},
{
pos = (180,600);
ref = _part.square;
},
{
pos = (280,600);
ref = _part.square;
},
{
pos = (380,600);
ref = _part.square;
},
{
pos = (480,600);
ref = _part.square;
scale = (0.8,1);
},
{
pos = (280,500);
ref = _part.square;
},
{
pos = (280,-90);
ref = _part.square;
}
);
width = 660;
},
{
associatedMasterId = m01;
layerId = "5095376C-A845-4BE1-BAF0-188C0B77B0D7";
name = side;
shapes = (
{
closed = 0;
nodes = (
(100,700,l,{
name = shadowColor;
}),
(100,600,l,{
name = shadowColor;
})
);
},
{
closed = 0;
nodes = (
(280,600,l,{
name = shadowBottomColor;
}),
(280,-40,l,{
name = shadowColor;
})
);
}
);
width = 660;
},
{
associatedMasterId = m01;
layerId = "5E73D7B2-DEFB-465F-B486-93ED628714F1";
name = top;
shapes = (
{
closed = 0;
nodes = (
(560,700,l,{
name = topColor;
}),
(100,700,l,{
name = topColor;
})
);
}
);
width = 660;
},
{
associatedMasterId = m01;
layerId = "DB132561-9562-4CA6-8A99-E5B08A3C9235";
name = highlightColor;
shapes = (
{
closed = 0;
nodes = (
(280,450,l),
(280,190,l),
(280,-90,l)
);
},
{
closed = 0;
nodes = (
(560,700,l),
(100,700,l),
(100,600,l)
);
}
);
width = 660;
}
);
metricLeft = H;
metricRight = H;
unicode = 84;
},
{
glyphname = Tcaron;
kernLeft = T;
kernRight = T;
layers = (
{
layerId = m01;
shapes = (
{
ref = T;
},
{
pos = (23,165);
ref = caroncomb;
}
);
width = 660;
},
{
associatedMasterId = m01;
layerId = "5095376C-A845-4BE1-BAF0-188C0B77B0D7";
name = side;
shapes = (
{
closed = 0;
nodes = (
(100,700,l,{
name = shadowColor;
}),
(100,600,l,{
name = shadowColor;
})
);
},
{
closed = 0;
nodes = (
(280,600,l,{
name = shadowBottomColor;
}),
(280,-40,l,{
name = shadowColor;
})
);
},
{
closed = 0;
nodes = (
(460.9,1018.4,l,{
name = topColor;
}),
(268,885.2,l,{
name = shadowColor;
})
);
},
{
closed = 0;
nodes = (
(187,1018.4,l,{
name = shadowColor;
}),
(135,947.5,l,{
name = shadowColor;
})
);
}
);
width = 660;
},
{
associatedMasterId = m01;
layerId = "5E73D7B2-DEFB-465F-B486-93ED628714F1";
name = top;
shapes = (
{
closed = 0;
nodes = (
(560,700,l,{
name = topBottomColor;
}),
(100,700,l,{
name = topColor;
})
);
},
{
closed = 0;
nodes = (
(324,923.8,l,{
name = topBottomColor;
}),
(187,1018.4,l,{
name = midTopColor;
})
);
}
);
width = 660;
},
{
associatedMasterId = m01;
layerId = "DB132561-9562-4CA6-8A99-E5B08A3C9235";
name = highlightColor;
shapes = (
{
closed = 0;
nodes = (
(280,450,l),
(280,190,l),
(280,-90,l)
);
},
{
closed = 0;
nodes = (
(560,700,l),
(100,700,l),
(100,600,l)
);
},
{
closed = 0;
nodes = (
(460.9,1018.4,l),
(324,923.8,l)
);
},
{
closed = 0;
nodes = (
(301,939.4,l),
(187,1018.4,l),
(135,947.5,l)
);
}
);
width = 660;
}
);
metricLeft = H;
metricRight = H;
unicode = 356;
},
{
glyphname = Tcedilla;
kernLeft = T;
kernRight = T;
layers = (
{
layerId = m01;
shapes = (
{
ref = T;
},
{
pos = (280,-90);
ref = cedillacomb;
}
);
width = 660;
},
{
associatedMasterId = m01;
layerId = "0B1B299D-CFFC-4A29-8CEE-DF147F990DA8";
name = side;
shapes = (
{
closed = 0;
nodes = (
(380,-90,l,{
name = shadowBottomColor;
}),
(380,-190,l,{
name = shadowColor;
})
);
},
{
closed = 0;
nodes = (
(100,700,l,{
name = shadowColor;
}),
(100,600,l,{
name = shadowColor;
})
);
},
{
closed = 0;
nodes = (
(280,600,l,{
name = shadowBottomColor;
}),
(280,-40,l,{
name = shadowColor;
})
);
},
{
closed = 0;
nodes = (
(280,-190,l,{
name = shadowColor;
}),
(280,-290,l,{
name = shadowColor;
})
);
}
);
width = 660;
},
{
associatedMasterId = m01;
layerId = "AD475087-960D-48E3-9734-EF64F26CB8EA";
name = top;
shapes = (
{
closed = 0;
nodes = (
(560,700,l,{
name = topColor;
}),
(100,700,l,{
name = topColor;
})
);
},
{
closed = 0;
nodes = (
(430,-190,l,{
name = shadowColor;
}),
(240,-190,l,{
name = midTopColor;
})
);
},
{
closed = 0;
nodes = (
(455.6,-126.3,l,{
name = shadowColor;
}),
(436.9,-104.4,o),
(409.4,-90,o),
(380,-90,c,{
name = shadowColor;
})
);
}
);
width = 660;
},
{
associatedMasterId = m01;
layerId = "6B59BF87-F137-4EE1-B2E5-F377A6752ED4";
name = highlightColor;
shapes = (
{
closed = 0;
nodes = (
(280,450,l),
(280,190,l),
(280,-90,l)
);
},
{
closed = 0;
nodes = (
(560,700,l),
(100,700,l),
(100,600,l)
);
},
{
closed = 0;
nodes = (
(380,-190,l),
(280,-190,l),
(280,-290,l)
);
}
);
width = 660;
}
);
metricLeft = H;
metricRight = H;
unicode = 354;
},
{
glyphname = Tcommaaccent;
kernLeft = T;
kernRight = T;
layers = (
{
layerId = m01;
shapes = (
{
ref = T;
},
{
pos = (0,-40);
ref = commaaccentcomb;
}
);
width = 660;
},
{
associatedMasterId = m01;
layerId = "5095376C-A845-4BE1-BAF0-188C0B77B0D7";
name = side;
shapes = (
{
closed = 0;
nodes = (
(100,700,l,{
name = shadowColor;
}),
(100,600,l,{
name = shadowColor;
})
);
},
{
closed = 0;
nodes = (
(280,600,l,{
name = shadowBottomColor;
}),
(280,-90,l,{
name = shadowColor;
})
);
},
{
closed = 0;
nodes = (
(330,-140,l,{
name = shadowColor;
}),
(283.6,-140,o),
(250,-173.6,o),
(250,-220,cs,{
name = shadowBottomColor;
}),
(250,-247.2,o),
(261.5,-270,o),
(280.4,-284.2,c,{
name = shadowBottomColor;
})
);
}
);
width = 660;
},
{
associatedMasterId = m01;
layerId = "5E73D7B2-DEFB-465F-B486-93ED628714F1";
name = top;
shapes = (
{
closed = 0;
nodes = (
(560,700,l,{
name = topColor;
}),
(100,700,l,{
name = topColor;
})
);
},
{
closed = 0;
nodes = (
(330,-282,l,{
name = shadowBottomColor;
}),
(330,-380,l,{
name = shadowColor;
})
);
}
);
width = 660;
},
{
associatedMasterId = m01;
layerId = "DB132561-9562-4CA6-8A99-E5B08A3C9235";
name = highlightColor;
shapes = (
{
closed = 0;
nodes = (
(280,450,l),
(280,190,l),
(280,-90,l)
);
},
{
closed = 0;
nodes = (
(560,700,l),
(100,700,l),
(100,600,l)
);
},
{
closed = 0;
nodes = (
(330,-140,l,{
name = "";
}),
(283.6,-140,o,{
name = "";
}),
(250,-173.6,o,{
name = "";
}),
(250,-220,c,{
name = "";
})
);
}
);
width = 660;
}
);
metricLeft = H;
metricRight = H;
unicode = 538;
},
